<!-- Created with Inkscape (http://www.inkscape.org/) -->
<svg xmlns:rdf="http://www.w3.org/1999/02/22-rdf-syntax-ns#" xmlns="http://www.w3.org/2000/svg" xml:space="preserve" height="177" width="250" version="1.1" xmlns:cc="http://creativecommons.org/ns#" xmlns:dc="http://purl.org/dc/elements/1.1/"><metadata><rdf:RDF><cc:Work rdf:about=""><dc:format>image/svg+xml</dc:format><dc:type rdf:resource="http://purl.org/dc/dcmitype/StillImage"/><dc:title/></cc:Work></rdf:RDF></metadata><defs><clipPath id="clipPath3071" clipPathUnits="userSpaceOnUse"><path d="M0,0,156,0,156,95,0,95,0,0z"/></clipPath><clipPath id="clipPath3065" clipPathUnits="userSpaceOnUse"><path d="m0,94.013,155.43,0,0-93.953h-155.43v93.953z"/></clipPath></defs><g transform="matrix(0,1.25,1.25,0,-2599.6088,-1174.153)">
<g style="display:none;" transform="matrix(0,0.8,0.8,0,-123.44483,2815.0286)"><path d="m211.89,77.042c-2.5126-0.34679-4.3271-1.4073-5.5153-3.2234-1.0239-1.565-1.469-3.13-1.5131-5.3202-0.07-3.479,1.2126-5.9564,3.7045-7.1549,1.7676-0.85016,2.7944-0.99159,7.7291-1.0646l4.348-0.0644-0.0613-1.5928c-0.0701-1.821-0.2766-2.4204-0.99945-2.9019-0.85555-0.56984-1.1574-0.59985-6.5762-0.65388l-5.1932-0.0518,0.0791-0.60934c0.0435-0.33514,0.19804-1.8402,0.34352-3.3447,0.14546-1.5044,0.29701-2.9345,0.33678-3.1779l0.0723-0.44256,5.624,0.0806c3.0932,0.0443,6.0929,0.1433,6.666,0.21993,5.0788,0.67899,7.3663,2.5298,8.2888,6.7066,0.28095,1.272,0.28889,1.5491,0.3387,11.821l0.051,10.518h-3.7664-3.7664l-0.14277-0.86163c-0.0785-0.47389-0.16121-0.88006-0.18375-0.90259-0.0226-0.0225-0.46976,0.1633-0.99385,0.41293-2.6815,1.2772-6.392,1.9497-8.8701,1.6077l-0.00011,0.0001zm5.8642-6.4344c0.4715-0.1,1.3068-0.37499,1.8561-0.61123l0.99887-0.42951v-1.6774-1.6773l-2.7028,0.0447c-2.2921,0.038-2.7755,0.0809-3.1812,0.28197-0.57235,0.28377-0.88958,0.87983-0.88856,1.6696,0.003,2.144,1.3189,2.95,3.9175,2.3992v0.00004zm25.78,6.4339c-6.54-0.80098-10.014-4.0432-10.82-10.098-0.2197-1.651-0.0852-9.7612,0.18038-10.873,0.84557-3.5418,2.5096-5.83,5.2925-7.2779,3.7601-1.9562,9.26-2.1793,16.256-0.65921l0.68384,0.1486v3.6508,3.6509l-0.42333-0.0789c-4.382-0.81609-8.5761-1.0883-10.426-0.67668-1.2702,0.28258-1.8992,0.73214-2.316,1.6552-0.31225,0.6915-0.31633,0.75219-0.35603,5.2907-0.0339,3.8615-0.008,4.7195,0.16658,5.3982,0.43791,1.7093,1.2719,2.2474,3.7812,2.4395,2.1233,0.16254,6.1484-0.20756,9.2156-0.84736l0.35821-0.0747v3.6487c0,3.3632-0.0179,3.6538-0.22795,3.714-0.50079,0.14354-2.4059,0.49054-4.0705,0.74143-2.006,0.30236-5.7987,0.43143-7.2943,0.24825v0.00004zm25.139,0.002c-5.6253-0.68383-9.0233-3.2525-10.335-7.8125-0.49396-1.7173-0.60608-3.124-0.60213-7.5548,0.005-5.4694,0.18075-6.7382,1.2369-8.9225,1.4329-2.9635,3.8748-4.6232,7.8766-5.3534,1.6977-0.30977,5.5846-0.31246,7.26-0.005,5.5824,1.0244,8.4193,3.9957,9.0072,9.434,0.0797,0.73711,0.14489,2.8326,0.14489,4.6566v3.3164h-8.2905-8.2905l0.0762,1.1751c0.12675,1.9564,0.77457,2.9622,2.1874,3.3959,1.466,0.45008,6.8072,0.34477,10.635-0.20968,1.2731-0.18443,2.4467-0.3683,2.6079-0.40861l0.29306-0.0733v3.6525c0,3.3652-0.018,3.658-0.22792,3.7221-0.41118,0.1255-3.1918,0.58965-4.7869,0.799-1.8423,0.24182-7.3766,0.36028-8.7922,0.18817l-0.00007,0.00003zm5.5764-18.939c0.11611-1.8326-0.51003-3.2419-1.7037-3.8349-0.8474-0.42093-2.489-0.52665-3.5207-0.22671-1.5347,0.44615-2.1792,1.4357-2.2792,3.4996l-0.0616,1.272,3.7624-0.0347,3.7624-0.0347,0.0406-0.64082-0.00006,0.00022zm20.996,18.994c-2.4234-0.16774-7.6914-0.80407-8.6945-1.0503l-0.29308-0.0719v-20.213-20.213l4.2007-0.69012c2.3104-0.37955,4.3326-0.72068,4.4938-0.75804l0.29306-0.068v7.0631,7.0631l0.29308-0.0857c2.6591-0.77705,5.7634-1.1033,8.2963-0.87193,5.458,0.4986,7.7183,2.3983,8.4198,7.0763,0.16606,1.1076,0.19204,2.427,0.14943,7.5928-0.0589,7.1346-0.123,7.6844-1.1445,9.8052-0.7538,1.565-2.1783,2.9902-3.77,3.772-2.306,1.1325-4.6922,1.5808-8.7922,1.6517-1.5044,0.026-3.0577,0.025-3.4518-0.002v-0.00019zm5.8789-7.6568c0.8525-0.3172,1.5865-0.99469,1.9505-1.8004,0.30741-0.68036,0.31209-0.75219,0.35157-5.4174,0.0458-5.4125-0.008-5.8207-0.86911-6.6825-1.1732-1.1731-4.0187-1.201-6.5629-0.0643l-0.74897,0.33463v6.8834c0,3.7859,0.044,6.9275,0.0977,6.9814,0.0537,0.0538,1.2407,0.0736,2.6377,0.0438,1.9828-0.0423,2.6724-0.10343,3.1435-0.27872zm23.624,7.3997c-2.6671-0.40932-4.8239-1.3604-6.3792-2.8128-1.8779-1.7537-2.8315-3.8486-3.2034-7.0366-0.21393-1.8342-0.0852-9.8972,0.17741-11.112,0.82772-3.8286,2.8136-6.2928,6.1469-7.6275,3.64-1.4575,9.7717-1.4608,13.402-0.008,2.3022,0.92184,4.0646,2.5151,5.0825,4.5946,1.0903,2.2273,1.3797,4.1654,1.3781,9.2272-0.002,5.1662-0.28692,7.093-1.3874,9.372-0.5006,1.0366-0.77208,1.4077-1.7186,2.3494-1.7125,1.7038-3.6976,2.61-6.69,3.0544-1.688,0.25064-5.1702,0.24984-6.8083-0.002v0.001,0.00004zm5.2102-7.4213c0.79435-0.21944,1.5382-0.81321,1.925-1.5366,0.28203-0.52739,0.29026-0.66452,0.3277-5.455,0.0244-3.1228-0.0111-5.0978-0.0974-5.4181-0.22225-0.82534-0.81629-1.5171-1.6575-1.9302-0.70091-0.34418-0.87209-0.37243-2.2564-0.37243-1.298,0-1.5893,0.0413-2.1827,0.30952-0.7448,0.33665-1.3359,0.92393-1.6926,1.6817-0.20408,0.43349-0.22767,0.98975-0.22767,5.3682,0,5.4166,0.0125,5.5129,0.82983,6.4204,1.0192,1.1316,2.9893,1.4967,5.0316,0.9325h0.0001zm23.967,7.486c-2.0973-0.28268-4.2631-1.04-5.6981-1.9925-1.178-0.78193-2.3638-2.1578-3.0351-3.5216-1.0988-2.2325-1.3616-4.0198-1.3616-9.2597,0-5.2688,0.26018-7.0176,1.3856-9.3132,0.50364-1.0274,0.79688-1.4281,1.7272-2.3602,0.96817-0.9701,1.3065-1.2131,2.4882-1.7872,1.7063-0.82891,3.4587-1.2637,5.8574-1.4533,3.6798-0.29087,7.5412,0.36037,9.7554,1.6453,2.9698,1.7234,4.5168,4.355,4.9667,8.4492,0.16978,1.5448,0.16729,7.8899-0.004,9.5567-0.18775,1.8296-0.54368,3.1331-1.2495,4.576-0.50789,1.0382-0.78597,1.4163-1.7272,2.3481-1.5395,1.5242-3.1181,2.3212-5.811,2.9342-1.094,0.24903-5.8981,0.36641-7.2943,0.17822h0.00021zm4.8229-7.4854c0.82262-0.2259,1.6307-0.90845,2.032-1.7164,0.30874-0.62154,0.3091-0.62801,0.3091-5.5068v-4.8846l-0.34685-0.73993c-0.60446-1.2894-1.8515-1.9303-3.7562-1.9303s-3.1517,0.64086-3.7562,1.9303l-0.34687,0.73993v4.6892c0,5.2077,0.0423,5.5487,0.79728,6.4308,0.98813,1.1544,3.0194,1.5504,5.0677,0.98785zm-168.88-3.5109,0-10.876-2.2815,0-2.2815,0,0.0346-3.7448,0.0346-3.7448,2.2333-0.0357,2.2333-0.0357,0.0597-3.5464c0.0521-3.0912,0.0953-3.6776,0.33701-4.5679,0.63964-2.356,1.9346-4.0427,3.7987-4.9479,1.9113-0.9281,3.3522-1.127,8.1755-1.1285l3.4212-0.00093-0.0347,3.7448-0.0346,3.7448-2.6702,0.0652c-3.9986,0.0976-4.0379,0.13816-4.0379,4.1708v2.4722h3.3866c1.8626,0,3.3866,0.0191,3.3866,0.0422,0,0.0232-0.17585,1.6944-0.39076,3.7138-0.21492,2.0194-0.39076,3.7002-0.39076,3.7352,0,0.0351-1.3481,0.0637-2.9959,0.0637h-2.9959v10.876,10.876h-4.4938-4.4938v-10.876l0.00008-0.00006zm182.88-9.7482,0-20.625,4.1356-0.68511c2.2746-0.3768,4.2965-0.71587,4.4932-0.75346l0.35758-0.0683,0.0332,13.189,0.0332,13.189,1.1345-1.8079c0.62397-0.99437,2.45-3.8888,4.0579-6.432l2.9234-4.624,4.8466-0.0342c4.3988-0.0311,4.8392-0.0149,4.7666,0.17434-0.0771,0.2006-1.5832,2.603-6.5218,10.402-1.9422,3.0671-2.2845,3.6812-2.1783,3.9076,0.0692,0.14778,2.0892,3.5372,4.4887,7.532l4.3627,7.2633-4.8956-0.0342-4.8956-0.0342-4.0445-6.7411-4.0445-6.7411-0.0337,6.7736-0.0338,6.7736h-4.4926-4.4926v-20.625l0.00003,0.00017z" style="fill:#ffffff;"/></g>
<flowRoot xml:space="preserve" style="font-size:20px;font-family:Utopia;letter-spacing:0px;font-style:normal;word-spacing:0px;font-stretch:normal;font-variant:normal;font-weight:normal;line-height:125%;fill:#000000;"><flowRegion><rect y="169.6" width="1064.5" x="1479.5" height="138.32"/></flowRegion><flowPara/></flowRoot>
<path style="fill:#ffffff;" d="m769.18,307.25c0,137.37-141.77,248.73-316.66,248.73s-316.66-111.36-316.66-248.73,141.77-248.73,316.66-248.73,316.66,111.36,316.66,248.73z" transform="matrix(0,0.14700375,0.14482973,0,946.29898,2111.1637)"/><path style="fill-rule:evenodd;fill:#ffffff;" d="m963.08,2178c0,20.12,12.664,36.437,28.28,36.437s28.28-16.317,28.28-36.437-12.664-36.437-28.28-36.437-28.28,16.317-28.28,36.437"/><path style="fill-rule:nonzero;fill:#0073d1;" d="m1036.5,2107.8,3.4855-1.2978,0,2.5455zm-1.2918-0.8942,0,1.8407,7.7503,2.9917,0-1.6456-1.8338-0.6433,0-3.371,1.8338-0.6712,0-1.5135zm0.2457,11.435,1.2268-0.099c-0.011-0.03-0.026-0.067-0.043-0.1153-0.27-0.7177-0.4039-1.2792-0.4039-1.6826,0-0.8498,0.2644-1.5284,0.7912-2.0379,0.5269-0.5076,1.2287-0.7623,2.1038-0.7623,0.8303,0,1.5023,0.2621,2.0181,0.7864,0.5157,0.5263,0.7744,1.218,0.7744,2.0789,0,0.2881-0.1003,0.7195-0.2997,1.2977-0.069,0.2027-0.1173,0.3552-0.147,0.4575l1.2269,0.1301c0.026-0.095,0.063-0.2343,0.1154-0.4203,0.1993-0.7008,0.2997-1.2327,0.2997-1.5952,0-1.3332-0.3574-2.3855-1.0742-3.1553-0.7167-0.7698-1.6867-1.1546-2.9136-1.1546-1.2252,0-2.2138,0.3867-2.964,1.1583-0.7502,0.7717-1.1262,1.7943-1.1262,3.0698,0,0.396,0.099,0.9315,0.294,1.6065,0.056,0.2007,0.095,0.3457,0.1211,0.4369zm-0.2457,0.5038,0,5.632,1.1952,0,0-2.0638,6.5551,0,0-1.5302-6.5551,0,0-2.038zm0,6.6026,0,1.5246,7.7503,0,0-1.5246zm0.9811,6.5803c0-0.6321,0.2605-1.1418,0.782-1.5284,0.523-0.3868,1.2176-0.5802,2.0868-0.5802,0.8732,0,1.5716,0.1915,2.0984,0.5765,0.5249,0.3847,0.7874,0.8963,0.7874,1.5321,0,0.6339-0.2643,1.1471-0.7912,1.5358-0.5268,0.3885-1.2249,0.582-2.0946,0.582-0.8656,0-1.56-0.1935-2.0831-0.582-0.5233-0.3887-0.7857-0.9019-0.7857-1.5358zm-1.1505,0c0,1.136,0.3593,2.0323,1.0795,2.6868,0.7208,0.6562,1.7075,0.9835,2.9622,0.9835,1.2586,0,2.2454-0.3254,2.9621-0.9779,0.7168-0.6509,1.0742-1.5491,1.0742-2.6924,0-1.1418-0.3574-2.0359-1.0742-2.6868-0.7167-0.649-1.7035-0.9742-2.9621-0.9742-1.2622,0-2.2508,0.3252-2.9676,0.978-0.7167,0.6508-1.0741,1.545-1.0741,2.683zm0.1694,5.0556,0,1.9169,5.4158,2.843c0.1489,0.072,0.3442,0.1543,0.5846,0.2435,0.2382,0.087,0.5138,0.1786,0.823,0.2697-0.3669-0.063-0.7019-0.1097-1.0035-0.1396-0.3018-0.032-0.5605-0.046-0.7747-0.046h-5.0452v1.3831h7.7503v-1.8888l-5.5424-2.9306c-0.1378-0.076-0.3183-0.1524-0.5436-0.2284-0.2271-0.077-0.4915-0.1544-0.7968-0.2309,0.4543,0.06,0.8433,0.1061,1.1691,0.1396,0.3259,0.035,0.5549,0.052,0.6852,0.052h5.0285v-1.3834zm0,11.442,0,1.5246,4.5426,0c0.7521,0,1.3051,0.1264,1.655,0.3793,0.352,0.2511,0.527,0.6471,0.527,1.1843,0,0.5413-0.1882,0.9502-0.564,1.2256-0.3763,0.2769-0.9347,0.4146-1.6719,0.4146h-4.4887v1.4372h4.4997c1.1338,0,1.9865-0.2586,2.5543-0.7753,0.5697-0.5189,0.8546-1.2923,0.8546-2.3242,0-1.0134-0.2811-1.7777-0.8451-2.2926-0.5641-0.5151-1.3963-0.7735-2.4985-0.7735zm0,7.1732,0,5.632,1.1952,0,0-2.0637,6.5551,0,0-1.5302-6.5551,0,0-2.0381zm0,6.6026,0,1.5248,7.7503,0,0-1.5248zm0,3.2576,0,1.5246,6.5663,0,0,3.1052,1.184,0,0-4.6298zm0,5.6209,0,1.5246,7.7503,0,0-1.5246zm0,2.5211,0,5.6322,1.1952,0,0-2.0639,6.5551,0,0-1.5303-6.5551,0,0-2.038zm0,5.5074,0,1.7552,3.4963,1.8837-3.4963,1.8853,0,1.6493,4.6804-2.832,3.0699,0,0-1.53-3.0496,0zm7.5382,16.137,1.6849,1.7328,0-1.7646-1.3369-1.2921c0-0.035,0-0.086,0.01-0.1524,0-0.065,0.01-0.1116,0.01-0.1415,0-1.1935-0.3501-2.1196-1.052-2.774-0.7019-0.6563-1.6941-0.9836-2.9732-0.9836-1.2622,0-2.2508,0.3254-2.9676,0.9779-0.7167,0.6509-1.0742,1.5453-1.0742,2.6832,0,1.1359,0.3594,2.0322,1.0796,2.6866,0.7208,0.6565,1.7075,0.9836,2.9622,0.9836,0.8899,0,1.6385-0.1598,2.2416-0.4815,0.6032-0.3216,1.078-0.8125,1.4243-1.4744zm-6.5571-1.7143c0-0.6322,0.2605-1.1417,0.782-1.5285,0.523-0.3866,1.2176-0.5801,2.0868-0.5801,0.8732,0,1.5716,0.1916,2.0984,0.5763,0.5249,0.385,0.7874,0.8963,0.7874,1.5323,0,0.634-0.2643,1.1472-0.7912,1.5357-0.5268,0.3887-1.2249,0.5822-2.0946,0.5822-0.8656,0-1.56-0.1935-2.0831-0.5822-0.5233-0.3885-0.7857-0.9017-0.7857-1.5357zm-0.9811,5.011,0,1.5246,4.5426,0c0.7521,0,1.3051,0.1263,1.655,0.3793,0.352,0.2508,0.527,0.6471,0.527,1.1843,0,0.541-0.1882,0.9502-0.564,1.2253-0.3763,0.2771-0.9347,0.4146-1.6719,0.4146h-4.4887v1.4375h4.4997c1.1338,0,1.9865-0.2586,2.5543-0.7754,0.5697-0.5188,0.8546-1.2923,0.8546-2.3244,0-1.0132-0.2811-1.7775-0.8451-2.2924-0.5641-0.515-1.3963-0.7734-2.4985-0.7734zm0,7.9095,0,4.7283,1.1132,0,0-3.2035,2.0553,0,0,3.0362,1.1394,0,0-3.0362,2.2697,0,0,3.3188,1.1727,0,0-4.8436zm-2.7386,2.5641,0,1.2754,1.9641-1.6676,0-0.6918zm7.0465,5.2861,2.3143,0,0,0.8181c0,0.5299-0.1007,0.9335-0.2998,1.2105-0.2009,0.2769-0.4914,0.4165-0.8731,0.4165-0.3725,0-0.6553-0.1283-0.849-0.3869-0.1955-0.2565-0.2924-0.6339-0.2924-1.1323zm-3.217,0,2.1372,0,0,0.7252c0,0.5-0.091,0.8812-0.2719,1.1415-0.1823,0.2586-0.4467,0.3887-0.7909,0.3887-0.352,0-0.6202-0.1209-0.8025-0.3645-0.1808-0.2435-0.2719-0.6024-0.2719-1.0728zm-1.0909-1.5041,0,2.5658c0,0.8906,0.1694,1.5655,0.5101,2.0267,0.3388,0.461,0.8376,0.6916,1.4968,0.6916,0.4208,0,0.7818-0.1245,1.0799-0.3756,0.2978-0.2511,0.5082-0.6043,0.6328-1.0617,0.1079,0.5337,0.324,0.941,0.6479,1.2255,0.324,0.2824,0.7338,0.4238,1.2288,0.4238,0.7019,0,1.2363-0.253,1.6031-0.7605,0.3666-0.5057,0.5509-1.2495,0.5509-2.2294v-2.5062zm0,6.8628,0,4.7283,1.1132,0,0-3.2037,2.0553,0,0,3.0364,1.1394,0,0-3.0364,2.2697,0,0,3.3188,1.1727,0,0-4.8434zm0.2457,12.279,1.2268-0.098c-0.011-0.03-0.026-0.067-0.043-0.1153-0.27-0.7177-0.4039-1.2794-0.4039-1.6827,0-0.8497,0.2644-1.5284,0.7912-2.0381,0.5269-0.5075,1.2287-0.7621,2.1038-0.7621,0.8303,0,1.5023,0.2621,2.0181,0.7864,0.5157,0.5261,0.7744,1.2179,0.7744,2.0787,0,0.2883-0.1003,0.7196-0.2997,1.298-0.069,0.2026-0.1173,0.3551-0.147,0.4572l1.2269,0.1304c0.026-0.095,0.063-0.2344,0.1154-0.4203,0.1993-0.701,0.2997-1.2328,0.2997-1.5954,0-1.3331-0.3574-2.3856-1.0742-3.1553-0.7167-0.7697-1.6867-1.1546-2.9136-1.1546-1.2252,0-2.2138,0.3868-2.964,1.1584-0.7502,0.7715-1.1262,1.7942-1.1262,3.0696,0,0.3963,0.099,0.9316,0.294,1.6067,0.056,0.2007,0.095,0.3457,0.1211,0.4367zm-0.2457,4.5406,0,1.5248,7.7503,0,0-1.5248zm0,3.2576,0,1.9171,5.4158,2.8428c0.1489,0.072,0.3442,0.1543,0.5846,0.2435,0.2382,0.088,0.5138,0.1786,0.823,0.2697-0.3669-0.063-0.7019-0.1097-1.0035-0.1393-0.3018-0.032-0.5605-0.047-0.7747-0.047h-5.0452v1.3834h7.7503v-1.8891l-5.5424-2.9303c-0.1378-0.076-0.3183-0.1525-0.5436-0.2287-0.2271-0.076-0.4915-0.1544-0.7968-0.2306,0.4543,0.059,0.8433,0.1059,1.1691,0.1395,0.3259,0.035,0.5549,0.052,0.6852,0.052h5.0285v-1.3834zm0.2457,14.12,1.2268-0.099c-0.011-0.03-0.026-0.067-0.043-0.1153-0.27-0.7176-0.4039-1.2793-0.4039-1.6827,0-0.8497,0.2644-1.5283,0.7912-2.0377,0.5269-0.5079,1.2287-0.7624,2.1038-0.7624,0.8303,0,1.5023,0.2621,2.0181,0.7864,0.5157,0.5261,0.7744,1.2179,0.7744,2.0787,0,0.2882-0.1003,0.7196-0.2997,1.2979-0.069,0.2026-0.1173,0.3551-0.147,0.4573l1.2269,0.1303c0.026-0.095,0.063-0.2343,0.1154-0.4202,0.1993-0.701,0.2997-1.2328,0.2997-1.5954,0-1.3331-0.3574-2.3856-1.0742-3.1553-0.7167-0.7697-1.6867-1.1547-2.9136-1.1547-1.2252,0-2.2138,0.3869-2.964,1.1584-0.7502,0.7716-1.1262,1.7943-1.1262,3.0699,0,0.396,0.099,0.9314,0.294,1.6065,0.056,0.2007,0.095,0.3459,0.1211,0.4369zm6.0544,1.3051,0,1.4485,1.4502,0,0-1.4485z"/><g transform="matrix(0,0.57701858,-0.57776581,0,1018.2713,2133.5094)"><g clip-path="url(#clipPath3065)"><g clip-path="url(#clipPath3071)"><path style="fill-rule:evenodd;fill:#ffffff;" d="m155.33,58.987c-1.442,7.908-12.64,8.991-22.356,9.238-10.032,15.299-30.585,25.788-54.314,25.788-19.671,0-37.155-7.215-48.281-18.4l-4.395-2.086c-3.917-1.856-9.101-4.924-14.472-12.248l-0.184-0.252-2.653-6.945c-2.57-6.69-6.46-16.8-8.477-22.413l-0.194-0.54,0.08-0.571c0.713-4.893,4.195-8.188,10.36-9.784,4.782-1.239,10.389-1.321,15.337-1.391l0.203-0.004c1.153-0.025,2.319-0.034,3.481-0.03,11.065-11.726,28.981-19.349,49.199-19.349,14.722,0,28.228,4.035,38.751,10.762l5.654,2.016c11.251,4.012,15.644,8.07,19.093,13.324l0.093,0.142,0.068,0.155c2.641,5.711,10.945,25.229,12.94,31.468l0.173,0.548-0.102,0.572"/></g></g></g><path style="fill-rule:nonzero;fill:#f5002f;" d="m1003.1,2175.6c1.4542-9.1838,2.9102-18.368,2.6802-27.102-0.078-5.4817-0.1473-12.889-5.3073-13.637-4.7296,1.6993-14.91,5.66-16.769,6.3472-3.7289,2.731-5.4859,5.3721-6.6605,7.8452,4.1148-3.2088,7.7813-4.1361,7.7813-4.1361,0.16525,0.9861,0.29929,3.2192,0.40732,4.2226,1.0735,10.098-0.64131,20.941-2.3544,31.786-1.4537,9.181-2.9096,18.367-2.6797,27.098,0.078,5.4851,0.24151,13.044,4.2789,13.776,3.4279-1.0923,14.51-5.7794,18.025-7.4026,2.8795-1.8897,5.0242-4.3293,7.1695-10.348-3.904,5.6617-8.5192,7.1458-8.5192,7.1458-0.1658-0.9861-0.2999-2.8101-0.4062-3.8135-1.0723-10.097,0.6442-20.941,2.3533-31.782"/><path style="fill-rule:evenodd;fill:#0073d1;" d="m971.76,2192.1c0.063,0.039,0.13,0.08,0.1924,0.1194-0.26404,2.6924-0.60723,5.3265-1.0284,7.8948-2.5017-3.9936-4.3084-8.7373-5.1831-13.938,1.3838,2.1932,3.4111,4.2013,6.0192,5.9237zm30.225,3.7864c2.4624-0.7121,4.7718-1.6648,6.8523-2.8413,0.3132,3.0109,0.7286,5.9497,1.2347,8.803-2.1718,3.0161-4.7671,5.5192-7.6652,7.3437-0.6211-4.2936-0.6887-8.7585-0.4218-13.305zm8.414-3.7864c2.6098-1.7224,4.6372-3.7305,6.0174-5.9237-0.8707,5.2006-2.6791,9.9443-5.1773,13.938-0.4229-2.5683-0.7708-5.2024-1.0313-7.8948,0.063-0.039,0.1288-0.08,0.1912-0.1194zm0-26.148c-0.062-0.042-0.1277-0.08-0.1912-0.1206,0.2605-2.6906,0.6084-5.3305,1.0313-7.8942,2.4982,3.9901,4.3066,8.7372,5.1773,13.936-1.3802-2.1932-3.4076-4.203-6.0174-5.9213zm-38.639,0c-2.608,1.7183-4.6354,3.7281-6.0192,5.9213,0.87473-5.1989,2.6814-9.946,5.1831-13.936,0.42119,2.5637,0.76438,5.2036,1.0284,7.8942-0.0624,0.04-0.12942,0.079-0.1924,0.1206zm1.716,25.518c0.36574-4.049,0.55756-8.211,0.55756-12.444,0-4.2347-0.19182-8.4008-0.55756-12.45,2.8981-1.7316,6.4016-3.0426,10.277-3.7841-0.46509,5.9508-1.4207,12.019-2.3677,18.001-0.70198,4.4332-1.4063,8.9097-1.9205,13.364-2.1886-0.716-4.205-1.6156-5.9886-2.6871zm36.58-0.8777c-0.3218-3.7697-0.4842-7.6409-0.4842-11.566,0-3.93,0.1624-7.7984,0.4842-11.569,3.8011,2.6318,6.3248,6.0477,6.9216,9.8301,0.019,0.5747,0.032,1.1546,0.032,1.7385,0,0.58-0.013,1.1598-0.032,1.7357-0.5968,3.7841-3.1205,7.1977-6.9216,9.8301zm-1.3716-24.016c-0.3686,4.0495-0.5564,8.2156-0.5564,12.45,0,4.2325,0.1878,8.3945,0.5564,12.444-1.9494,1.169-4.1744,2.139-6.6004,2.877,0.4472-6.1176,1.4346-12.363,2.4075-18.522,0.557-3.5199,1.1163-7.0714,1.5808-10.617,0.9158,0.4212,1.7911,0.8765,2.6121,1.3681zm-2.4191-2.8608c0.4524-3.6872,0.7875-7.368,0.8932-10.997,1.0377,1.0658,2.0118,2.2302,2.9131,3.4864-0.5061,2.8499-0.9215,5.7869-1.2347,8.7995-0.8216-0.4662-1.6836-0.8944-2.5716-1.289zm-26.962,31.908c-0.45932,4.3444-0.71238,8.6605-0.57602,12.887-2.4873-1.7461-4.729-4.0045-6.6414-6.6623,0.51017-2.8533,0.92385-5.7921,1.233-8.803,1.8361,1.0369,3.8456,1.9007,5.9845,2.5781zm-7.2007-28.163c0.31952,3.7679,0.48418,7.6363,0.48418,11.566,0,3.9249-0.16466,7.7961-0.48418,11.564-3.7988-2.6301-6.3213-6.0437-6.921-9.8278-0.022-0.5759-0.0323-1.1557-0.0323-1.7357,0-0.5839,0.0104-1.1638,0.0323-1.7385,0.59972-3.7824,3.1222-7.1983,6.921-9.8278zm11.756-6.1579c-3.8583,0.6964-7.4445,1.9526-10.54,3.7021-0.30911-3.0126-0.72279-5.9496-1.233-8.7995,3.0512-4.2428,6.939-7.4603,11.326-9.2144,0.70604,4.6034,0.75977,9.4129,0.4472,14.312"/><path style="fill-rule:nonzero;fill:#ffffff;" d="m997.83,2212,0,0.1933c0,0.2164-0.0809,0.4034-0.286,0.4034-0.14271,0-0.28946-0.1074-0.28946-0.4034,0-0.088,0.006-0.146,0.0127-0.1933h0.56275zm0.91806,0,0-0.2637-1.6599,0c-0.0173,0.1408-0.0393,0.2718-0.0393,0.4703,0,0.2522,0.0526,0.4149,0.12711,0.5153,0.0739,0.097,0.18431,0.1512,0.34204,0.1512,0.22014,0,0.35243-0.1466,0.40386-0.3261h0.0104c0.0318,0.1478,0.16119,0.2459,0.40617,0.2787,0.25768,0.038,0.35822,0.079,0.40964,0.1051v-0.2758c-0.0514-0.04-0.2028-0.081-0.42292-0.1143-0.21147-0.039-0.29178-0.1425-0.29178-0.3549v-0.1858h0.7147zm-2.1216,0.2793c0-0.6549,0.56043-1.1869,1.2572-1.1869,0.70546,0,1.2618,0.532,1.2618,1.1927,0.004,0.6589-0.55639,1.1875-1.2549,1.1875-0.70372,0-1.2642-0.5286-1.2642-1.1875v-0.01zm-0.22938,0.01c0,0.8118,0.66039,1.4575,1.4866,1.4575,0.83893,0,1.493-0.6457,1.493-1.4633,0-0.8142-0.65402-1.4714-1.493-1.4714-0.8262,0-1.4866,0.6572-1.4866,1.4714v0.01"/><path style="fill-rule:nonzero;fill:#ffffff;" d="m988.4,2156.4c0.0243-1.3831-0.006-3.2723-0.0514-4.4419l-0.009-0.251,0.25016-0.035c2.5139-0.3612,5.8903-1.1148,9.2645-2.0669,0.64942-0.1581,0.98913-0.4045,1.077-1.33,0.0283-0.3266,0.002-0.8263-0.0254-1.2683,0,0-0.0289-0.4726-0.0289-0.4726-0.0191-0.3612-0.0376-0.6751-0.0965-0.8672-0.0843-0.2747-0.19182-0.3255-0.22244-0.3405-0.13404-0.067-0.3715-0.036-0.74878,0.1027-3.1459,1.0658-7.8576,3.3646-9.2287,4.0432l-0.36168,0.1795-0.0399-0.4011c-0.11383-1.1782-0.34031-3.0311-0.56275-4.3161l-0.041-0.2348,0.22591-0.076,8.05-2.7541,0.62571-0.2181c1.6368-0.5753,2.9287-1.0294,4.2893-0.2556,0.6806,0.3935,1.1365,0.9769,1.3838,1.7853,0.2484,1.064,0.3177,2.2434,0.3512,2.8095v0.035c0.055,0.8493,0.1317,2.0138,0.029,2.8435-0.1393,1.1212-0.5639,1.8176-1.0238,2.4916-0.9152,1.3329-2.3013,1.843-4.6707,2.63l-8.4452,2.8009,0.006-0.3924zm-4.2032,60.475c-0.24209-1.3133-0.4472-2.6935-0.59568-4.1026l-0.0179-0.1621s3.8323-2.8286,4.7134-3.4777c-1.0423-0.1425-5.0006-0.678-5.0006-0.678l-0.008-0.2372c-0.0445-1.36-0.0272-2.7743,0.008-4.2641l0.009-0.3514,0.002-0.022,0.005-0.1096c0.0803-3.0847,0.33049-6.4424,0.76438-10.268l0.022-0.1807,3.5481-1.0692s-0.2623,2.5285-0.32471,3.1483c0.70604-0.2101,10.391-3.1015,10.391-3.1015l-0.0387,0.4102c-0.12943,1.3797-0.23111,2.7484-0.30969,4.0709l-0.0121,0.1945s-10.037,2.9635-10.389,3.0697c-0.0537,0.9515-0.0965,1.9145-0.12249,2.8712l-0.005,0.2014-3.046,0.8921c2.7415,0.7207,5.5206,1.4246,8.2621,2.098,0.13866-0.04,5.167-1.4921,5.167-1.4921l0.0144,0.3571c0.0549,1.3335,0.14733,2.6468,0.27675,3.9018l0.0237,0.2332s-4.9544,1.409-5.0664,1.4448c-2.6646,2.2769-5.2877,4.5585-7.8091,6.7788l-0.36746,0.3255-0.093-0.4813zm0.6546-29.781,0.16987-0.051,13.796-4.2215-0.62573,4.7604-0.17332,0.052-13.787,4.1735,0.0584-0.4264,0.56157-4.2867zm0.90652-6.1192,0.0676-0.4397,0.18085-1.21,0.46162-3.0882,0.16641-0.054,13.828-4.3524-0.59225,3.9352-0.84354,5.6923-0.16698,0.052-3.4504,1.0628s0.60318-4.0945,0.71296-4.8227c-0.77304,0.2412-10.365,3.225-10.365,3.225zm1.0059-6.6277,0.57603-4.282,0.16871-0.055,13.837-4.4367-0.646,4.7731-0.1669,0.05-13.827,4.3888,0.0583-0.4386zm4.1085-6.5624-3.3961,1.0917,0.0514-0.4304c0.45006-3.8361,0.72335-7.1816,0.82966-10.231l0.009-0.1939,3.551-1.1742-0.0133,0.4016c-0.0323,0.8627-0.0786,1.7697-0.13866,2.6912,0.6702-0.2192,10.445-3.4229,10.445-3.4229l-0.028,0.4115c-0.088,1.3075-0.1993,2.6848-0.3415,4.0945l-0.017,0.1817s-10.105,3.2804-10.439,3.3877c-0.0364,0.322-0.33915,3.1373-0.33915,3.1373l-0.17447,0.055"/><rect style="fill:none;" transform="matrix(0,1,1,0,0,0)" height="141.6" width="200" y="939.32" x="2079.7"/><text style="font-size:10.75133228px;font-family:'Helvetica Neue',Helvetica,Arial,sans-serif;letter-spacing:0px;font-style:normal;word-spacing:0px;font-stretch:normal;font-variant:normal;font-weight:normal;line-height:125%;fill:#0071d0;" xml:space="preserve" transform="matrix(0,0.99935314,1.0006473,0,0,0)" y="1054.4323" x="2152.5588"><tspan x="2152.5588" y="1054.4323">TRAILERS</tspan></text>
</g></svg>
