<?xml version="1.0" encoding="UTF-8" standalone="no"?>
<!-- Created with Inkscape (http://www.inkscape.org/) -->

<svg
   xmlns:dc="http://purl.org/dc/elements/1.1/"
   xmlns:cc="http://creativecommons.org/ns#"
   xmlns:rdf="http://www.w3.org/1999/02/22-rdf-syntax-ns#"
   xmlns:svg="http://www.w3.org/2000/svg"
   xmlns="http://www.w3.org/2000/svg"
   xmlns:sodipodi="http://sodipodi.sourceforge.net/DTD/sodipodi-0.dtd"
   xmlns:inkscape="http://www.inkscape.org/namespaces/inkscape"
   xml:space="preserve"
   height="177"
   width="250"
   version="1.1"
   id="svg2"
   inkscape:version="0.48.2 r9819"
   sodipodi:docname="log.svg"><sodipodi:namedview
     pagecolor="#ffffff"
     bordercolor="#666666"
     borderopacity="1"
     objecttolerance="10"
     gridtolerance="10"
     guidetolerance="10"
     inkscape:pageopacity="0"
     inkscape:pageshadow="2"
     inkscape:window-width="899"
     inkscape:window-height="638"
     id="namedview52"
     showgrid="false"
     inkscape:zoom="1.8856181"
     inkscape:cx="73.670463"
     inkscape:cy="76.886039"
     inkscape:window-x="0"
     inkscape:window-y="0"
     inkscape:window-maximized="0"
     inkscape:current-layer="svg2" /><metadata
     id="metadata4"><rdf:RDF><cc:Work
         rdf:about=""><dc:format>image/svg+xml</dc:format><dc:type
           rdf:resource="http://purl.org/dc/dcmitype/StillImage" /><dc:title /></cc:Work></rdf:RDF></metadata><defs
     id="defs6"><clipPath
       id="clipPath3071"
       clipPathUnits="userSpaceOnUse"><path
         d="M0,0,156,0,156,95,0,95,0,0z"
         id="path9" /></clipPath><clipPath
       id="clipPath3065"
       clipPathUnits="userSpaceOnUse"><path
         d="m0,94.013,155.43,0,0-93.953h-155.43v93.953z"
         id="path12" /></clipPath></defs><path
     inkscape:connector-curvature="0"
     id="path18"
     d="m 122.8957,29.6899 c 25.15,0 45.54625,15.83 45.54625,35.35 0,19.52 -20.39625,35.35 -45.54625,35.35 -25.15,0 -45.54625,-15.83 -45.54625,-35.35 0,-19.52 20.39625,-35.35 45.54625,-35.35"
     style="fill:#ffffff;fill-rule:evenodd" /><path
     style="fill:#0073d1;fill-rule:nonzero"
     d="M 161.8125 116.4375 L 160.46875 118.90625 L 161.3125 118.90625 L 163.40625 116.4375 L 161.8125 116.4375 z M 45.78125 119.65625 C 44.18675 119.65625 42.933287 120.12477 41.96875 121.0625 C 41.0041 122.00025 40.5 123.2185 40.5 124.75 C 40.5 126.28351 40.97535 127.51033 41.9375 128.40625 C 42.89975 129.30223 44.23975 129.75 45.90625 129.75 C 46.359375 129.75 46.998925 129.62416 47.875 129.375 C 48.107475 129.30999 48.287875 129.25155 48.40625 129.21875 L 48.25 127.6875 C 48.122212 127.72461 47.940875 127.789 47.6875 127.875 C 46.96465 128.12417 46.4227 128.25 46.0625 128.25 C 44.986375 128.25 44.126525 127.92595 43.46875 127.28125 C 42.813375 126.63663 42.46875 125.78788 42.46875 124.75 C 42.46875 123.65613 42.80305 122.78355 43.4375 122.125 C 44.074375 121.46646 44.906512 121.15625 45.96875 121.15625 C 46.473 121.15625 47.196625 121.31872 48.09375 121.65625 C 48.15423 121.67745 48.18163 121.70485 48.21875 121.71875 L 48.34375 120.15625 C 48.229763 120.1235 48.063437 120.10095 47.8125 120.03125 C 46.96875 119.78706 46.276237 119.65625 45.78125 119.65625 z M 65.46875 119.65625 C 64.04625 119.65625 62.90735 120.10407 62.09375 121 C 61.277825 121.896 60.875 123.10974 60.875 124.6875 C 60.875 126.26087 61.282525 127.51032 62.09375 128.40625 C 62.907375 129.30222 64.041625 129.75 65.46875 129.75 C 66.898 129.75 67.9989 129.30218 68.8125 128.40625 C 69.628137 127.51024 70.03125 126.26074 70.03125 124.6875 C 70.03125 123.11912 69.632838 121.90094 68.8125 121 C 67.9945 120.09964 66.888875 119.65625 65.46875 119.65625 z M 142.46875 119.65625 C 141.04637 119.65625 139.90733 120.10409 139.09375 121 C 138.27811 121.896 137.875 123.10975 137.875 124.6875 C 137.875 126.28637 138.30464 127.52889 139.125 128.40625 C 139.943 129.2836 141.10188 129.75 142.59375 129.75 C 142.63113 129.75 142.6685 129.72375 142.75 129.71875 C 142.83359 129.71375 142.8934 129.71875 142.9375 129.71875 L 144.5625 131.40625 L 146.78125 131.40625 L 144.59375 129.28125 C 145.4211 128.84825 146.03541 128.25397 146.4375 127.5 C 146.83958 126.74613 147.03125 125.79989 147.03125 124.6875 C 147.03125 123.11912 146.63315 121.90092 145.8125 121 C 144.9945 120.09965 143.88862 119.65625 142.46875 119.65625 z M 187.90625 119.65625 C 186.312 119.65625 185.05813 120.12476 184.09375 121.0625 C 183.12925 122.00025 182.625 123.21851 182.625 124.75 C 182.625 126.28351 183.10038 127.51032 184.0625 128.40625 C 185.02463 129.30222 186.36487 129.75 188.03125 129.75 C 188.4845 129.75 189.12375 129.62416 190 129.375 C 190.23237 129.30999 190.4125 129.25155 190.53125 129.21875 L 190.375 127.6875 C 190.24725 127.72461 190.06575 127.789 189.8125 127.875 C 189.0895 128.12417 188.54775 128.25 188.1875 128.25 C 187.1115 128.25 186.25137 127.92595 185.59375 127.28125 C 184.93837 126.63663 184.59375 125.78788 184.59375 124.75 C 184.59375 123.65613 184.92813 122.78355 185.5625 122.125 C 186.19963 121.46647 187.0315 121.15625 188.09375 121.15625 C 188.59787 121.15625 189.29037 121.31872 190.1875 121.65625 C 190.24795 121.67745 190.30625 121.70485 190.34375 121.71875 L 190.46875 120.15625 C 190.35488 120.1235 190.18837 120.10095 189.9375 120.03125 C 189.09362 119.78706 188.4015 119.65625 187.90625 119.65625 z M 215.3125 119.65625 C 213.718 119.65625 212.43326 120.12476 211.46875 121.0625 C 210.50438 122.00025 210.03125 123.21851 210.03125 124.75 C 210.03125 126.28351 210.50662 127.51032 211.46875 128.40625 C 212.43087 129.30222 213.74 129.75 215.40625 129.75 C 215.8595 129.75 216.53 129.62416 217.40625 129.375 C 217.63862 129.30999 217.81875 129.25155 217.9375 129.21875 L 217.78125 127.6875 C 217.65363 127.72461 217.44075 127.789 217.1875 127.875 C 216.4645 128.12417 215.92275 128.25 215.5625 128.25 C 214.4865 128.25 213.6265 127.92595 212.96875 127.28125 C 212.31337 126.63663 212 125.78788 212 124.75 C 212 123.65613 212.30275 122.78355 212.9375 122.125 C 213.57437 121.46647 214.43787 121.15625 215.5 121.15625 C 216.00413 121.15625 216.69663 121.31872 217.59375 121.65625 C 217.65408 121.67745 217.7125 121.70485 217.75 121.71875 L 217.875 120.15625 C 217.76125 120.1235 217.56338 120.10095 217.3125 120.03125 C 216.4685 119.78706 215.8075 119.65625 215.3125 119.65625 z M 34.0625 119.875 L 30.28125 129.5625 L 32.1875 129.5625 L 33.03125 127.25 L 37.21875 127.25 L 38.03125 129.5625 L 40.09375 129.5625 L 36.34375 119.875 L 34.0625 119.875 z M 48.96875 119.875 L 48.96875 121.34375 L 51.53125 121.34375 L 51.53125 129.5625 L 53.4375 129.5625 L 53.4375 121.34375 L 56.03125 121.34375 L 56.03125 119.875 L 48.96875 119.875 z M 57.21875 119.875 L 57.21875 129.5625 L 59.125 129.5625 L 59.125 119.875 L 57.21875 119.875 z M 71.78125 119.875 L 71.78125 129.5625 L 73.5 129.5625 L 73.5 123.25 C 73.5 123.08713 73.48162 122.81357 73.4375 122.40625 C 73.395738 121.99896 73.32475 121.50533 73.25 120.9375 C 73.345575 121.31919 73.46688 121.65357 73.5625 121.9375 C 73.657475 122.21905 73.7485 122.4527 73.84375 122.625 L 77.5 129.5625 L 79.875 129.5625 L 79.875 119.875 L 78.125 119.875 L 78.125 126.15625 C 78.125 126.42398 78.14813 126.74772 78.1875 127.125 C 78.224875 127.502 78.29587 127.94769 78.375 128.40625 C 78.261162 128.01984 78.140375 127.67274 78.03125 127.375 C 77.919775 127.07458 77.80938 126.81114 77.71875 126.625 L 74.15625 119.875 L 71.78125 119.875 z M 86.0625 119.875 L 86.0625 125.5625 C 86.0625 126.94037 86.387375 127.98243 87.03125 128.6875 C 87.67475 129.39258 88.639375 129.75 89.90625 129.75 C 91.196125 129.75 92.163913 129.39963 92.8125 128.6875 C 93.458438 127.97775 93.78125 126.91725 93.78125 125.5 L 93.78125 119.875 L 92 119.875 L 92 125.46875 C 92 126.39026 91.814925 127.09215 91.46875 127.5625 C 91.124613 128.03225 90.614025 128.28125 89.9375 128.28125 C 89.265988 128.28125 88.782588 128.065 88.46875 127.625 C 88.152538 127.18762 87.96875 126.47135 87.96875 125.53125 L 87.96875 119.875 L 86.0625 119.875 z M 95.03125 119.875 L 95.03125 121.34375 L 97.59375 121.34375 L 97.59375 129.5625 L 99.5 129.5625 L 99.5 121.34375 L 102.09375 121.34375 L 102.09375 119.875 L 95.03125 119.875 z M 103.28125 119.875 L 103.28125 129.5625 L 105.1875 129.5625 L 105.1875 119.875 L 103.28125 119.875 z M 107.375 119.875 L 107.375 129.5625 L 113.15625 129.5625 L 113.15625 128.0625 L 109.28125 128.0625 L 109.28125 119.875 L 107.375 119.875 z M 114.40625 119.875 L 114.40625 129.5625 L 116.3125 129.5625 L 116.3125 119.875 L 114.40625 119.875 z M 117.53125 119.875 L 117.53125 121.34375 L 120.09375 121.34375 L 120.09375 129.5625 L 122 129.5625 L 122 121.34375 L 124.59375 121.34375 L 124.59375 120.125 L 127.9375 125.75 L 127.9375 129.5625 L 129.84375 129.5625 L 129.84375 125.71875 L 133.40625 119.875 L 131.34375 119.875 L 128.96875 124.21875 L 126.625 119.875 L 124.59375 119.875 L 124.4375 119.875 L 117.53125 119.875 z M 148.71875 119.875 L 148.71875 125.5625 C 148.71875 126.94037 149.04364 127.98243 149.6875 128.6875 C 150.33112 129.39258 151.296 129.75 152.5625 129.75 C 153.85262 129.75 154.8202 129.39963 155.46875 128.6875 C 156.11471 127.97775 156.4375 126.91725 156.4375 125.5 L 156.4375 119.875 L 154.625 119.875 L 154.625 125.46875 C 154.625 126.39026 154.47148 127.09215 154.125 127.5625 C 153.7811 128.03225 153.26996 128.28125 152.59375 128.28125 C 151.92225 128.28125 151.4073 128.065 151.09375 127.625 C 150.77753 127.18763 150.625 126.47135 150.625 125.53125 L 150.625 119.875 L 148.71875 119.875 z M 158.59375 119.875 L 158.59375 129.5625 L 164.65625 129.5625 L 164.65625 128.09375 L 160.5 128.09375 L 160.5 125.25 L 164.3125 125.25 L 164.3125 123.8125 L 160.5 123.8125 L 160.5 121.25 L 164.53125 121.25 L 164.53125 119.875 L 158.59375 119.875 z M 166.53125 119.875 L 166.53125 129.5625 L 169.6875 129.5625 C 170.91225 129.5625 171.83667 129.33327 172.46875 128.875 C 173.10322 128.4165 173.40625 127.72114 173.40625 126.84375 C 173.40625 126.22502 173.22797 125.71747 172.875 125.3125 C 172.51937 124.90755 172.01083 124.63489 171.34375 124.5 C 171.91553 124.34419 172.37365 124.09101 172.6875 123.71875 C 173.00135 123.3462 173.15625 122.901 173.15625 122.375 C 173.15625 121.55089 172.85748 120.92352 172.28125 120.5 C 171.70475 120.07413 170.8633 119.875 169.75 119.875 L 166.53125 119.875 z M 175.125 119.875 L 175.125 129.5625 L 181.1875 129.5625 L 181.1875 128.09375 L 177.03125 128.09375 L 177.03125 125.25 L 180.8125 125.25 L 180.8125 123.8125 L 177.03125 123.8125 L 177.03125 121.25 L 181.03125 121.25 L 181.03125 119.875 L 175.125 119.875 z M 196.15625 119.875 L 196.15625 129.5625 L 198.0625 129.5625 L 198.0625 119.875 L 196.15625 119.875 z M 200.21875 119.875 L 200.21875 129.5625 L 201.9375 129.5625 L 201.9375 123.25 C 201.9375 123.08713 201.9188 122.81357 201.875 122.40625 C 201.83287 121.99896 201.79375 121.50533 201.71875 120.9375 C 201.81412 121.31919 201.905 121.65357 202 121.9375 C 202.09537 122.21905 202.18625 122.4527 202.28125 122.625 L 205.9375 129.5625 L 208.3125 129.5625 L 208.3125 119.875 L 206.5625 119.875 L 206.5625 126.15625 C 206.5625 126.42398 206.585 126.74772 206.625 127.125 C 206.662 127.502 206.7338 127.94769 206.8125 128.40625 C 206.69863 128.01984 206.5775 127.67274 206.46875 127.375 C 206.35725 127.07458 206.24625 126.81114 206.15625 126.625 L 202.625 119.875 L 200.21875 119.875 z M 65.46875 121.09375 C 66.261187 121.09375 66.8891 121.40837 67.375 122.0625 C 67.860637 122.71638 68.09375 123.60545 68.09375 124.6875 C 68.09375 125.7745 67.860637 126.62271 67.375 127.28125 C 66.889125 127.93979 66.26115 128.28125 65.46875 128.28125 C 64.673975 128.28125 64.01215 127.96869 63.53125 127.3125 C 63.050012 126.654 62.8125 125.77899 62.8125 124.6875 C 62.8125 123.601 63.047675 122.71633 63.53125 122.0625 C 64.0145 121.41073 64.678713 121.09375 65.46875 121.09375 z M 142.46875 121.09375 C 143.26109 121.09375 143.88934 121.40836 144.375 122.0625 C 144.86092 122.71637 145.09375 123.60545 145.09375 124.6875 C 145.09375 125.7745 144.86092 126.62271 144.375 127.28125 C 143.88937 127.93979 143.26115 128.28125 142.46875 128.28125 C 141.67373 128.28125 141.01245 127.96869 140.53125 127.3125 C 140.05032 126.654 139.8125 125.77899 139.8125 124.6875 C 139.8125 123.601 140.07922 122.71633 140.5625 122.0625 C 141.04613 121.41073 141.67842 121.09375 142.46875 121.09375 z M 168.4375 121.21875 L 169.4375 121.21875 C 170.02552 121.21875 170.47684 121.33662 170.78125 121.5625 C 171.0857 121.79046 171.25 122.1225 171.25 122.5625 C 171.25 122.9928 171.07326 123.33455 170.75 123.5625 C 170.4247 123.78838 169.9688 123.90625 169.34375 123.90625 L 168.4375 123.90625 L 168.4375 121.21875 z M 35.15625 121.46875 L 36.71875 125.84375 L 33.5625 125.84375 L 35.15625 121.46875 z M 168.4375 125.25 L 169.59375 125.25 C 170.21669 125.25 170.67936 125.38055 171 125.625 C 171.32326 125.8671 171.46875 126.22187 171.46875 126.6875 C 171.46875 127.16462 171.31494 127.53002 170.96875 127.78125 C 170.62258 128.03011 170.09988 128.125 169.4375 128.125 L 168.4375 128.125 L 168.4375 125.25 z M 219.5 127.75 L 219.5 129.5625 L 221.3125 129.5625 L 221.3125 127.75 L 219.5 127.75 z M 69.65625 133.90625 C 68.580375 133.90625 67.735275 134.18241 67.09375 134.6875 C 66.449888 135.19263 66.125 135.83248 66.125 136.65625 C 66.125 136.99111 66.165 137.32489 66.28125 137.625 C 66.395375 137.92541 66.58925 138.20041 66.8125 138.4375 C 67.12625 138.77265 67.639437 139.12158 68.40625 139.53125 C 68.497175 139.57775 68.58325 139.63305 68.625 139.65625 C 68.659987 139.67495 68.7095 139.7105 68.78125 139.75 C 69.815712 140.3131 70.34375 140.80855 70.34375 141.28125 C 70.34375 141.64409 70.161987 141.95012 69.84375 142.1875 C 69.523162 142.42718 69.107325 142.5625 68.59375 142.5625 C 68.289312 142.5625 67.961125 142.48925 67.59375 142.375 C 67.224225 142.26104 66.762625 142.07992 66.21875 141.8125 L 66.0625 143.46875 C 66.12045 143.49225 66.198625 143.5251 66.3125 143.5625 C 67.388488 143.89059 68.140475 144.03125 68.59375 144.03125 C 69.702375 144.03125 70.60035 143.75533 71.28125 143.1875 C 71.962488 142.61962 72.3125 141.89593 72.3125 141 C 72.3125 140.38802 72.13245 139.84624 71.78125 139.40625 C 71.428 138.96883 70.77935 138.52248 69.8125 138.03125 C 69.7569 138.00347 69.6625 137.95755 69.5625 137.90625 C 68.528263 137.38494 68.03125 136.92117 68.03125 136.5 C 68.03125 136.15777 68.151875 135.87599 68.4375 135.6875 C 68.723388 135.49908 69.14475 135.40625 69.65625 135.40625 C 70.00715 135.40625 70.363138 135.44965 70.71875 135.53125 C 71.074388 135.61253 71.418875 135.74337 71.78125 135.90625 L 71.9375 134.375 C 71.837787 134.34943 71.677913 134.308 71.46875 134.25 C 70.671663 134.02647 70.074513 133.90625 69.65625 133.90625 z M 137.8125 133.90625 C 136.39 133.90625 135.28204 134.35408 134.46875 135.25 C 133.65281 136.14588 133.25 137.39075 133.25 138.96875 C 133.25 140.54175 133.6575 141.79156 134.46875 142.6875 C 135.28238 143.58347 136.38538 144.03125 137.8125 144.03125 C 139.24175 144.03125 140.37393 143.58341 141.1875 142.6875 C 142.00315 141.79162 142.40625 140.54175 142.40625 138.96875 C 142.40625 137.40013 141.97659 136.1819 141.15625 135.28125 C 140.338 134.38065 139.23263 133.90625 137.8125 133.90625 z M 156.78125 133.90625 C 155.35875 133.90625 154.2508 134.35408 153.4375 135.25 C 152.62155 136.14588 152.21875 137.39075 152.21875 138.96875 C 152.21875 140.56738 152.61715 141.81012 153.4375 142.6875 C 154.2555 143.56484 155.41413 144 156.90625 144 C 156.94332 144 157.01225 144.005 157.09375 144 C 157.17735 143.996 157.23685 144 157.28125 144 L 158.90625 145.65625 L 161.09375 145.65625 L 158.9375 143.5625 C 159.76515 143.1295 160.37946 142.53522 160.78125 141.78125 C 161.18363 141.02725 161.375 140.08115 161.375 138.96875 C 161.375 137.40013 160.97658 136.18188 160.15625 135.28125 C 159.33825 134.38065 158.20137 133.90625 156.78125 133.90625 z M 184.21875 133.90625 C 183.14275 133.90625 182.29775 134.1824 181.65625 134.6875 C 181.01275 135.19262 180.6875 135.83248 180.6875 136.65625 C 180.6875 136.99111 180.75875 137.32489 180.875 137.625 C 180.98925 137.92541 181.152 138.20042 181.375 138.4375 C 181.68888 138.77265 182.23288 139.12158 183 139.53125 C 183.09113 139.57775 183.1462 139.63305 183.1875 139.65625 C 183.2225 139.67495 183.27255 139.7105 183.34375 139.75 C 184.37826 140.3131 184.90625 140.80855 184.90625 141.28125 C 184.90625 141.64409 184.75575 141.95012 184.4375 142.1875 C 184.11687 142.42718 183.70113 142.5625 183.1875 142.5625 C 182.88313 142.5625 182.52338 142.48925 182.15625 142.375 C 181.78651 142.26104 181.32513 142.07992 180.78125 141.8125 L 180.625 143.46875 C 180.68287 143.49225 180.76125 143.5251 180.875 143.5625 C 181.95125 143.8906 182.73425 144.03125 183.1875 144.03125 C 184.29613 144.03125 185.16288 143.75533 185.84375 143.1875 C 186.525 142.61962 186.875 141.89593 186.875 141 C 186.875 140.38802 186.695 139.84625 186.34375 139.40625 C 185.99075 138.96883 185.34175 138.52248 184.375 138.03125 C 184.31938 138.00347 184.225 137.95755 184.125 137.90625 C 183.09075 137.38494 182.59375 136.92118 182.59375 136.5 C 182.59375 136.15778 182.74562 135.87598 183.03125 135.6875 C 183.31712 135.49907 183.70725 135.40625 184.21875 135.40625 C 184.56963 135.40625 184.92563 135.44965 185.28125 135.53125 C 185.63688 135.61253 185.98112 135.74337 186.34375 135.90625 L 186.53125 134.375 C 186.4315 134.34943 186.27162 134.308 186.0625 134.25 C 185.26537 134.02647 184.63725 133.90625 184.21875 133.90625 z M 74.09375 134.125 L 74.09375 143.8125 L 80.15625 143.8125 L 80.15625 142.34375 L 76 142.34375 L 76 139.5 L 79.8125 139.5 L 79.8125 138.09375 L 76 138.09375 L 76 135.53125 L 80 135.53125 L 80 134.125 L 74.09375 134.125 z M 82.03125 134.125 L 82.03125 143.8125 L 83.71875 143.8125 L 83.71875 136.65625 C 83.71425 136.5514 83.70175 136.37182 83.6875 136.125 C 83.67363 135.87614 83.64025 135.4962 83.59375 134.9375 C 83.645 135.21434 83.721 135.46724 83.78125 135.71875 C 83.841837 135.96762 83.90138 136.1992 83.96875 136.40625 L 86.625 143.8125 L 88.3125 143.8125 L 91.03125 136.34375 C 91.070937 136.218 91.12013 136.00594 91.1875 135.75 C 91.254838 135.49643 91.33187 135.23761 91.40625 134.9375 C 91.36437 135.22378 91.33325 135.49027 91.3125 135.78125 C 91.29095 136.07194 91.28125 136.3747 91.28125 136.65625 L 91.28125 143.8125 L 93.09375 143.8125 L 93.09375 134.125 L 90.25 134.125 L 87.8125 140.875 C 87.742757 141.06113 87.698 141.26588 87.65625 141.53125 C 87.61213 141.7966 87.58575 142.11975 87.5625 142.46875 C 87.53688 142.14067 87.48637 141.83463 87.4375 141.5625 C 87.391025 141.29036 87.34625 141.07026 87.28125 140.875 L 84.9375 134.125 L 82.03125 134.125 z M 95.25 134.125 L 95.25 143.8125 L 97.125 143.8125 L 97.125 134.125 L 95.25 134.125 z M 104.03125 134.125 L 104.03125 143.8125 L 105.90625 143.8125 L 105.90625 139.75 L 106.5 139.75 C 106.98093 139.75 107.34755 139.83478 107.59375 140 C 107.83788 140.16523 108.03424 140.45385 108.1875 140.875 L 109.28125 143.8125 L 111.28125 143.8125 L 109.9375 140.4375 C 109.7284 139.91385 109.54472 139.58768 109.375 139.40625 C 109.20293 139.22453 108.9643 139.0907 108.6875 139 C 109.33609 138.86245 109.83895 138.56356 110.1875 138.15625 C 110.53842 137.74889 110.71875 137.24878 110.71875 136.625 C 110.71875 135.7945 110.43408 135.16646 109.84375 134.75 C 109.25313 134.33325 108.36818 134.125 107.1875 134.125 L 104.03125 134.125 z M 112.53125 134.125 L 112.53125 143.8125 L 118.5625 143.8125 L 118.5625 142.34375 L 114.4375 142.34375 L 114.4375 139.5 L 118.21875 139.5 L 118.21875 138.09375 L 114.4375 138.09375 L 114.4375 135.53125 L 118.4375 135.53125 L 118.4375 134.125 L 112.53125 134.125 z M 120.46875 134.125 L 120.46875 143.8125 L 122.15625 143.8125 L 122.15625 136.65625 C 122.15155 136.5514 122.1386 136.37182 122.125 136.125 C 122.1111 135.87614 122.07775 135.4962 122.03125 134.9375 C 122.08249 135.21434 122.1269 135.46724 122.1875 135.71875 C 122.2478 135.96762 122.3076 136.1992 122.375 136.40625 L 125.03125 143.8125 L 126.75 143.8125 L 129.4375 136.34375 C 129.4769 136.218 129.5576 136.00594 129.625 135.75 C 129.69237 135.49643 129.7381 135.23761 129.8125 134.9375 C 129.7704 135.22378 129.73945 135.49027 129.71875 135.78125 C 129.69755 136.07194 129.6875 136.3747 129.6875 136.65625 L 129.6875 143.8125 L 131.53125 143.8125 L 131.53125 134.125 L 128.65625 134.125 L 126.25 140.875 C 126.18025 141.06113 126.1043 141.26588 126.0625 141.53125 C 126.0182 141.7966 125.99205 142.11975 125.96875 142.46875 C 125.9433 142.14067 125.9239 141.83463 125.875 141.5625 C 125.8285 141.29036 125.7527 141.07026 125.6875 140.875 L 123.34375 134.125 L 120.46875 134.125 z M 144.125 134.125 L 144.125 143.8125 L 146 143.8125 L 146 139.75 L 146.625 139.75 C 147.10592 139.75 147.4413 139.83478 147.6875 140 C 147.93164 140.16523 148.15927 140.45385 148.3125 140.875 L 149.375 143.8125 L 151.40625 143.8125 L 150.0625 140.4375 C 149.85336 139.91385 149.66971 139.58768 149.5 139.40625 C 149.32792 139.22453 149.08928 139.0907 148.8125 139 C 149.46106 138.86245 149.96394 138.56356 150.3125 138.15625 C 150.6634 137.74889 150.84375 137.24878 150.84375 136.625 C 150.84375 135.7945 150.5591 135.16646 149.96875 134.75 C 149.37813 134.33325 148.49316 134.125 147.3125 134.125 L 144.125 134.125 z M 163.0625 134.125 L 163.0625 139.84375 C 163.0625 141.22125 163.38768 142.26368 164.03125 142.96875 C 164.67513 143.67384 165.6085 144.03125 166.875 144.03125 C 168.16488 144.03125 169.13268 143.64963 169.78125 142.9375 C 170.42748 142.22737 170.75 141.16725 170.75 139.75 L 170.75 134.125 L 168.96875 134.125 L 168.96875 139.75 C 168.96875 140.6715 168.78371 141.3734 168.4375 141.84375 C 168.0936 142.3138 167.58247 142.53125 166.90625 142.53125 C 166.23448 142.53125 165.75105 142.31471 165.4375 141.875 C 165.12131 141.43737 164.96875 140.75258 164.96875 139.8125 L 164.96875 134.125 L 163.0625 134.125 z M 172.9375 134.125 L 172.9375 143.8125 L 179 143.8125 L 179 142.34375 L 174.84375 142.34375 L 174.84375 139.5 L 178.625 139.5 L 178.625 138.09375 L 174.84375 138.09375 L 174.84375 135.53125 L 178.84375 135.53125 L 178.84375 134.125 L 172.9375 134.125 z M 137.8125 135.34375 C 138.60523 135.34375 139.23282 135.68962 139.71875 136.34375 C 140.20436 136.99762 140.46875 137.85515 140.46875 138.9375 C 140.46875 140.02425 140.20436 140.90395 139.71875 141.5625 C 139.23275 142.22104 138.6052 142.5625 137.8125 142.5625 C 137.01774 142.5625 136.38746 142.2187 135.90625 141.5625 C 135.42505 140.90363 135.1875 140.02899 135.1875 138.9375 C 135.1875 137.85038 135.4227 136.99759 135.90625 136.34375 C 136.3895 135.69196 137.02218 135.34375 137.8125 135.34375 z M 156.78125 135.34375 C 157.574 135.34375 158.23312 135.68962 158.71875 136.34375 C 159.20436 136.99762 159.4375 137.85515 159.4375 138.9375 C 159.4375 140.02425 159.20436 140.90395 158.71875 141.5625 C 158.23312 142.22104 157.57397 142.5625 156.78125 142.5625 C 155.9865 142.5625 155.35621 142.2187 154.875 141.5625 C 154.39407 140.90363 154.15625 140.02899 154.15625 138.9375 C 154.15625 137.85038 154.39172 136.99759 154.875 136.34375 C 155.3585 135.69196 155.99091 135.34375 156.78125 135.34375 z M 105.90625 135.46875 L 106.75 135.46875 C 107.46805 135.46875 107.97775 135.60871 108.3125 135.84375 C 108.64485 136.07641 108.8125 136.4374 108.8125 136.9375 C 108.8125 137.40548 108.64956 137.77738 108.3125 138.03125 C 107.97773 138.28484 107.49299 138.40625 106.875 138.40625 L 105.90625 138.40625 L 105.90625 135.46875 z M 146 135.46875 L 146.84375 135.46875 C 147.56169 135.46875 148.10277 135.60871 148.4375 135.84375 C 148.76989 136.07641 148.9375 136.4374 148.9375 136.9375 C 148.9375 137.40548 148.74333 137.77738 148.40625 138.03125 C 148.0715 138.28484 147.61799 138.40625 147 138.40625 L 146 138.40625 L 146 135.46875 z M 98.78125 139.1875 L 98.78125 140.59375 L 102.375 140.59375 L 102.375 139.1875 L 98.78125 139.1875 z "
     id="path20" /><g
     id="g22"
     transform="matrix(0.72127322,0,0,-0.72220726,67.277975,98.6861)"><g
       id="g24"
       clip-path="url(#clipPath3065)"><g
         id="g26"
         clip-path="url(#clipPath3071)"><path
           inkscape:connector-curvature="0"
           id="path28"
           d="m 155.33,58.987 c -1.442,7.908 -12.64,8.991 -22.356,9.238 -10.032,15.299 -30.585,25.788 -54.314,25.788 -19.671,0 -37.155,-7.215 -48.281,-18.4 L 25.984,73.527 C 22.067,71.671 16.883,68.603 11.512,61.279 L 11.328,61.027 8.675,54.082 c -2.57,-6.69 -6.46,-16.8 -8.477,-22.413 l -0.194,-0.54 0.08,-0.571 c 0.713,-4.893 4.195,-8.188 10.36,-9.784 4.782,-1.239 10.389,-1.321 15.337,-1.391 l 0.203,-0.004 c 1.153,-0.025 2.319,-0.034 3.481,-0.03 C 40.53,7.623 58.446,0 78.664,0 c 14.722,0 28.228,4.035 38.751,10.762 l 5.654,2.016 c 11.251,4.012 15.644,8.07 19.093,13.324 l 0.093,0.142 0.068,0.155 c 2.641,5.711 10.945,25.229 12.94,31.468 l 0.173,0.548 -0.102,0.572"
           style="fill:#ffffff;fill-rule:evenodd" /></g></g></g><path
     style="fill:#f5002f;fill-rule:nonzero"
     d="M 86.75 47.09375 C 83.6585 48.562 80.35125 50.745125 76.9375 55.40625 C 76.0785 57.72875 71.124125 70.463 69 76.375 C 69.935 82.825075 79.179125 82.9025 86.03125 83 C 96.94875 83.287375 108.4265 81.474 119.90625 79.65625 C 133.4575 77.520012 147.035 75.378375 159.65625 76.71875 C 160.9105 76.851625 163.1736 77.011488 164.40625 77.21875 C 164.40625 77.21875 162.54588 82.995 155.46875 87.875 C 162.992 85.193375 166.04413 82.50575 168.40625 78.90625 C 170.43525 74.5125 176.29088 60.659875 177.65625 56.375 C 176.74125 51.328263 167.29388 51.12875 160.4375 51.03125 C 149.52375 50.743875 138.03863 52.557875 126.5625 54.375 C 113.00625 56.516363 99.46625 58.685625 86.84375 57.34375 C 85.5895 57.2087 82.795137 57.019062 81.5625 56.8125 C 81.5625 56.8125 82.739 52.23725 86.75 47.09375 z "
     id="path30" /><path
     style="fill:#0073d1;fill-rule:evenodd"
     d="M 124.125 32.28125 C 123.39507 32.28125 122.68725 32.31637 121.96875 32.34375 C 117.24075 33.0934 112.94312 36.22025 109.65625 40.96875 C 114.36613 41.368138 119.21288 41.59375 124.125 41.59375 C 129.03113 41.59375 133.88513 41.368138 138.59375 40.96875 C 135.30613 36.22025 131.04263 33.0935 126.3125 32.34375 C 125.59268 32.31638 124.84987 32.28125 124.125 32.28125 z M 115.1875 33.03125 C 108.68887 34.124663 102.76862 36.372875 97.78125 39.5 C 100.98587 40.026487 104.26175 40.451225 107.625 40.78125 C 107.6755 40.70325 107.72861 40.641225 107.78125 40.5625 C 109.92925 37.3025 112.44588 34.761 115.1875 33.03125 z M 133.0625 33.03125 C 135.804 34.760874 138.31574 37.302376 140.46875 40.5625 C 140.51775 40.64125 140.57595 40.703262 140.625 40.78125 C 143.9905 40.451199 147.28963 40.026462 150.5 39.5 C 145.50812 36.372874 139.5635 34.124624 133.0625 33.03125 z M 95.59375 40.96875 C 90.29025 44.78275 86.286375 49.64125 84.09375 55.125 C 89.848126 56.007538 95.844877 56.0782 101.96875 55.6875 C 102.83932 50.864625 104.40675 46.369375 106.59375 42.5 C 102.828 42.113613 99.156125 41.606513 95.59375 40.96875 z M 152.65625 40.96875 C 149.0895 41.60645 145.41987 42.11355 141.65625 42.5 C 142.95237 44.795125 144.02825 47.295125 144.875 49.96875 C 150.3055 49.3946 155.68563 49.07955 160.96875 49.25 C 158.78613 46.140875 155.9785 43.35925 152.65625 40.96875 z M 108.5625 42.6875 C 106.398 46.310125 104.77063 50.687 103.84375 55.53125 C 111.28225 54.949888 118.86625 53.7775 126.34375 52.59375 C 131.88525 51.716262 137.4635 50.83025 143.03125 50.1875 C 142.13615 47.45175 141.027 44.916875 139.6875 42.6875 C 134.62625 43.144662 129.415 43.40625 124.125 43.40625 C 118.83162 43.40625 113.624 43.144662 108.5625 42.6875 z M 149.4375 78.15625 C 148.03123 78.183119 146.6395 78.260334 145.21875 78.34375 C 144.3287 81.42175 143.12687 84.305625 141.65625 86.90625 C 145.41987 87.297687 149.0895 87.804825 152.65625 88.4375 C 156.42638 85.72275 159.56313 82.497625 161.84375 78.875 C 157.8185 78.292728 153.65632 78.075644 149.4375 78.15625 z M 143.28125 78.46875 C 135.63437 79.027738 127.82375 80.2525 120.125 81.46875 C 115.72525 82.16495 111.27575 82.85675 106.84375 83.4375 C 107.37027 84.5822 107.94798 85.6925 108.5625 86.71875 C 113.62437 86.257988 118.832 86 124.125 86 C 129.4155 86 134.62687 86.257988 139.6875 86.71875 C 141.14875 84.282 142.35875 81.50125 143.28125 78.46875 z M 105 83.6875 C 100.39113 84.252988 95.786249 84.680325 91.25 84.8125 C 92.582249 86.109625 94.023625 87.310875 95.59375 88.4375 C 99.156126 87.80485 102.828 87.297712 106.59375 86.90625 C 106.01097 85.879275 105.4934 84.7975 105 83.6875 z M 124.125 87.8125 C 119.21237 87.8125 114.3695 88.035237 109.65625 88.4375 C 112.946 93.188875 117.24075 96.3165 121.96875 97.0625 C 122.68714 97.08638 123.395 97.125 124.125 97.125 C 124.84989 97.125 125.59262 97.08638 126.3125 97.0625 C 131.04262 96.31645 135.30325 93.188875 138.59375 88.4375 C 133.88162 88.035237 129.03137 87.8125 124.125 87.8125 z M 107.625 88.625 C 104.26175 88.950713 100.98588 89.377613 97.78125 89.90625 C 102.76888 93.029125 108.689 95.286625 115.1875 96.375 C 112.446 94.649625 109.92925 92.105874 107.78125 88.84375 C 107.72865 88.76575 107.67549 88.704438 107.625 88.625 z M 140.625 88.625 C 140.576 88.70437 140.5178 88.765738 140.46875 88.84375 C 138.31575 92.106 135.80413 94.649625 133.0625 96.375 C 139.56338 95.286625 145.50788 93.029125 150.5 89.90625 C 147.28963 89.3776 143.9905 88.9507 140.625 88.625 z "
     id="path32" /><path
     style="fill:#ffffff;fill-rule:nonzero"
     d="M 165.6875 71.34375 C 164.66978 71.34375 163.84375 72.154737 163.84375 73.1875 C 163.84375 74.236212 164.66978 75.0625 165.6875 75.0625 C 166.70952 75.0625 167.5 74.23615 167.5 73.1875 C 167.5 72.154725 166.70232 71.34375 165.6875 71.34375 z M 165.6875 71.625 C 166.5112 71.625 167.1875 72.307863 167.1875 73.1875 C 167.1875 74.06065 166.51119 74.78625 165.6875 74.78125 C 164.86164 74.78125 164.1875 74.069325 164.1875 73.1875 C 164.1875 72.31655 164.86885 71.625 165.6875 71.625 z M 165.59375 72.15625 C 165.34563 72.15625 165.17599 72.16587 165 72.1875 L 165 74.28125 L 165.34375 74.28125 L 165.34375 73.375 L 165.5625 73.375 C 165.82794 73.375 165.9516 73.485662 166 73.75 C 166.04106 74.02515 166.10575 74.217 166.15625 74.28125 L 166.5 74.28125 C 166.46684 74.216975 166.4226 74.072112 166.375 73.75 C 166.33387 73.443787 166.21589 73.28975 166.03125 73.25 C 166.25557 73.185725 166.4375 73.025162 166.4375 72.75 C 166.4375 72.552825 166.37188 72.405 166.25 72.3125 C 166.12449 72.219375 165.90894 72.15625 165.59375 72.15625 z M 165.5625 72.40625 C 165.93252 72.40625 166.09375 72.602875 166.09375 72.78125 C 166.09375 73.037625 165.83298 73.125 165.5625 73.125 L 165.34375 73.125 L 165.34375 72.4375 C 165.40289 72.42912 165.45288 72.40625 165.5625 72.40625 z "
     id="path34" /><path
     inkscape:connector-curvature="0"
     id="path36"
     d="m 95.9582,61.3524 c -1.728875,0.03037 -4.090375,-0.0075 -5.552375,-0.06425 l -0.31375,-0.01125 -0.04325,0.312712 c -0.451525,3.142251 -1.3935,7.362875 -2.583625,11.580625 -0.197638,0.811763 -0.505613,1.236413 -1.6625,1.346251 -0.40825,0.03537 -1.032863,0.0025 -1.585375,-0.03175 0.0037,0 -0.590725,-0.03612 -0.590725,-0.03612 -0.451513,-0.02388 -0.8439,-0.047 -1.084075,-0.120625 -0.343325,-0.105376 -0.4068,-0.239775 -0.42555,-0.278051 -0.08362,-0.167549 -0.0455,-0.464375 0.128388,-0.935974 1.332249,-3.932376 4.205749,-9.822001 5.053999,-11.535875 l 0.224313,-0.4521 -0.501288,-0.04988 c -1.472875,-0.142287 -3.788875,-0.425374 -5.395125,-0.703425 l -0.293562,-0.05125 -0.09525,0.282387 -3.442625,10.0625 -0.272638,0.782138 c -0.7191,2.046 -1.28675,3.660875 -0.319525,5.361625 0.4919,0.850762 1.221113,1.420624 2.231625,1.729749 1.33,0.310538 2.80425,0.397213 3.511875,0.439088 -0.0025,0 0.044,0.0037 0.044,0.0037 1.061713,0.06937 2.51725,0.164663 3.554375,0.03612 1.4015,-0.174062 2.272,-0.704875 3.1145,-1.27975 1.666125,-1.143975 2.30375,-2.8765 3.2875,-5.838375 l 3.501,-10.5565 -0.490475,0.0075 z m 75.59375,-5.254 c -1.64163,-0.302613 -3.36688,-0.559 -5.12825,-0.744613 l -0.20269,-0.02237 c 0,0 -3.53562,4.790375 -4.34712,5.89175 -0.17817,-1.302875 -0.84749,-6.25075 -0.84749,-6.25075 l -0.29645,-0.01 c -1.7,-0.05562 -3.46788,-0.034 -5.33025,0.01 l -0.43926,0.01125 -0.0274,0.0025 -0.13705,0.0063 c -3.85587,0.100375 -8.053,0.4131 -12.835,0.955463 l -0.22576,0.0275 -1.3365,4.435125 c 0,0 3.16062,-0.327875 3.93525,-0.405875 -0.26254,0.882537 -3.87688,12.98875 -3.87688,12.98875 l 0.51282,-0.04838 c 1.7245,-0.161775 3.4355,-0.288875 5.08862,-0.3871 l 0.24308,-0.01512 c 0,0 3.7045,-12.54625 3.83712,-12.98625 1.18938,-0.06712 2.39313,-0.120625 3.589,-0.153113 l 0.25173,-0.0063 1.11508,-3.8075 c 0.90088,3.426875 1.78088,6.90075 2.6225,10.3275 -0.0505,0.173338 -1.86525,6.45875 -1.86525,6.45875 l 0.44647,0.018 c 1.66687,0.06862 3.3085,0.184163 4.87725,0.345925 l 0.2914,0.02963 c 0,0 1.76137,-6.193 1.806,-6.333 2.84612,-3.33075 5.69812,-6.609625 8.4735,-9.761375 l 0.4068,-0.459325 -0.60154,-0.11625 z m -37.22625,0.81825 -0.0643,0.212325 -5.27687,17.245 5.9505,-0.78215 0.0649,-0.216663 5.217,-17.23375 -0.53302,0.073 -5.35838,0.701975 z m -7.64913,1.13315 -0.54961,0.0845 -1.5125,0.226062 -3.86025,0.577038 -0.0678,0.208 -5.44062,17.285 4.91912,-0.740263 7.11538,-1.054412 0.0649,-0.208725 1.32863,-4.313 c 0,0 -5.11813,0.753975 -6.02838,0.8912 0.3015,-0.966313 4.03125,-12.95625 4.03125,-12.95625 z m -8.2845,1.257375 -5.35249,0.720037 -0.0685,0.210888 -5.54587,17.29625 5.96637,-0.807438 0.0627,-0.208712 5.48601,-17.28375 -0.54817,0.073 z m -8.20299,5.135625 1.36462,-4.245125 -0.53806,0.06425 c -4.795,0.562587 -8.977,0.904187 -12.788753,1.037087 l -0.24235,0.01125 -1.46775,4.438625 0.502,-0.01662 c 1.078301,-0.04038 2.212125,-0.09825 3.364003,-0.173312 -0.27409,0.83775 -4.278628,13.05625 -4.278628,13.05625 l 0.514275,-0.03463 c 1.634375,-0.1105 3.356125,-0.249163 5.118123,-0.426825 l 0.2272,-0.021 c 0,0 4.1005,-12.63125 4.23463,-13.04875 0.40246,-0.0455 3.9215,-0.423938 3.9215,-0.423938 l 0.0685,-0.2181"
     style="fill:#ffffff;fill-rule:nonzero" /><g
     id="g38"
     transform="translate(2447.3939,1053.2839)"
     style="display:none"><path
       inkscape:connector-curvature="0"
       id="path40"
       style="fill:#ffffff"
       d="m 211.89,77.042 c -2.5126,-0.34679 -4.3271,-1.4073 -5.5153,-3.2234 -1.0239,-1.565 -1.469,-3.13 -1.5131,-5.3202 -0.07,-3.479 1.2126,-5.9564 3.7045,-7.1549 1.7676,-0.85016 2.7944,-0.99159 7.7291,-1.0646 l 4.348,-0.0644 -0.0613,-1.5928 c -0.0701,-1.821 -0.2766,-2.4204 -0.99945,-2.9019 -0.85555,-0.56984 -1.1574,-0.59985 -6.5762,-0.65388 l -5.1932,-0.0518 0.0791,-0.60934 c 0.0435,-0.33514 0.19804,-1.8402 0.34352,-3.3447 0.14546,-1.5044 0.29701,-2.9345 0.33678,-3.1779 l 0.0723,-0.44256 5.624,0.0806 c 3.0932,0.0443 6.0929,0.1433 6.666,0.21993 5.0788,0.67899 7.3663,2.5298 8.2888,6.7066 0.28095,1.272 0.28889,1.5491 0.3387,11.821 l 0.051,10.518 h -3.7664 -3.7664 l -0.14277,-0.86163 c -0.0785,-0.47389 -0.16121,-0.88006 -0.18375,-0.90259 -0.0226,-0.0225 -0.46976,0.1633 -0.99385,0.41293 -2.6815,1.2772 -6.392,1.9497 -8.8701,1.6077 l -1.1e-4,1e-4 z m 5.8642,-6.4344 c 0.4715,-0.1 1.3068,-0.37499 1.8561,-0.61123 l 0.99887,-0.42951 v -1.6774 -1.6773 l -2.7028,0.0447 c -2.2921,0.038 -2.7755,0.0809 -3.1812,0.28197 -0.57235,0.28377 -0.88958,0.87983 -0.88856,1.6696 0.003,2.144 1.3189,2.95 3.9175,2.3992 v 4e-5 z m 25.78,6.4339 c -6.54,-0.80098 -10.014,-4.0432 -10.82,-10.098 -0.2197,-1.651 -0.0852,-9.7612 0.18038,-10.873 0.84557,-3.5418 2.5096,-5.83 5.2925,-7.2779 3.7601,-1.9562 9.26,-2.1793 16.256,-0.65921 l 0.68384,0.1486 v 3.6508 3.6509 l -0.42333,-0.0789 c -4.382,-0.81609 -8.5761,-1.0883 -10.426,-0.67668 -1.2702,0.28258 -1.8992,0.73214 -2.316,1.6552 -0.31225,0.6915 -0.31633,0.75219 -0.35603,5.2907 -0.0339,3.8615 -0.008,4.7195 0.16658,5.3982 0.43791,1.7093 1.2719,2.2474 3.7812,2.4395 2.1233,0.16254 6.1484,-0.20756 9.2156,-0.84736 l 0.35821,-0.0747 v 3.6487 c 0,3.3632 -0.0179,3.6538 -0.22795,3.714 -0.50079,0.14354 -2.4059,0.49054 -4.0705,0.74143 -2.006,0.30236 -5.7987,0.43143 -7.2943,0.24825 v 4e-5 z m 25.139,0.002 c -5.6253,-0.68383 -9.0233,-3.2525 -10.335,-7.8125 -0.49396,-1.7173 -0.60608,-3.124 -0.60213,-7.5548 0.005,-5.4694 0.18075,-6.7382 1.2369,-8.9225 1.4329,-2.9635 3.8748,-4.6232 7.8766,-5.3534 1.6977,-0.30977 5.5846,-0.31246 7.26,-0.005 5.5824,1.0244 8.4193,3.9957 9.0072,9.434 0.0797,0.73711 0.14489,2.8326 0.14489,4.6566 v 3.3164 h -8.2905 -8.2905 l 0.0762,1.1751 c 0.12675,1.9564 0.77457,2.9622 2.1874,3.3959 1.466,0.45008 6.8072,0.34477 10.635,-0.20968 1.2731,-0.18443 2.4467,-0.3683 2.6079,-0.40861 l 0.29306,-0.0733 v 3.6525 c 0,3.3652 -0.018,3.658 -0.22792,3.7221 -0.41118,0.1255 -3.1918,0.58965 -4.7869,0.799 -1.8423,0.24182 -7.3766,0.36028 -8.7922,0.18817 l -7e-5,3e-5 z m 5.5764,-18.939 c 0.11611,-1.8326 -0.51003,-3.2419 -1.7037,-3.8349 -0.8474,-0.42093 -2.489,-0.52665 -3.5207,-0.22671 -1.5347,0.44615 -2.1792,1.4357 -2.2792,3.4996 l -0.0616,1.272 3.7624,-0.0347 3.7624,-0.0347 0.0406,-0.64082 -6e-5,2.2e-4 z m 20.996,18.994 c -2.4234,-0.16774 -7.6914,-0.80407 -8.6945,-1.0503 l -0.29308,-0.0719 v -20.213 -20.213 l 4.2007,-0.69012 c 2.3104,-0.37955 4.3326,-0.72068 4.4938,-0.75804 l 0.29306,-0.068 v 7.0631 7.0631 l 0.29308,-0.0857 c 2.6591,-0.77705 5.7634,-1.1033 8.2963,-0.87193 5.458,0.4986 7.7183,2.3983 8.4198,7.0763 0.16606,1.1076 0.19204,2.427 0.14943,7.5928 -0.0589,7.1346 -0.123,7.6844 -1.1445,9.8052 -0.7538,1.565 -2.1783,2.9902 -3.77,3.772 -2.306,1.1325 -4.6922,1.5808 -8.7922,1.6517 -1.5044,0.026 -3.0577,0.025 -3.4518,-0.002 v -1.9e-4 z m 5.8789,-7.6568 c 0.8525,-0.3172 1.5865,-0.99469 1.9505,-1.8004 0.30741,-0.68036 0.31209,-0.75219 0.35157,-5.4174 0.0458,-5.4125 -0.008,-5.8207 -0.86911,-6.6825 -1.1732,-1.1731 -4.0187,-1.201 -6.5629,-0.0643 l -0.74897,0.33463 v 6.8834 c 0,3.7859 0.044,6.9275 0.0977,6.9814 0.0537,0.0538 1.2407,0.0736 2.6377,0.0438 1.9828,-0.0423 2.6724,-0.10343 3.1435,-0.27872 z m 23.624,7.3997 c -2.6671,-0.40932 -4.8239,-1.3604 -6.3792,-2.8128 -1.8779,-1.7537 -2.8315,-3.8486 -3.2034,-7.0366 -0.21393,-1.8342 -0.0852,-9.8972 0.17741,-11.112 0.82772,-3.8286 2.8136,-6.2928 6.1469,-7.6275 3.64,-1.4575 9.7717,-1.4608 13.402,-0.008 2.3022,0.92184 4.0646,2.5151 5.0825,4.5946 1.0903,2.2273 1.3797,4.1654 1.3781,9.2272 -0.002,5.1662 -0.28692,7.093 -1.3874,9.372 -0.5006,1.0366 -0.77208,1.4077 -1.7186,2.3494 -1.7125,1.7038 -3.6976,2.61 -6.69,3.0544 -1.688,0.25064 -5.1702,0.24984 -6.8083,-0.002 v 10e-4 4e-5 z m 5.2102,-7.4213 c 0.79435,-0.21944 1.5382,-0.81321 1.925,-1.5366 0.28203,-0.52739 0.29026,-0.66452 0.3277,-5.455 0.0244,-3.1228 -0.0111,-5.0978 -0.0974,-5.4181 -0.22225,-0.82534 -0.81629,-1.5171 -1.6575,-1.9302 -0.70091,-0.34418 -0.87209,-0.37243 -2.2564,-0.37243 -1.298,0 -1.5893,0.0413 -2.1827,0.30952 -0.7448,0.33665 -1.3359,0.92393 -1.6926,1.6817 -0.20408,0.43349 -0.22767,0.98975 -0.22767,5.3682 0,5.4166 0.0125,5.5129 0.82983,6.4204 1.0192,1.1316 2.9893,1.4967 5.0316,0.9325 h 1e-4 z m 23.967,7.486 c -2.0973,-0.28268 -4.2631,-1.04 -5.6981,-1.9925 -1.178,-0.78193 -2.3638,-2.1578 -3.0351,-3.5216 -1.0988,-2.2325 -1.3616,-4.0198 -1.3616,-9.2597 0,-5.2688 0.26018,-7.0176 1.3856,-9.3132 0.50364,-1.0274 0.79688,-1.4281 1.7272,-2.3602 0.96817,-0.9701 1.3065,-1.2131 2.4882,-1.7872 1.7063,-0.82891 3.4587,-1.2637 5.8574,-1.4533 3.6798,-0.29087 7.5412,0.36037 9.7554,1.6453 2.9698,1.7234 4.5168,4.355 4.9667,8.4492 0.16978,1.5448 0.16729,7.8899 -0.004,9.5567 -0.18775,1.8296 -0.54368,3.1331 -1.2495,4.576 -0.50789,1.0382 -0.78597,1.4163 -1.7272,2.3481 -1.5395,1.5242 -3.1181,2.3212 -5.811,2.9342 -1.094,0.24903 -5.8981,0.36641 -7.2943,0.17822 h 2.1e-4 z m 4.8229,-7.4854 c 0.82262,-0.2259 1.6307,-0.90845 2.032,-1.7164 0.30874,-0.62154 0.3091,-0.62801 0.3091,-5.5068 v -4.8846 l -0.34685,-0.73993 c -0.60446,-1.2894 -1.8515,-1.9303 -3.7562,-1.9303 -1.9047,0 -3.1517,0.64086 -3.7562,1.9303 l -0.34687,0.73993 v 4.6892 c 0,5.2077 0.0423,5.5487 0.79728,6.4308 0.98813,1.1544 3.0194,1.5504 5.0677,0.98785 z m -168.88,-3.5109 0,-10.876 -2.2815,0 -2.2815,0 0.0346,-3.7448 0.0346,-3.7448 2.2333,-0.0357 2.2333,-0.0357 0.0597,-3.5464 c 0.0521,-3.0912 0.0953,-3.6776 0.33701,-4.5679 0.63964,-2.356 1.9346,-4.0427 3.7987,-4.9479 1.9113,-0.9281 3.3522,-1.127 8.1755,-1.1285 l 3.4212,-9.3e-4 -0.0347,3.7448 -0.0346,3.7448 -2.6702,0.0652 c -3.9986,0.0976 -4.0379,0.13816 -4.0379,4.1708 v 2.4722 h 3.3866 c 1.8626,0 3.3866,0.0191 3.3866,0.0422 0,0.0232 -0.17585,1.6944 -0.39076,3.7138 -0.21492,2.0194 -0.39076,3.7002 -0.39076,3.7352 0,0.0351 -1.3481,0.0637 -2.9959,0.0637 h -2.9959 v 10.876 10.876 h -4.4938 -4.4938 v -10.876 l 8e-5,-6e-5 z m 182.88,-9.7482 0,-20.625 4.1356,-0.68511 c 2.2746,-0.3768 4.2965,-0.71587 4.4932,-0.75346 l 0.35758,-0.0683 0.0332,13.189 0.0332,13.189 1.1345,-1.8079 c 0.62397,-0.99437 2.45,-3.8888 4.0579,-6.432 l 2.9234,-4.624 4.8466,-0.0342 c 4.3988,-0.0311 4.8392,-0.0149 4.7666,0.17434 -0.0771,0.2006 -1.5832,2.603 -6.5218,10.402 -1.9422,3.0671 -2.2845,3.6812 -2.1783,3.9076 0.0692,0.14778 2.0892,3.5372 4.4887,7.532 l 4.3627,7.2633 -4.8956,-0.0342 -4.8956,-0.0342 -4.0445,-6.7411 -4.0445,-6.7411 -0.0337,6.7736 -0.0338,6.7736 h -4.4926 -4.4926 v -20.625 l 3e-5,1.7e-4 z" /></g><flowRoot
     id="flowRoot42"
     style="font-size:20px;font-style:normal;font-variant:normal;font-weight:normal;font-stretch:normal;line-height:125%;letter-spacing:0px;word-spacing:0px;fill:#000000;font-family:Utopia"
     xml:space="preserve"
     transform="matrix(0,1.25,1.25,0,-1071.3918,1207.5899)"><flowRegion
       id="flowRegion44"><rect
         id="rect46"
         height="138.32001"
         x="1479.5"
         width="1064.5"
         y="169.60001" /></flowRegion><flowPara
       id="flowPara48" /></flowRoot><rect
     id="rect50"
     x="-0.0043183104"
     y="0.0023908447"
     width="250"
     height="177"
     style="fill:none" /></svg>