<!-- Created with Inkscape (http://www.inkscape.org/) -->
<svg xmlns:rdf="http://www.w3.org/1999/02/22-rdf-syntax-ns#" xmlns="http://www.w3.org/2000/svg" xml:space="preserve" height="177" width="250" version="1.1" xmlns:cc="http://creativecommons.org/ns#" xmlns:dc="http://purl.org/dc/elements/1.1/"><metadata><rdf:RDF><cc:Work rdf:about=""><dc:format>image/svg+xml</dc:format><dc:type rdf:resource="http://purl.org/dc/dcmitype/StillImage"/><dc:title/></cc:Work></rdf:RDF></metadata><defs><clipPath id="clipPath3071" clipPathUnits="userSpaceOnUse"><path d="M0,0,156,0,156,95,0,95,0,0z"/></clipPath><clipPath id="clipPath3065" clipPathUnits="userSpaceOnUse"><path d="m0,94.013,155.43,0,0-93.953h-155.43v93.953z"/></clipPath></defs><g transform="matrix(0,1.25,1.25,0,-1071.3918,1207.5899)"><path style="fill:#ffffff;" d="m769.18,307.25c0,137.37-141.77,248.73-316.66,248.73s-316.66-111.36-316.66-248.73,141.77-248.73,316.66-248.73,316.66,111.36,316.66,248.73z" transform="matrix(0,0.14700375,0.14482973,0,-959.09534,888.5901)"/><path style="fill-rule:evenodd;fill:#ffffff;" d="m-942.32,955.43c0,20.12,12.664,36.437,28.28,36.437s28.28-16.317,28.28-36.437-12.664-36.437-28.28-36.437-28.28,16.317-28.28,36.437"/><path style="fill-rule:nonzero;fill:#0073d1;" d="m-868.89,885.25,3.4854-1.2978,0,2.5455-3.4854-1.2477zm-1.2919-0.89426,0,1.8407,7.7503,2.9916,0-1.6455-1.8338-0.64332,0-3.371,1.8338-0.6712,0-1.5135-7.7503,3.0122zm0.24575,11.435,1.2268-0.0986c-0.0111-0.0297-0.0259-0.0669-0.0429-0.11528-0.27002-0.7177-0.40385-1.2792-0.40385-1.6826,0-0.84979,0.26436-1.5284,0.79119-2.0379,0.52684-0.50756,1.2287-0.7623,2.1038-0.7623,0.8303,0,1.5023,0.26216,2.018,0.78646,0.51576,0.52622,0.77447,1.2179,0.77447,2.0788,0,0.28816-0.10037,0.71952-0.2997,1.2978-0.0688,0.2027-0.11734,0.35519-0.14703,0.45742l1.2268,0.13014c0.0262-0.0947,0.0634-0.23428,0.11545-0.42026,0.19933-0.70086,0.2997-1.2327,0.2997-1.5952,0-1.3332-0.35742-2.3856-1.0742-3.1554-0.71674-0.76972-1.6868-1.1546-2.9136-1.1546-1.2252,0-2.2138,0.38668-2.964,1.1584-0.75019,0.77163-1.1262,1.7942-1.1262,3.0698,0,0.39599,0.0987,0.9315,0.29405,1.6065,0.0558,0.20075,0.0949,0.34578,0.1211,0.43697zm-0.24575,0.50379,0,5.632,1.1953,0,0-2.0638,6.555,0,0-1.5303-6.555,0,0-2.0379-1.1953,0zm0,6.6026,0,1.5246,7.7503,0,0-1.5246-7.7503,0zm0.9811,6.5803c0-0.63203,0.26059-1.1417,0.78201-1.5283,0.52306-0.38686,1.2176-0.58027,2.0868-0.58027,0.87319,0,1.5716,0.19153,2.0984,0.57652,0.52495,0.38472,0.78742,0.89628,0.78742,1.5321,0,0.63392-0.26436,1.1472-0.79119,1.5359-0.52683,0.38851-1.225,0.58193-2.0946,0.58193-0.86564,0-1.56-0.19342-2.0831-0.58193-0.52331-0.38872-0.78578-0.90195-0.78578-1.5359zm-1.1505,0c0,1.1361,0.35931,2.0324,1.0796,2.6868,0.72075,0.65627,1.7075,0.98359,2.9622,0.98359,1.2586,0,2.2454-0.32543,2.9622-0.97794,0.71675-0.65088,1.0742-1.549,1.0742-2.6924,0-1.1417-0.35742-2.0359-1.0742-2.6868-0.71674-0.64898-1.7035-0.97418-2.9622-0.97418-1.2622,0-2.2508,0.3252-2.9676,0.97794-0.71674,0.65088-1.0742,1.545-1.0742,2.683zm0.1694,5.0556,0,1.9168,5.4158,2.843c0.14891,0.0725,0.34423,0.15436,0.58456,0.24354,0.2382,0.0873,0.51387,0.1786,0.823,0.26967-0.36685-0.0633-0.7019-0.10965-1.0035-0.13955-0.30182-0.0315-0.56053-0.0463-0.77471-0.0463h-5.0452v1.3831h7.7503v-1.8888l-5.5424-2.9306c-0.13784-0.0762-0.31832-0.15248-0.54356-0.22846-0.22714-0.0765-0.4915-0.15439-0.79685-0.23085,0.45426,0.0598,0.84327,0.10612,1.1691,0.13953,0.32586,0.0353,0.55488,0.0522,0.68518,0.0522h5.0285v-1.3834h-7.7503zm0,11.442,0,1.5246,4.5427,0c0.75208,0,1.3051,0.12635,1.655,0.37932,0.352,0.25107,0.52707,0.64709,0.52707,1.1843,0,0.54122-0.18826,0.95019-0.56406,1.2255-0.37628,0.27694-0.93469,0.41459-1.6719,0.41459h-4.4887v1.4373h4.4998c1.1338,0,1.9865-0.25858,2.5543-0.77533,0.56971-0.51887,0.85457-1.2923,0.85457-2.3242,0-1.0135-0.28109-1.7778-0.84515-2.2926-0.56406-0.5151-1.3962-0.77348-2.4985-0.77348h-4.565zm0,7.1732,0,5.6319,1.1953,0,0-2.0637,6.555,0,0-1.5302-6.555,0,0-2.038-1.1953,0zm0,6.6026,0,1.5248,7.7503,0,0-1.5248-7.7503,0zm0,3.2576,0,1.5246,6.5664,0,0,3.1052,1.184,0,0-4.6297-7.7503,0zm0,5.6208,0,1.5246,7.7503,0,0-1.5246-7.7503,0zm0,2.5211,0,5.6322,1.1953,0,0-2.0639,6.555,0,0-1.5302-6.555,0,0-2.038-1.1953,0zm0,5.5074,0,1.7552,3.4963,1.8837-3.4963,1.8853,0,1.6493,4.6805-2.832,3.0698,0,0-1.53-3.0496,0-4.7008-2.8115zm7.5383,16.137,1.6849,1.7328,0-1.7646-1.3369-1.2921c0-0.0353,0.002-0.0856,0.006-0.15247,0.004-0.0652,0.006-0.11153,0.006-0.14143,0-1.1935-0.35012-2.1197-1.052-2.7741-0.70189-0.65629-1.6941-0.98359-2.9732-0.98359-1.2622,0-2.2508,0.32543-2.9676,0.97794-0.71673,0.65087-1.0742,1.5453-1.0742,2.6832,0,1.1359,0.35932,2.0321,1.0796,2.6865,0.72074,0.65652,1.7075,0.9836,2.9622,0.9836,0.88991,0,1.6385-0.15978,2.2416-0.48144,0.60318-0.32167,1.0779-0.81252,1.4243-1.4744zm-6.5572-1.7142c0-0.63227,0.26059-1.1417,0.78201-1.5286,0.52306-0.38663,1.2176-0.58005,2.0868-0.58005,0.87319,0,1.5716,0.19154,2.0984,0.57628,0.52495,0.38496,0.78742,0.89628,0.78742,1.5323,0,0.63392-0.26436,1.1471-0.79119,1.5356-0.52683,0.38874-1.225,0.58215-2.0946,0.58215-0.86564,0-1.56-0.19341-2.0831-0.58215-0.52331-0.38852-0.78578-0.90173-0.78578-1.5356zm-0.9811,5.0109,0,1.5246,4.5427,0c0.75208,0,1.3051,0.12635,1.655,0.37932,0.352,0.25084,0.52707,0.6471,0.52707,1.1843,0,0.54097-0.18826,0.95018-0.56406,1.2253-0.37628,0.27719-0.93469,0.41461-1.6719,0.41461h-4.4887v1.4375h4.4998c1.1338,0,1.9865-0.25861,2.5543-0.77538,0.56971-0.51884,0.85457-1.2923,0.85457-2.3244,0-1.0132-0.28109-1.7775-0.84515-2.2924-0.56406-0.51509-1.3962-0.77345-2.4985-0.77345h-4.565zm0,7.9095,0,4.7283,1.1133,0,0-3.2035,2.0553,0,0,3.0362,1.1394,0,0-3.0362,2.2697,0,0,3.3188,1.1726,0,0-4.8436-7.7503,0zm-2.7386,2.5642,0,1.2754,1.9641-1.6676,0-0.6918-1.9641,1.0841zm7.0466,5.286,2.3142,0,0,0.81818c0,0.52991-0.10062,0.93347-0.29971,1.2104-0.20098,0.27695-0.49149,0.41649-0.87318,0.41649-0.37251,0-0.65525-0.12823-0.84893-0.38684-0.19556-0.25651-0.29239-0.63395-0.29239-1.1323v-0.92595zm-3.2171,0,2.1373,0,0,0.72522c0,0.50004-0.0912,0.88126-0.2719,1.1415-0.18236,0.25861-0.44672,0.38874-0.79096,0.38874-0.352,0-0.62014-0.12095-0.8025-0.36451-0.18071-0.24353-0.2719-0.60238-0.2719-1.0728v-0.81818zm-1.0909-1.5041,0,2.5658c0,0.89064,0.16941,1.5655,0.51011,2.0267,0.33881,0.46098,0.83761,0.69158,1.4969,0.69158,0.4208,0,0.78176-0.12448,1.0798-0.37556,0.29781-0.25108,0.50821-0.60428,0.63286-1.0617,0.10791,0.53366,0.32397,0.941,0.64793,1.2255,0.32398,0.28238,0.73372,0.42381,1.2287,0.42381,0.70191,0,1.2363-0.25298,1.6031-0.76055,0.36662-0.50567,0.55087-1.2495,0.55087-2.2293v-2.5063h-7.7503zm0,6.8628,0,4.7283,1.1133,0,0-3.2038,2.0553,0,0,3.0365,1.1394,0,0-3.0365,2.2697,0,0,3.3188,1.1726,0,0-4.8433-7.7503,0zm0.24575,12.279,1.2268-0.098c-0.0111-0.03-0.0259-0.067-0.0429-0.1154-0.27002-0.7177-0.40385-1.2793-0.40385-1.6826,0-0.8498,0.26436-1.5284,0.79119-2.0381,0.52684-0.5075,1.2287-0.7621,2.1038-0.7621,0.8303,0,1.5023,0.2621,2.018,0.7864,0.51576,0.5261,0.77447,1.2179,0.77447,2.0787,0,0.2882-0.10037,0.7196-0.2997,1.298-0.0688,0.2026-0.11734,0.355-0.14703,0.4572l1.2268,0.1303c0.0262-0.095,0.0634-0.2343,0.11545-0.4202,0.19933-0.701,0.2997-1.2328,0.2997-1.5954,0-1.3331-0.35742-2.3856-1.0742-3.1553-0.71674-0.7697-1.6868-1.1547-2.9136-1.1547-1.2252,0-2.2138,0.3869-2.964,1.1585-0.75019,0.7715-1.1262,1.7942-1.1262,3.0696,0,0.3962,0.0987,0.9316,0.29405,1.6067,0.0558,0.2007,0.0949,0.3456,0.1211,0.4367zm-0.24575,4.5406,0,1.5248,7.7503,0,0-1.5248-7.7503,0zm0,3.2576,0,1.9171,5.4158,2.8427c0.14891,0.072,0.34423,0.1544,0.58456,0.2436,0.2382,0.087,0.51387,0.1786,0.823,0.2697-0.36685-0.063-0.7019-0.1097-1.0035-0.1393-0.30182-0.032-0.56053-0.047-0.77471-0.047h-5.0452v1.3834h7.7503v-1.8891l-5.5424-2.9303c-0.13784-0.076-0.31832-0.1525-0.54356-0.2288-0.22714-0.076-0.4915-0.1543-0.79685-0.2306,0.45426,0.06,0.84327,0.1059,1.1691,0.1396,0.32586,0.035,0.55488,0.052,0.68518,0.052h5.0285v-1.3834h-7.7503zm0.24575,14.12,1.2268-0.099c-0.0111-0.03-0.0259-0.067-0.0429-0.1153-0.27002-0.7177-0.40385-1.2794-0.40385-1.6827,0-0.8497,0.26436-1.5283,0.79119-2.0378,0.52684-0.5078,1.2287-0.7624,2.1038-0.7624,0.8303,0,1.5023,0.2621,2.018,0.7864,0.51576,0.5262,0.77447,1.218,0.77447,2.0788,0,0.2882-0.10037,0.7195-0.2997,1.2979-0.0688,0.2026-0.11734,0.3551-0.14703,0.4572l1.2268,0.1304c0.0262-0.095,0.0634-0.2344,0.11545-0.4203,0.19933-0.701,0.2997-1.2328,0.2997-1.5954,0-1.333-0.35742-2.3855-1.0742-3.1552-0.71674-0.7697-1.6868-1.1547-2.9136-1.1547-1.2252,0-2.2138,0.3869-2.964,1.1584-0.75019,0.7716-1.1262,1.7943-1.1262,3.0699,0,0.396,0.0987,0.9313,0.29405,1.6065,0.0558,0.2007,0.0949,0.3459,0.1211,0.4369zm6.0544,1.305,0,1.4486,1.4502,0,0-1.4486-1.4502,0zm5.3152-118.04,1.2177-0.13202c-0.1303-0.2899-0.22902-0.57815-0.29405-0.86266-0.0653-0.28449-0.0987-0.56709-0.0987-0.84781,0-0.4092,0.0764-0.729,0.22714-0.95771,0.15079-0.2285,0.36096-0.3438,0.63474-0.3438,0.33694,0,0.71675,0.41461,1.1338,1.242,0.041,0.08,0.0709,0.1414,0.0931,0.18588,0.39299,0.77348,0.76527,1.2996,1.1152,1.5822,0.352,0.28096,0.77282,0.42214,1.2624,0.42214,0.71675,0,1.3032-0.27131,1.7575-0.8163,0.45426-0.54472,0.6814-1.2605,0.6814-2.1474,0-0.36262-0.1303-0.97441-0.39278-1.8352-0.0299-0.0911-0.0521-0.16001-0.0709-0.20637l-1.3253,0.14118c0.21394,0.4351,0.36662,0.79958,0.45779,1.0952,0.0914,0.2939,0.13596,0.56167,0.13596,0.80522,0,0.41086-0.095,0.74383-0.28675,1.0003-0.1899,0.25459-0.43188,0.38308-0.72215,0.38308-0.37816,0-0.79332-0.41463-1.2438-1.2422-0.0316-0.0574-0.0558-0.10213-0.0707-0.13012-0.0186-0.0334-0.0448-0.0854-0.082-0.15814-0.32774-0.61345-0.62556-1.0448-0.89368-1.2958-0.18967-0.1786-0.40384-0.31414-0.64417-0.40544-0.24009-0.093-0.49527-0.1393-0.76316-0.1393-0.65902,0-1.1896,0.25648-1.5937,0.77157-0.40408,0.51322-0.60506,1.1994-0.60506,2.0601,0,0.33461,0.0893,0.82193,0.26813,1.4596,0.0464,0.16733,0.0818,0.29204,0.10225,0.37181zm-0.20097,1.7199,0,4.7283,1.1133,0,0-3.2035,2.0555,0,0,3.0362,1.1392,0,0-3.0362,2.2694,0,0,3.3188,1.1731,0,0-4.8436-7.7506,0zm0,6.3461,0,2.3204,5.3843,1.8742c0.15621,0.052,0.34259,0.0967,0.5603,0.13388,0.2177,0.0391,0.45804,0.0687,0.7205,0.0892-0.2792,0.0186-0.52684,0.0447-0.73912,0.08-0.21229,0.0334-0.39277,0.0781-0.54168,0.13389l-5.3843,1.9392v2.2872h7.7506v-1.4598h-5.7325c-0.22524,0-0.45426,0.007-0.68681,0.0242-0.23279,0.0166-0.46369,0.0409-0.69271,0.0744,0.24008-0.0595,0.4618-0.11532,0.66466-0.16919,0.20475-0.0539,0.35744-0.0984,0.45804-0.13015l5.9893-2.1679v-1.3629l-5.9297-2.1197c-0.16564-0.0539-0.35013-0.10589-0.54922-0.15436-0.20121-0.0482-0.41162-0.0929-0.63309-0.1339,0.44696,0.0372,0.76904,0.0595,0.96813,0.0706,0.19745,0.0114,0.33882,0.0188,0.4227,0.0224h5.7212v-1.3516h-7.7506zm0,10.563,0,1.5248,7.7506,0,0-1.5248-7.7506,0zm4.0417,2.843,0,2.8651,1.1394,0,0-2.8651-1.1394,0zm-2.9619,5.6877,2.3345,0,0,0.78476c0,0.49439-0.10226,0.87558-0.30513,1.1434-0.2031,0.26965-0.49338,0.40356-0.86776,0.40356-0.40008,0-0.69436-0.13391-0.88049-0.39979-0.18803-0.2678-0.28109-0.68806-0.28109-1.2625v-0.66945zm-1.0798-1.5041,0,2.5343c0,0.94454,0.16563,1.6509,0.49903,2.1234,0.33317,0.47226,0.8322,0.70827,1.4966,0.70827,0.49903,0,0.91041-0.13953,1.2363-0.42026,0.32585-0.27884,0.54167-0.67863,0.65171-1.1975,0.0726,0.22144,0.18236,0.3998,0.32774,0.53746,0.14514,0.13577,0.42623,0.28638,0.84515,0.45366l2.694,1.0728v-1.6065l-2.346-0.87206c-0.33692-0.12261-0.57325-0.28261-0.70543-0.47791-0.13218-0.19696-0.1991-0.48709-0.1991-0.87183v-0.4798h3.2506v-1.5041h-7.7506zm0,6.8033,0,4.7283,1.1133,0,0-3.2038,2.0555,0,0,3.0364,1.1392,0,0-3.0364,2.2694,0,0,3.319,1.1731,0,0-4.8436-7.7506,0zm0,6.3458,0,2.3206,5.3843,1.874c0.15621,0.0522,0.34259,0.0967,0.5603,0.1339,0.2177,0.0391,0.45804,0.069,0.7205,0.0894-0.2792,0.0186-0.52684,0.0444-0.73912,0.0798-0.21229,0.0334-0.39277,0.0781-0.54168,0.13388l-5.3843,1.9394v2.287h7.7506v-1.4596h-5.7325c-0.22524,0-0.45426,0.007-0.68681,0.0242-0.23279,0.0166-0.46369,0.0407-0.69271,0.0744,0.24008-0.0595,0.4618-0.1153,0.66466-0.1692,0.20475-0.0539,0.35744-0.0986,0.45804-0.13012l5.9893-2.1682v-1.3629l-5.9297-2.1197c-0.16564-0.0539-0.35013-0.1059-0.54922-0.15414-0.20121-0.0485-0.41162-0.0929-0.63309-0.13389,0.44696,0.0372,0.76904,0.0595,0.96813,0.0706,0.19745,0.0109,0.33882,0.0186,0.4227,0.0224h5.7212v-1.3519h-7.7506zm0.9811,13.886c0-0.63226,0.26058-1.1417,0.78201-1.5283,0.52307-0.38684,1.2174-0.58027,2.0871-0.58027,0.87319,0,1.5711,0.19155,2.0982,0.57651,0.52496,0.38497,0.78743,0.89629,0.78743,1.5321,0,0.63416-0.26436,1.1471-0.79119,1.5359-0.52684,0.38849-1.225,0.58192-2.0944,0.58192-0.86588,0-1.5602-0.19343-2.0833-0.58192-0.5233-0.38874-0.78577-0.90172-0.78577-1.5359zm-1.1505,0c0,1.1361,0.35932,2.0322,1.0798,2.6868,0.72052,0.65627,1.7073,0.9836,2.9622,0.9836,1.2584,0,2.2452-0.32544,2.9619-0.97796,0.71673-0.65086,1.0742-1.549,1.0742-2.6924,0-1.1417-0.35742-2.0359-1.0742-2.6868-0.71675-0.649-1.7035-0.97441-2.9619-0.97441-1.2624,0-2.2511,0.32541-2.9678,0.97816-0.71674,0.65063-1.0742,1.545-1.0742,2.683zm1.2492,6.5598,2.3345,0,0,0.78476c0,0.49439-0.10226,0.8756-0.30513,1.1434-0.2031,0.26966-0.49338,0.40355-0.86776,0.40355-0.40008,0-0.69436-0.13389-0.88049-0.3998-0.18803-0.26778-0.28109-0.68805-0.28109-1.2624v-0.66946zm-1.0798-1.5041,0,2.5343c0,0.94453,0.16563,1.6509,0.49903,2.1234,0.33317,0.47228,0.8322,0.7083,1.4966,0.7083,0.49903,0,0.91041-0.13954,1.2363-0.42026,0.32585-0.27885,0.54167-0.67865,0.65171-1.1975,0.0726,0.22143,0.18236,0.39979,0.32774,0.53745,0.14514,0.13577,0.42623,0.28638,0.84515,0.45369l2.694,1.0728v-1.6065l-2.346-0.87206c-0.33692-0.12259-0.57325-0.2826-0.70543-0.47791-0.13218-0.19696-0.1991-0.48709-0.1991-0.87183v-0.47979h3.2506v-1.5041h-7.7506zm7.5383,11.84,1.6849,1.733,0-1.7646-1.3366-1.2921c0-0.0355,0.002-0.0856,0.005-0.15248,0.004-0.0652,0.006-0.11178,0.006-0.14143,0-1.1937-0.35013-2.1197-1.052-2.7741-0.7019-0.65628-1.6941-0.98361-2.973-0.98361-1.2624,0-2.2511,0.3252-2.9678,0.97796-0.71674,0.65064-1.0742,1.545-1.0742,2.683,0,1.1361,0.35932,2.0324,1.0798,2.6868,0.7205,0.65627,1.7073,0.9836,2.9622,0.9836,0.88992,0,1.6382-0.15978,2.2414-0.48169,0.60318-0.32143,1.0779-0.81228,1.4243-1.4744zm-6.5572-1.7142c0-0.63227,0.26058-1.1415,0.78201-1.5283,0.52307-0.38663,1.2174-0.58005,2.0871-0.58005,0.87319,0,1.5711,0.19154,2.0982,0.57628,0.52496,0.38497,0.78743,0.8963,0.78743,1.5321,0,0.63417-0.26436,1.1474-0.79119,1.5359-0.52684,0.38849-1.225,0.58192-2.0944,0.58192-0.86588,0-1.5602-0.19343-2.0833-0.58192-0.5233-0.3885-0.78577-0.9017-0.78577-1.5359zm-0.9811,5.0109,0,1.5246,4.5427,0c0.75207,0,1.3051,0.1266,1.6552,0.37955,0.35177,0.25084,0.52684,0.64688,0.52684,1.1843,0,0.54097-0.18802,0.95018-0.56406,1.2253-0.37628,0.27697-0.9347,0.41462-1.6719,0.41462h-4.4887v1.4373h4.5c1.1338,0,1.9862-0.25837,2.5543-0.77535,0.56971-0.51886,0.85433-1.2923,0.85433-2.3242,0-1.0132-0.28108-1.7775-0.84515-2.2926-0.56406-0.51486-1.3965-0.77346-2.4985-0.77346h-4.565zm0,7.9097,0,4.7284,1.1133,0,0-3.2038,2.0555,0,0,3.0365,1.1392,0,0-3.0365,2.2694,0,0,3.3191,1.1731,0,0-4.8436-7.7506,0zm0.20097,10.862,1.2177-0.1318c-0.1303-0.2901-0.22902-0.5784-0.29405-0.8629-0.0653-0.2845-0.0987-0.5671-0.0987-0.8478,0-0.4092,0.0764-0.729,0.22714-0.9577,0.15079-0.2285,0.36096-0.3438,0.63474-0.3438,0.33694,0,0.71675,0.4146,1.1338,1.242,0.041,0.08,0.0709,0.1414,0.0931,0.1859,0.39299,0.7734,0.76527,1.2998,1.1152,1.5822,0.352,0.281,0.77282,0.4221,1.2624,0.4221,0.71675,0,1.3032-0.2713,1.7575-0.8163,0.45426-0.5447,0.6814-1.2605,0.6814-2.1474,0-0.3626-0.1303-0.9742-0.39278-1.8352-0.0299-0.091-0.0521-0.16-0.0709-0.2063l-1.3253,0.1411c0.21394,0.4351,0.36662,0.7996,0.45779,1.0954,0.0914,0.2937,0.13596,0.5615,0.13596,0.805,0,0.4109-0.095,0.7438-0.28675,1.0003-0.1899,0.2546-0.43188,0.3831-0.72215,0.3831-0.37816,0-0.79332-0.4146-1.2438-1.2422-0.0316-0.057-0.0558-0.1021-0.0707-0.1301-0.0186-0.033-0.0448-0.085-0.082-0.1579-0.32774-0.6137-0.62556-1.045-0.89368-1.2961-0.18967-0.1784-0.40384-0.3141-0.64417-0.4055-0.24009-0.093-0.49527-0.1392-0.76316-0.1392-0.65902,0-1.1896,0.2567-1.5937,0.7715-0.40408,0.5132-0.60506,1.1994-0.60506,2.0602,0,0.3348,0.0893,0.8219,0.26813,1.4596,0.0464,0.1673,0.0818,0.292,0.10225,0.3718"/><g transform="matrix(0,0.57701858,-0.57776581,0,-887.12304,910.93582)"><g clip-path="url(#clipPath3065)"><g clip-path="url(#clipPath3071)"><path style="fill-rule:evenodd;fill:#ffffff;" d="m155.33,58.987c-1.442,7.908-12.64,8.991-22.356,9.238-10.032,15.299-30.585,25.788-54.314,25.788-19.671,0-37.155-7.215-48.281-18.4l-4.395-2.086c-3.917-1.856-9.101-4.924-14.472-12.248l-0.184-0.252-2.653-6.945c-2.57-6.69-6.46-16.8-8.477-22.413l-0.194-0.54,0.08-0.571c0.713-4.893,4.195-8.188,10.36-9.784,4.782-1.239,10.389-1.321,15.337-1.391l0.203-0.004c1.153-0.025,2.319-0.034,3.481-0.03,11.065-11.726,28.981-19.349,49.199-19.349,14.722,0,28.228,4.035,38.751,10.762l5.654,2.016c11.251,4.012,15.644,8.07,19.093,13.324l0.093,0.142,0.068,0.155c2.641,5.711,10.945,25.229,12.94,31.468l0.173,0.548-0.102,0.572"/></g></g></g><path style="fill-rule:nonzero;fill:#f5002f;" d="m-902.34,953.05c1.4542-9.1838,2.9102-18.368,2.6803-27.102-0.078-5.4817-0.14734-12.889-5.3074-13.637-4.7296,1.6993-14.91,5.66-16.768,6.3472-3.7289,2.731-5.4859,5.372-6.6605,7.8452,4.1148-3.2088,7.7813-4.1361,7.7813-4.1361,0.16525,0.98611,0.29929,3.2192,0.40733,4.2226,1.0735,10.098-0.64131,20.941-2.3544,31.786-1.4537,9.1809-2.9096,18.367-2.6797,27.098,0.078,5.4851,0.24151,13.044,4.2789,13.776,3.4279-1.0923,14.51-5.7794,18.025-7.4026,2.8796-1.8897,5.0242-4.3294,7.1695-10.348-3.904,5.6617-8.5192,7.1458-8.5192,7.1458-0.16581-0.98612-0.29987-2.8101-0.40617-3.8135-1.0723-10.097,0.64421-20.941,2.3532-31.782"/><path style="fill-rule:evenodd;fill:#0073d1;" d="m-933.63,969.49c0.063,0.0392,0.13,0.0802,0.19239,0.11944-0.26404,2.6924-0.60723,5.3265-1.0284,7.8948-2.5017-3.9935-4.3084-8.7372-5.1831-13.938,1.3837,2.1932,3.4111,4.2013,6.0192,5.9237zm30.225,3.7864c2.4624-0.71204,4.7718-1.6647,6.8523-2.8412,0.31315,3.0109,0.72856,5.9496,1.2347,8.803-2.1718,3.0161-4.7671,5.5192-7.6652,7.3437-0.62109-4.2936-0.68869-8.7586-0.42176-13.305zm8.414-3.7864c2.6098-1.7224,4.6371-3.7304,6.0174-5.9237-0.8707,5.2007-2.6791,9.9443-5.1774,13.938-0.42292-2.5683-0.77074-5.2024-1.0313-7.8948,0.0635-0.0392,0.12884-0.0802,0.19125-0.11944zm0-26.148c-0.0624-0.0421-0.1277-0.0802-0.19125-0.12059,0.26057-2.6906,0.60839-5.3305,1.0313-7.8942,2.4983,3.9901,4.3067,8.7372,5.1774,13.936-1.3803-2.1932-3.4077-4.203-6.0174-5.9214zm-38.639,0c-2.608,1.7184-4.6354,3.7281-6.0192,5.9214,0.87473-5.1989,2.6814-9.9461,5.1831-13.936,0.42119,2.5637,0.76438,5.2036,1.0284,7.8942-0.0624,0.0404-0.12941,0.0785-0.19239,0.12059zm1.716,25.518c0.36573-4.049,0.55755-8.211,0.55755-12.443,0-4.2347-0.19182-8.4008-0.55755-12.45,2.8981-1.7316,6.4016-3.0426,10.277-3.7841-0.46509,5.9508-1.4207,12.019-2.3677,18.001-0.70199,4.4332-1.4063,8.9098-1.9205,13.364-2.1886-0.71608-4.205-1.6156-5.9885-2.6872zm36.58-0.87765c-0.32181-3.7697-0.48416-7.6409-0.48416-11.566,0-3.9301,0.16235-7.7984,0.48416-11.569,3.8011,2.6318,6.3248,6.0477,6.9216,9.8301,0.0191,0.57471,0.0318,1.1546,0.0318,1.7386,0,0.57991-0.0127,1.1598-0.0318,1.7357-0.59684,3.7841-3.1205,7.1977-6.9216,9.8301zm-1.3716-24.016c-0.36861,4.0495-0.55639,8.2156-0.55639,12.45,0,4.2324,0.18778,8.3945,0.55639,12.443-1.9494,1.169-4.1744,2.139-6.6004,2.877,0.44719-6.1175,1.4346-12.363,2.4076-18.522,0.55696-3.5198,1.1162-7.0714,1.5808-10.617,0.91576,0.42122,1.7911,0.87648,2.6121,1.3681zm-2.4191-2.8609c0.45239-3.6871,0.78749-7.368,0.89323-10.997,1.0377,1.0658,2.0118,2.2302,2.9131,3.4863-0.50612,2.8499-0.92153,5.7869-1.2347,8.7995-0.82158-0.46623-1.6836-0.89438-2.5716-1.2891zm-26.962,31.908c-0.45932,4.3444-0.71238,8.6605-0.57602,12.887-2.4873-1.7461-4.729-4.0045-6.6414-6.6623,0.51016-2.8534,0.92384-5.7921,1.233-8.803,1.8361,1.0369,3.8456,1.9007,5.9845,2.5781zm-7.2007-28.163c0.31951,3.7679,0.48417,7.6363,0.48417,11.566,0,3.9249-0.16466,7.7961-0.48417,11.563-3.7988-2.6301-6.3213-6.0437-6.9211-9.8278-0.0219-0.57586-0.0323-1.1558-0.0323-1.7357,0-0.58394,0.0104-1.1638,0.0323-1.7386,0.59972-3.7824,3.1223-7.1983,6.9211-9.8278zm11.756-6.1579c-3.8583,0.69646-7.4445,1.9526-10.54,3.7022-0.30911-3.0126-0.72279-5.9496-1.233-8.7995,3.0512-4.2428,6.939-7.4603,11.326-9.2144,0.70603,4.6035,0.75976,9.4129,0.4472,14.312"/><path style="fill-rule:nonzero;fill:#ffffff;" d="m-907.57,989.38,0,0.1933c0,0.21638-0.0809,0.40334-0.286,0.40334-0.1427,0-0.28946-0.10733-0.28946-0.40334,0-0.0877,0.006-0.14599,0.0127-0.1933h0.56274zm0.91807,0,0-0.2637-1.6599,0c-0.0173,0.14079-0.0393,0.27178-0.0393,0.47028,0,0.25215,0.0526,0.41487,0.1271,0.51528,0.074,0.0975,0.18431,0.15117,0.34205,0.15117,0.22013,0,0.35243-0.14656,0.40385-0.32601h0.0104c0.0318,0.14771,0.1612,0.2458,0.40617,0.2787,0.25769,0.0381,0.35822,0.0785,0.40964,0.10501v-0.27581c-0.0514-0.0404-0.2028-0.0814-0.42292-0.11425-0.21147-0.0387-0.29178-0.14252-0.29178-0.35487v-0.1858h0.7147zm-2.1216,0.27928c0-0.65492,0.56044-1.1869,1.2572-1.1869,0.70546,0,1.2618,0.53201,1.2618,1.1927,0.004,0.65895-0.55638,1.1875-1.2549,1.1875-0.70371,0-1.2642-0.52854-1.2642-1.1875v-0.006zm-0.22937,0.006c0,0.81186,0.66038,1.4576,1.4866,1.4576,0.83892,0,1.493-0.64569,1.493-1.4633,0-0.81418-0.65403-1.4714-1.493-1.4714-0.82621,0-1.4866,0.65722-1.4866,1.4714v0.006"/><path style="fill-rule:nonzero;fill:#ffffff;" d="m-916.99,933.88c0.0243-1.3831-0.006-3.2723-0.0514-4.4419l-0.009-0.251,0.25017-0.0346c2.5138-0.36122,5.8903-1.1148,9.2645-2.0669,0.64941-0.15811,0.98913-0.40449,1.077-1.33,0.0283-0.3266,0.002-0.82629-0.0254-1.2683,0,0.003-0.0289-0.47258-0.0289-0.47258-0.0191-0.36121-0.0376-0.67512-0.0965-0.86726-0.0843-0.27466-0.19182-0.32544-0.22244-0.34044-0.13404-0.0669-0.3715-0.0364-0.74878,0.10271-3.1459,1.0658-7.8576,3.3646-9.2287,4.0432l-0.36168,0.17945-0.0399-0.40103c-0.11383-1.1783-0.3403-3.0311-0.56274-4.3161l-0.041-0.23485,0.22591-0.0762,8.05-2.7541,0.62571-0.21811c1.6368-0.57528,2.9287-1.0294,4.2893-0.25562,0.68061,0.39352,1.1365,0.97689,1.3838,1.7853,0.24843,1.064,0.31777,2.2434,0.35127,2.8095,0-0.002,0.003,0.0352,0.003,0.0352,0.0555,0.84937,0.13173,2.0138,0.0289,2.8435-0.13925,1.1212-0.5639,1.8176-1.0238,2.4916-0.91518,1.3329-2.3012,1.843-4.6707,2.63l-8.4452,2.8008,0.006-0.39238zm-4.2032,60.475c-0.24209-1.3133-0.4472-2.6935-0.59569-4.1026l-0.0179-0.16215s3.8323-2.8285,4.7134-3.4777c-1.0423-0.14253-5.0006-0.67799-5.0006-0.67799l-0.008-0.23716c-0.0445-1.36-0.0272-2.7743,0.008-4.2642l0.009-0.35141,0.002-0.0219,0.005-0.10964c0.0803-3.0847,0.33048-6.4424,0.76437-10.268l0.022-0.18061,3.5481-1.0692s-0.2623,2.5285-0.3247,3.1482c0.70603-0.21003,10.391-3.1015,10.391-3.1015l-0.0387,0.41025c-0.12942,1.3796-0.2311,2.7484-0.30968,4.0709l-0.0121,0.19446s-10.037,2.9636-10.389,3.0697c-0.0537,0.9515-0.0965,1.9145-0.12249,2.8712l-0.005,0.20138-3.046,0.89207c2.7415,0.7207,5.5206,1.4247,8.262,2.098,0.13867-0.0404,5.167-1.4922,5.167-1.4922l0.0144,0.35717c0.0549,1.3335,0.14733,2.6468,0.27674,3.9018l0.0237,0.23312s-4.9544,1.4091-5.0664,1.4448c-2.6646,2.2769-5.2877,4.5585-7.8091,6.7788l-0.36746,0.32544-0.093-0.48123zm0.6546-29.781,0.16986-0.0514,13.796-4.2215-0.62572,4.7604-0.17333,0.0519-13.787,4.1736,0.0584-0.42642,0.56158-4.2867zm0.90652-6.1193,0.0676-0.43969,0.18085-1.21,0.46163-3.0882,0.1664-0.0542,13.828-4.3525-0.59221,3.9353-0.84353,5.6923-0.16698,0.0519-3.4504,1.0629s0.60318-4.0945,0.71296-4.8227c-0.77305,0.2412-10.365,3.225-10.365,3.225zm1.0059-6.6276,0.57603-4.282,0.16871-0.0548,13.837-4.4367-0.64595,4.7731-0.16697,0.0502-13.827,4.3888,0.0584-0.43853zm4.1085-6.5624-3.3961,1.0917,0.0514-0.43045c0.45007-3.836,0.72335-7.1816,0.82967-10.231l0.009-0.19388,3.5509-1.1742-0.0133,0.4016c-0.0323,0.86264-0.0786,1.7697-0.13865,2.6912,0.6702-0.21927,10.445-3.4229,10.445-3.4229l-0.0277,0.41142c-0.0884,1.3075-0.19933,2.6849-0.34146,4.0945l-0.0168,0.18176s-10.105,3.2804-10.439,3.3877c-0.0364,0.32197-0.33915,3.1372-0.33915,3.1372l-0.17448,0.0548"/>
<g style="display:none;" transform="matrix(0,0.8,0.8,0,-123.44483,2815.0286)"><path d="m211.89,77.042c-2.5126-0.34679-4.3271-1.4073-5.5153-3.2234-1.0239-1.565-1.469-3.13-1.5131-5.3202-0.07-3.479,1.2126-5.9564,3.7045-7.1549,1.7676-0.85016,2.7944-0.99159,7.7291-1.0646l4.348-0.0644-0.0613-1.5928c-0.0701-1.821-0.2766-2.4204-0.99945-2.9019-0.85555-0.56984-1.1574-0.59985-6.5762-0.65388l-5.1932-0.0518,0.0791-0.60934c0.0435-0.33514,0.19804-1.8402,0.34352-3.3447,0.14546-1.5044,0.29701-2.9345,0.33678-3.1779l0.0723-0.44256,5.624,0.0806c3.0932,0.0443,6.0929,0.1433,6.666,0.21993,5.0788,0.67899,7.3663,2.5298,8.2888,6.7066,0.28095,1.272,0.28889,1.5491,0.3387,11.821l0.051,10.518h-3.7664-3.7664l-0.14277-0.86163c-0.0785-0.47389-0.16121-0.88006-0.18375-0.90259-0.0226-0.0225-0.46976,0.1633-0.99385,0.41293-2.6815,1.2772-6.392,1.9497-8.8701,1.6077l-0.00011,0.0001zm5.8642-6.4344c0.4715-0.1,1.3068-0.37499,1.8561-0.61123l0.99887-0.42951v-1.6774-1.6773l-2.7028,0.0447c-2.2921,0.038-2.7755,0.0809-3.1812,0.28197-0.57235,0.28377-0.88958,0.87983-0.88856,1.6696,0.003,2.144,1.3189,2.95,3.9175,2.3992v0.00004zm25.78,6.4339c-6.54-0.80098-10.014-4.0432-10.82-10.098-0.2197-1.651-0.0852-9.7612,0.18038-10.873,0.84557-3.5418,2.5096-5.83,5.2925-7.2779,3.7601-1.9562,9.26-2.1793,16.256-0.65921l0.68384,0.1486v3.6508,3.6509l-0.42333-0.0789c-4.382-0.81609-8.5761-1.0883-10.426-0.67668-1.2702,0.28258-1.8992,0.73214-2.316,1.6552-0.31225,0.6915-0.31633,0.75219-0.35603,5.2907-0.0339,3.8615-0.008,4.7195,0.16658,5.3982,0.43791,1.7093,1.2719,2.2474,3.7812,2.4395,2.1233,0.16254,6.1484-0.20756,9.2156-0.84736l0.35821-0.0747v3.6487c0,3.3632-0.0179,3.6538-0.22795,3.714-0.50079,0.14354-2.4059,0.49054-4.0705,0.74143-2.006,0.30236-5.7987,0.43143-7.2943,0.24825v0.00004zm25.139,0.002c-5.6253-0.68383-9.0233-3.2525-10.335-7.8125-0.49396-1.7173-0.60608-3.124-0.60213-7.5548,0.005-5.4694,0.18075-6.7382,1.2369-8.9225,1.4329-2.9635,3.8748-4.6232,7.8766-5.3534,1.6977-0.30977,5.5846-0.31246,7.26-0.005,5.5824,1.0244,8.4193,3.9957,9.0072,9.434,0.0797,0.73711,0.14489,2.8326,0.14489,4.6566v3.3164h-8.2905-8.2905l0.0762,1.1751c0.12675,1.9564,0.77457,2.9622,2.1874,3.3959,1.466,0.45008,6.8072,0.34477,10.635-0.20968,1.2731-0.18443,2.4467-0.3683,2.6079-0.40861l0.29306-0.0733v3.6525c0,3.3652-0.018,3.658-0.22792,3.7221-0.41118,0.1255-3.1918,0.58965-4.7869,0.799-1.8423,0.24182-7.3766,0.36028-8.7922,0.18817l-0.00007,0.00003zm5.5764-18.939c0.11611-1.8326-0.51003-3.2419-1.7037-3.8349-0.8474-0.42093-2.489-0.52665-3.5207-0.22671-1.5347,0.44615-2.1792,1.4357-2.2792,3.4996l-0.0616,1.272,3.7624-0.0347,3.7624-0.0347,0.0406-0.64082-0.00006,0.00022zm20.996,18.994c-2.4234-0.16774-7.6914-0.80407-8.6945-1.0503l-0.29308-0.0719v-20.213-20.213l4.2007-0.69012c2.3104-0.37955,4.3326-0.72068,4.4938-0.75804l0.29306-0.068v7.0631,7.0631l0.29308-0.0857c2.6591-0.77705,5.7634-1.1033,8.2963-0.87193,5.458,0.4986,7.7183,2.3983,8.4198,7.0763,0.16606,1.1076,0.19204,2.427,0.14943,7.5928-0.0589,7.1346-0.123,7.6844-1.1445,9.8052-0.7538,1.565-2.1783,2.9902-3.77,3.772-2.306,1.1325-4.6922,1.5808-8.7922,1.6517-1.5044,0.026-3.0577,0.025-3.4518-0.002v-0.00019zm5.8789-7.6568c0.8525-0.3172,1.5865-0.99469,1.9505-1.8004,0.30741-0.68036,0.31209-0.75219,0.35157-5.4174,0.0458-5.4125-0.008-5.8207-0.86911-6.6825-1.1732-1.1731-4.0187-1.201-6.5629-0.0643l-0.74897,0.33463v6.8834c0,3.7859,0.044,6.9275,0.0977,6.9814,0.0537,0.0538,1.2407,0.0736,2.6377,0.0438,1.9828-0.0423,2.6724-0.10343,3.1435-0.27872zm23.624,7.3997c-2.6671-0.40932-4.8239-1.3604-6.3792-2.8128-1.8779-1.7537-2.8315-3.8486-3.2034-7.0366-0.21393-1.8342-0.0852-9.8972,0.17741-11.112,0.82772-3.8286,2.8136-6.2928,6.1469-7.6275,3.64-1.4575,9.7717-1.4608,13.402-0.008,2.3022,0.92184,4.0646,2.5151,5.0825,4.5946,1.0903,2.2273,1.3797,4.1654,1.3781,9.2272-0.002,5.1662-0.28692,7.093-1.3874,9.372-0.5006,1.0366-0.77208,1.4077-1.7186,2.3494-1.7125,1.7038-3.6976,2.61-6.69,3.0544-1.688,0.25064-5.1702,0.24984-6.8083-0.002v0.001,0.00004zm5.2102-7.4213c0.79435-0.21944,1.5382-0.81321,1.925-1.5366,0.28203-0.52739,0.29026-0.66452,0.3277-5.455,0.0244-3.1228-0.0111-5.0978-0.0974-5.4181-0.22225-0.82534-0.81629-1.5171-1.6575-1.9302-0.70091-0.34418-0.87209-0.37243-2.2564-0.37243-1.298,0-1.5893,0.0413-2.1827,0.30952-0.7448,0.33665-1.3359,0.92393-1.6926,1.6817-0.20408,0.43349-0.22767,0.98975-0.22767,5.3682,0,5.4166,0.0125,5.5129,0.82983,6.4204,1.0192,1.1316,2.9893,1.4967,5.0316,0.9325h0.0001zm23.967,7.486c-2.0973-0.28268-4.2631-1.04-5.6981-1.9925-1.178-0.78193-2.3638-2.1578-3.0351-3.5216-1.0988-2.2325-1.3616-4.0198-1.3616-9.2597,0-5.2688,0.26018-7.0176,1.3856-9.3132,0.50364-1.0274,0.79688-1.4281,1.7272-2.3602,0.96817-0.9701,1.3065-1.2131,2.4882-1.7872,1.7063-0.82891,3.4587-1.2637,5.8574-1.4533,3.6798-0.29087,7.5412,0.36037,9.7554,1.6453,2.9698,1.7234,4.5168,4.355,4.9667,8.4492,0.16978,1.5448,0.16729,7.8899-0.004,9.5567-0.18775,1.8296-0.54368,3.1331-1.2495,4.576-0.50789,1.0382-0.78597,1.4163-1.7272,2.3481-1.5395,1.5242-3.1181,2.3212-5.811,2.9342-1.094,0.24903-5.8981,0.36641-7.2943,0.17822h0.00021zm4.8229-7.4854c0.82262-0.2259,1.6307-0.90845,2.032-1.7164,0.30874-0.62154,0.3091-0.62801,0.3091-5.5068v-4.8846l-0.34685-0.73993c-0.60446-1.2894-1.8515-1.9303-3.7562-1.9303s-3.1517,0.64086-3.7562,1.9303l-0.34687,0.73993v4.6892c0,5.2077,0.0423,5.5487,0.79728,6.4308,0.98813,1.1544,3.0194,1.5504,5.0677,0.98785zm-168.88-3.5109,0-10.876-2.2815,0-2.2815,0,0.0346-3.7448,0.0346-3.7448,2.2333-0.0357,2.2333-0.0357,0.0597-3.5464c0.0521-3.0912,0.0953-3.6776,0.33701-4.5679,0.63964-2.356,1.9346-4.0427,3.7987-4.9479,1.9113-0.9281,3.3522-1.127,8.1755-1.1285l3.4212-0.00093-0.0347,3.7448-0.0346,3.7448-2.6702,0.0652c-3.9986,0.0976-4.0379,0.13816-4.0379,4.1708v2.4722h3.3866c1.8626,0,3.3866,0.0191,3.3866,0.0422,0,0.0232-0.17585,1.6944-0.39076,3.7138-0.21492,2.0194-0.39076,3.7002-0.39076,3.7352,0,0.0351-1.3481,0.0637-2.9959,0.0637h-2.9959v10.876,10.876h-4.4938-4.4938v-10.876l0.00008-0.00006zm182.88-9.7482,0-20.625,4.1356-0.68511c2.2746-0.3768,4.2965-0.71587,4.4932-0.75346l0.35758-0.0683,0.0332,13.189,0.0332,13.189,1.1345-1.8079c0.62397-0.99437,2.45-3.8888,4.0579-6.432l2.9234-4.624,4.8466-0.0342c4.3988-0.0311,4.8392-0.0149,4.7666,0.17434-0.0771,0.2006-1.5832,2.603-6.5218,10.402-1.9422,3.0671-2.2845,3.6812-2.1783,3.9076,0.0692,0.14778,2.0892,3.5372,4.4887,7.532l4.3627,7.2633-4.8956-0.0342-4.8956-0.0342-4.0445-6.7411-4.0445-6.7411-0.0337,6.7736-0.0338,6.7736h-4.4926-4.4926v-20.625l0.00003,0.00017z" style="fill:#ffffff;"/></g>
<flowRoot xml:space="preserve" style="font-size:20px;font-family:Utopia;letter-spacing:0px;font-style:normal;word-spacing:0px;font-stretch:normal;font-variant:normal;font-weight:normal;line-height:125%;fill:#000000;"><flowRegion><rect y="169.6" width="1064.5" x="1479.5" height="138.32"/></flowRegion><flowPara/></flowRoot><rect style="fill:none;" transform="matrix(0,1,1,0,0,0)" height="141.6" width="200" y="-966.07" x="857.11"/>
</g></svg>
