<?xml version="1.0" encoding="UTF-8" standalone="no"?>
<!-- Created with Inkscape (http://www.inkscape.org/) -->

<svg
   xmlns:dc="http://purl.org/dc/elements/1.1/"
   xmlns:cc="http://creativecommons.org/ns#"
   xmlns:rdf="http://www.w3.org/1999/02/22-rdf-syntax-ns#"
   xmlns:svg="http://www.w3.org/2000/svg"
   xmlns="http://www.w3.org/2000/svg"
   xmlns:sodipodi="http://sodipodi.sourceforge.net/DTD/sodipodi-0.dtd"
   xmlns:inkscape="http://www.inkscape.org/namespaces/inkscape"
   width="250"
   height="177"
   id="svg2"
   version="1.1"
   inkscape:version="0.48.2 r9819"
   sodipodi:docname="log25.svg">
  <defs
     id="defs4" />
  <sodipodi:namedview
     id="base"
     pagecolor="#ffffff"
     bordercolor="#666666"
     borderopacity="1.0"
     inkscape:pageopacity="0.0"
     inkscape:pageshadow="2"
     inkscape:zoom="2"
     inkscape:cx="73.230009"
     inkscape:cy="68.823496"
     inkscape:document-units="px"
     inkscape:current-layer="layer1"
     showgrid="false"
     fit-margin-top="0"
     fit-margin-left="0"
     fit-margin-right="0"
     fit-margin-bottom="0"
     inkscape:window-width="1073"
     inkscape:window-height="724"
     inkscape:window-x="0"
     inkscape:window-y="0"
     inkscape:window-maximized="0" />
  <metadata
     id="metadata7">
    <rdf:RDF>
      <cc:Work
         rdf:about="">
        <dc:format>image/svg+xml</dc:format>
        <dc:type
           rdf:resource="http://purl.org/dc/dcmitype/StillImage" />
        <dc:title></dc:title>
      </cc:Work>
    </rdf:RDF>
  </metadata>
  <g
     inkscape:label="Layer 1"
     inkscape:groupmode="layer"
     id="layer1"
     transform="translate(-853.05202,-639.37924)">
    <path
       style="fill:#0073d1;fill-opacity:1"
       d="M 125.625 29.625 C 124.11895 29.633 122.64728 29.95544 121.4375 30.5625 C 119.49787 31.53576 117.71459 32.99863 116.21875 34.875 C 115.29477 36.03407 115.28869 36.03811 115.65625 36.15625 C 115.86279 36.22265 117.14654 36.36064 118.5 36.4375 C 123.48408 36.72056 132.79075 36.60025 135.59375 36.21875 L 136.25 36.125 L 135.65625 35.3125 C 134.28477 33.3999 131.85156 31.31887 130 30.5 C 128.66017 29.90748 127.13107 29.61642 125.625 29.625 z M 132.625 30.28125 C 132.5694 30.31895 132.90111 30.62135 133.375 31 C 134.61523 31.99096 136.10167 33.60559 137 34.90625 C 137.60568 35.78321 137.83571 35.96875 138.1875 35.96875 C 138.61115 35.96875 144.44125 35.21986 144.75 35.125 C 145.27718 34.96303 140.34238 32.48358 137.78125 31.625 C 136.12494 31.06976 133.09754 30.28173 132.65625 30.28125 C 132.64925 30.28124 132.6286 30.27825 132.625 30.28125 z M 118.84375 30.3125 C 118.40984 30.2937 115.70948 30.96125 114 31.53125 C 111.58145 32.33766 106.77095 34.66132 106.75 35.03125 C 106.747 35.07985 107.96251 35.301 109.46875 35.5 C 110.97494 35.69899 112.33775 35.88033 112.46875 35.90625 C 112.59969 35.93225 112.94436 35.96235 113.25 35.96875 C 113.76448 35.97945 113.85869 35.87195 114.59375 34.8125 C 115.55127 33.43238 116.96931 31.92288 118.125 31.03125 C 118.59345 30.66988 118.94039 30.34664 118.90625 30.3125 C 118.89925 30.3055 118.87275 30.3138 118.84375 30.3125 z M 105.25 36.1875 C 104.82188 36.2181 102.57979 38.08524 101.375 39.40625 C 99.59934 41.35324 97.84627 43.95037 96.96875 45.96875 C 96.72094 46.53864 96.72565 46.66963 96.90625 46.78125 C 97.1512 46.93265 98.35574 47.08665 100.46875 47.25 C 102.26806 47.38911 107.10236 47.41255 108.5625 47.28125 L 109.65625 47.1875 L 109.90625 45.90625 C 110.42994 43.31887 111.23646 41.06873 112.875 37.46875 C 112.9243 37.36065 112.31275 37.24963 111.21875 37.125 C 109.50436 36.92972 105.77814 36.3311 105.28125 36.1875 C 105.27225 36.1845 105.2637 36.18682 105.25 36.1875 z M 146.1875 36.21875 C 145.34734 36.40649 141.87921 36.9501 140.34375 37.125 C 139.40507 37.23192 138.65625 37.34908 138.65625 37.40625 C 138.65625 37.46335 138.89429 38.02118 139.1875 38.625 C 139.48075 39.22882 139.97858 40.44202 140.3125 41.34375 L 140.9375 43 L 141.40625 42.90625 C 142.35156 42.74163 146.40003 42.48192 149.4375 42.375 L 152.5 42.25 L 151.78125 41.3125 C 150.07415 39.07313 147.00379 36.26506 146.25 36.21875 C 146.2254 36.21775 146.2067 36.21425 146.1875 36.21875 z M 114.59375 37.5 C 114.38785 37.4687 113.39345 39.39354 112.78125 40.96875 C 112.26244 42.30362 111.30662 45.4874 111.125 46.5 C 111.0271 47.04606 111.04072 47.09383 111.375 47.09375 C 112.83878 47.09342 120.16993 46.07332 128.5 44.71875 C 131.88106 44.16895 136.63668 43.4624 138.78125 43.1875 C 139.1944 43.1346 139.4375 43.03587 139.4375 42.90625 C 139.4375 42.23198 137.22462 37.44614 136.9375 37.5 C 135.89163 37.69618 129.79972 37.93687 125.71875 37.9375 C 121.62955 37.93802 116.00449 37.71478 114.59375 37.5 z M 144.84375 64.15625 C 144.07564 64.15556 143.39213 64.1506 142.875 64.1875 L 141.125 64.3125 L 140.625 65.8125 C 140.0996 67.36532 139.09452 69.79965 138.71875 70.375 C 138.50994 70.69471 138.56292 70.70567 141.25 71.0625 C 142.75477 71.26233 144.43242 71.51223 145 71.625 C 145.56759 71.7378 146.16264 71.83333 146.3125 71.84375 C 146.60969 71.86445 148.9817 69.91006 150 68.8125 C 151.468 67.23032 153.09375 65.09459 153.09375 64.75 C 153.09375 64.46796 148.17203 64.1612 144.84375 64.15625 z M 139.125 64.4375 C 137.3653 64.4767 130.53246 65.39166 123 66.625 C 120.38049 67.05389 117.13466 67.55723 115.78125 67.75 C 114.42781 67.94275 113.31071 68.132 113.28125 68.15625 C 113.25185 68.18045 113.48055 68.71267 113.8125 69.375 L 114.4375 70.59375 L 115.15625 70.5 C 118.64257 70.09357 128.93386 69.97467 133.4375 70.28125 C 134.77607 70.37235 136.15071 70.45072 136.5 70.46875 L 137.15625 70.5 L 137.9375 68.90625 C 138.82667 67.11367 139.73459 64.64086 139.5625 64.46875 C 139.5302 64.43675 139.37639 64.4319 139.125 64.4375 z M 111.625 68.375 C 111.52352 68.375 110.00291 68.5161 108.25 68.6875 C 106.4971 68.85891 104.38629 69.03844 103.53125 69.09375 C 101.71648 69.21115 101.70859 69.11924 103.65625 70.78125 C 104.35475 71.37733 104.91852 71.84375 104.9375 71.84375 C 104.9565 71.84376 106.07179 71.68252 107.40625 71.46875 C 108.74069 71.25497 110.52364 71.00885 111.375 70.90625 C 112.22631 70.80362 112.9375 70.69131 112.9375 70.65625 C 112.9375 70.40018 111.77112 68.375 111.625 68.375 z M 123.34375 71.4375 C 119.45837 71.53939 115.48382 71.79739 115.34375 71.9375 C 115.27195 72.0092 116.71834 73.84087 117.40625 74.5625 C 119.04101 76.2775 121.68994 77.83025 123.65625 78.25 C 124.47027 78.42378 127.53082 78.34489 128.375 78.125 C 129.55156 77.81854 131.22291 76.96714 132.3125 76.125 C 133.37013 75.30759 135.18283 73.44615 135.8125 72.53125 L 136.28125 71.84375 L 135.84375 71.84375 C 135.59945 71.83265 135.23711 71.80455 135.0625 71.78125 C 133.57771 71.58284 128.24341 71.41904 124.71875 71.4375 C 124.21523 71.4405 123.75584 71.4267 123.34375 71.4375 z M 113.8125 72 L 112.84375 72.09375 C 111.10785 72.26728 107.37467 72.81046 107.03125 72.9375 C 106.72415 73.05111 106.77082 73.10931 107.4375 73.5 C 110.26001 75.15411 113.15763 76.3599 116.34375 77.1875 C 117.47886 77.48236 118.54411 77.72017 118.71875 77.71875 C 119.00506 77.71675 119.01407 77.70686 118.65625 77.46875 C 117.75131 76.86654 115.44664 74.4541 114.65625 73.28125 L 113.8125 72 z M 137.78125 72 L 137.0625 73.0625 C 136.31646 74.17338 134.27829 76.36652 133.1875 77.21875 C 132.38247 77.84769 132.5752 77.87419 134.875 77.28125 C 138.17844 76.42949 140.39869 75.52094 143.375 73.875 C 144.55009 73.22513 144.8266 73.03038 144.59375 72.9375 C 144.3174 72.82723 140.58419 72.29791 138.65625 72.09375 L 137.78125 72 z M 148.6875 92.03125 C 148.1348 92.04415 148.0074 92.10877 147.8125 92.40625 C 147.6715 92.62147 147.53125 92.82827 147.53125 92.875 C 147.53125 92.9216 147.81875 92.96875 148.15625 92.96875 C 148.61125 92.96875 148.9138 92.85137 149.3125 92.5 L 149.84375 92.03125 L 148.9375 92.03125 C 148.8405 92.03094 148.7664 92.02925 148.6875 92.03125 z M 69.21875 93.3125 C 67.34224 93.2981 66.25 94.18311 66.25 95.78125 C 66.25 96.89952 66.6184 97.67917 67.34375 98.0625 C 68.17398 98.50125 70.32589 98.50208 71.1875 98.0625 C 71.75177 97.77464 72.28125 97.05982 72.28125 96.625 C 72.28125 96.5312 71.93986 96.46875 71.5 96.46875 C 70.84325 96.46875 70.6502 96.53732 70.25 96.9375 C 69.07441 98.1131 67.45889 96.92138 68 95.28125 C 68.22113 94.61129 68.55474 94.40625 69.34375 94.40625 C 69.89197 94.40625 70.53125 94.8252 70.53125 95.1875 C 70.53125 95.2748 70.92601 95.34375 71.40625 95.34375 C 72.38673 95.34375 72.46555 95.27262 71.96875 94.46875 C 71.5242 93.74944 70.83944 93.42917 69.59375 93.34375 C 69.4616 93.33475 69.34384 93.3135 69.21875 93.3125 z M 83.78125 93.3125 C 82.61089 93.3175 81.63934 93.67884 81.1875 94.28125 C 80.85678 94.72219 80.78125 94.97486 80.78125 95.9375 C 80.78125 96.93116 80.84101 97.12471 81.1875 97.5 C 81.40579 97.73644 81.80055 98.03981 82.0625 98.15625 C 82.7558 98.46438 85.04299 98.44571 85.71875 98.125 C 86.59428 97.70954 86.96875 97.02149 86.96875 95.875 C 86.96875 94.28552 86.10408 93.49008 84.28125 93.34375 C 84.10767 93.32985 83.94842 93.3118 83.78125 93.3125 z M 184.875 93.3125 C 183.4743 93.3607 182.47395 94.00249 182.15625 95.0625 C 181.77845 96.32339 182.25185 97.58625 183.28125 98.09375 C 183.63275 98.26698 184.26215 98.37255 185.15625 98.375 C 186.99305 98.38 187.72745 97.97138 188.09375 96.8125 C 188.20115 96.47357 188.1524 96.46875 187.375 96.46875 C 186.6609 96.46875 186.49765 96.53637 186.09375 96.96875 C 185.68025 97.41133 185.55105 97.45309 184.96875 97.375 C 184.10765 97.2595 183.87305 96.95746 183.78125 96 C 183.71425 95.30424 183.73535 95.17076 184.09375 94.8125 C 184.70135 94.20475 185.68025 94.2313 186.15625 94.875 C 186.47065 95.30023 186.59085 95.34375 187.34375 95.34375 C 187.80755 95.34375 188.1875 95.32845 188.1875 95.28125 C 188.1875 95.23405 188.0452 94.92753 187.875 94.59375 C 187.4964 93.85176 186.68195 93.4041 185.46875 93.3125 C 185.36165 93.3045 185.25955 93.3146 185.15625 93.3125 C 185.05825 93.3105 184.9684 93.3095 184.875 93.3125 z M 135.09375 93.34375 C 134.48095 93.402579 133.90956 93.557852 133.53125 93.8125 C 132.83978 94.27799 132.55075 94.93583 132.5625 95.90625 C 132.5839 97.66614 133.53412 98.42378 135.78125 98.40625 C 137.02403 98.39725 137.17547 98.42163 137.59375 98.78125 L 138.0625 99.15625 L 138.4375 98.8125 L 138.8125 98.46875 L 138.46875 98.125 L 138.15625 97.78125 L 138.46875 97.25 C 139.08967 96.23159 138.8106 94.44706 137.9375 93.875 C 137.40311 93.52482 136.56121 93.35238 135.71875 93.34375 C 135.50814 93.34175 135.29802 93.32414 135.09375 93.34375 z M 166.4375 93.375 C 164.8608 93.382 164.24815 93.64347 163.71875 94.5 C 163.42755 94.97098 163.3839 95.22052 163.4375 96.0625 C 163.5065 97.15268 163.71955 97.55376 164.59375 98.09375 C 164.95675 98.31799 165.40405 98.37452 166.40625 98.375 C 167.97725 98.37551 168.683 98.10005 169.125 97.375 C 169.6125 96.57551 169.54235 96.46875 168.65625 96.46875 C 167.99965 96.46875 167.80645 96.53731 167.40625 96.9375 C 166.24145 98.1023 164.7233 96.99396 165.1875 95.3125 C 165.3681 94.65858 165.70195 94.40625 166.46875 94.40625 C 166.98585 94.40625 167.6875 94.88267 167.6875 95.21875 C 167.6875 95.30275 168.0823 95.34375 168.5625 95.34375 C 169.5424 95.34375 169.6105 95.23379 169.125 94.4375 C 168.6243 93.61645 167.9892 93.36746 166.4375 93.375 z M 62.03125 93.4375 L 61.125 95.5625 C 59.89346 98.43747 59.9773 98.19012 60.5 98.25 C 61.46979 98.36108 61.6346 98.29567 61.78125 97.875 C 61.91523 97.49067 62.02295 97.46438 63 97.4375 C 63.98985 97.4102 64.04334 97.43341 64.1875 97.8125 C 64.30657 98.12571 64.47024 98.20956 64.875 98.21875 C 65.16094 98.22575 65.55353 98.2759 65.75 98.3125 C 65.94647 98.3491 66.09375 98.3407 66.09375 98.3125 C 66.09375 98.2843 65.65603 97.27802 65.125 96.0625 C 64.59397 94.84698 64.13962 93.76538 64.09375 93.65625 C 64.03975 93.52791 63.66525 93.4375 63.03125 93.4375 L 62.03125 93.4375 z M 72.59375 93.4375 L 72.59375 94 L 72.59375 94.5625 L 73.46875 94.5625 L 74.34375 94.5625 L 74.34375 96.4375 L 74.34375 98.28125 L 75.15625 98.28125 L 75.9375 98.28125 L 75.9375 96.4375 L 75.9375 94.5625 L 76.8125 94.5625 C 77.29275 94.5625 77.70905 94.49361 77.71875 94.40625 C 77.82306 93.46755 78.00574 93.54774 75.1875 93.5 L 72.59375 93.4375 z M 78.3125 93.4375 L 78.3125 95.8125 L 78.3125 98.1875 L 79.0625 98.25 C 79.47726 98.2827 79.85318 98.32805 79.875 98.34375 C 79.8969 98.35945 79.90625 97.25967 79.90625 95.90625 L 79.90625 93.4375 L 79.125 93.4375 L 78.3125 93.4375 z M 87.84375 93.4375 L 87.84375 95.84375 L 87.84375 98.21875 L 88.5625 98.21875 L 89.28125 98.21875 L 89.28125 97.21875 C 89.29025 96.67302 89.29575 96.09438 89.28125 95.90625 C 89.22785 95.22819 89.54134 95.40305 90.5625 96.75 L 91.59375 98.125 L 92.5 98.1875 L 93.40625 98.21875 L 93.40625 95.84375 L 93.40625 93.4375 L 92.6875 93.4375 L 91.96875 93.4375 L 91.9375 94.96875 L 91.90625 96.5 L 90.78125 94.96875 L 89.6875 93.4375 L 88.75 93.4375 L 87.84375 93.4375 z M 97.21875 93.4375 L 97.21875 95.375 C 97.21875 96.44164 97.27966 97.41556 97.375 97.59375 C 97.4691 97.76975 97.78558 98.0358 98.0625 98.15625 C 98.35316 98.28268 99.138 98.37141 99.90625 98.375 C 100.99339 98.38 101.33497 98.30705 101.78125 98.03125 C 102.51529 97.57759 102.625 97.22054 102.625 95.1875 L 102.625 93.4375 L 101.8125 93.4375 L 101.03125 93.4375 L 101.03125 95.125 C 101.03125 97.03382 100.83719 97.40625 99.875 97.40625 C 98.87961 97.40625 98.72898 97.183 98.6875 95.34375 C 98.6672 94.44165 98.65795 93.62799 98.65625 93.5625 C 98.65525 93.497 98.33039 93.4375 97.9375 93.4375 L 97.21875 93.4375 z M 103.09375 93.4375 L 103.09375 94 L 103.09375 94.5625 L 103.96875 94.5625 L 104.84375 94.5625 L 104.84375 96.4375 L 104.84375 98.28125 L 105.625 98.28125 L 106.40625 98.28125 L 106.40625 96.4375 L 106.40625 94.5625 L 107.28125 94.5625 C 107.76147 94.5625 108.1778 94.49361 108.1875 94.40625 C 108.29181 93.46755 108.47448 93.54774 105.65625 93.5 L 103.09375 93.4375 z M 108.8125 93.4375 L 108.8125 95.8125 L 108.8125 98.1875 L 109.5625 98.25 C 109.97723 98.2827 110.32189 98.32805 110.34375 98.34375 C 110.36555 98.35945 110.375 97.25967 110.375 95.90625 L 110.375 93.4375 L 109.59375 93.4375 L 108.8125 93.4375 z M 111.5 93.4375 L 111.5 95.84375 L 111.5 98.21875 L 113.71875 98.21875 L 115.9375 98.21875 L 115.9375 97.75 L 115.9375 97.28125 L 114.46875 97.21875 L 113 97.1875 L 112.96875 95.3125 L 112.90625 93.4375 L 112.21875 93.4375 L 111.5 93.4375 z M 116.75 93.4375 L 116.71875 95.34375 C 116.71075 96.39155 116.71875 97.43796 116.71875 97.65625 C 116.71875 97.87454 116.70985 98.08133 116.71875 98.125 C 116.72675 98.1687 117.04894 98.21875 117.4375 98.21875 L 118.15625 98.21875 L 118.21875 95.84375 L 118.25 93.4375 L 117.5 93.4375 L 116.75 93.4375 z M 118.8125 93.4375 L 118.8125 94 L 118.8125 94.5625 L 119.6875 94.5625 L 120.5625 94.5625 L 120.5625 96.4375 L 120.5625 98.28125 L 121.34375 98.25 L 122.125 98.1875 L 122.125 96.375 L 122.125 94.5625 L 123.0625 94.5625 C 123.98336 94.5625 123.9858 94.57247 123.90625 94.15625 C 123.78205 93.50659 124.07654 93.78845 125.0625 95.34375 C 125.81217 96.52632 125.9375 96.86891 125.9375 97.46875 L 125.9375 98.1875 L 126.75 98.25 L 127.53125 98.28125 L 127.53125 97.59375 C 127.53125 96.97971 127.707 96.62315 128.65625 95.15625 L 129.75 93.4375 L 128.8125 93.4375 L 127.90625 93.4375 L 127.34375 94.5 L 126.78125 95.5625 L 126.25 94.5625 L 125.71875 93.53125 L 122.25 93.5 L 118.8125 93.4375 z M 139.59375 93.4375 L 139.59375 95.40625 C 139.59875 97.50596 139.69092 97.70309 140.5 98.125 C 141.12419 98.45055 143.4366 98.44866 144.0625 98.125 C 144.905 97.6893 145 97.36172 145 95.3125 L 145 93.4375 L 144.21875 93.4375 L 143.40625 93.4375 L 143.40625 95.125 C 143.40625 96.61076 143.36215 96.82556 143.0625 97.125 C 142.79334 97.39407 142.60589 97.44369 142.09375 97.375 C 141.74186 97.3278 141.41711 97.17826 141.34375 97.0625 C 141.27035 96.94674 141.18907 96.09491 141.1875 95.15625 L 141.1875 93.4375 L 140.40625 93.4375 L 139.59375 93.4375 z M 145.9375 93.4375 L 145.9375 95.875 L 145.9375 98.28125 L 148.40625 98.25 L 150.875 98.1875 L 150.875 97.71875 L 150.875 97.25 L 149.1875 97.25 L 147.53125 97.25 L 147.5625 96.8125 L 147.625 96.375 L 149.0625 96.375 L 150.46875 96.375 L 150.53125 95.875 L 150.5625 95.34375 L 149.0625 95.34375 C 147.5671 95.34375 147.53125 95.3428 147.53125 94.96875 C 147.53125 94.46715 147.78875 94.40625 149.46875 94.40625 L 150.875 94.40625 L 150.875 93.9375 L 150.875 93.4375 L 148.40625 93.4375 L 145.9375 93.4375 z M 151.5 93.4375 L 151.5 95.875 L 151.5 98.28125 L 153.875 98.25 C 155.7835 98.2232 156.33285 98.18062 156.65625 97.96875 C 157.33735 97.52234 157.3885 96.42158 156.75 95.875 C 156.4908 95.653 156.4927 95.60073 156.6875 95.40625 C 157.072 95.02192 156.9747 94.15459 156.5 93.78125 C 156.1209 93.48304 155.84805 93.4375 153.78125 93.4375 L 151.5 93.4375 z M 158.03125 93.4375 L 158.03125 95.875 L 158.03125 98.28125 L 160.46875 98.25 L 162.9375 98.1875 L 162.9375 97.71875 L 162.9375 97.25 L 161.25 97.25 L 159.59375 97.25 L 159.625 96.8125 L 159.6875 96.375 L 161.125 96.34375 L 162.59375 96.3125 L 162.65625 95.8125 L 162.71875 95.34375 L 161.15625 95.34375 L 159.59375 95.34375 L 159.625 94.90625 L 159.6875 94.46875 L 161.3125 94.4375 L 162.9375 94.40625 L 162.9375 93.9375 L 162.9375 93.4375 L 160.46875 93.4375 L 158.03125 93.4375 z M 172.9375 93.4375 L 172.9375 95.8125 L 172.9375 98.1875 L 173.6875 98.25 C 174.1022 98.2827 174.4782 98.32805 174.5 98.34375 C 174.522 98.35945 174.53125 97.25967 174.53125 95.90625 L 174.53125 93.4375 L 173.75 93.4375 L 172.9375 93.4375 z M 175.5625 93.4375 L 175.625 95.8125 L 175.65625 98.1875 L 176.3125 98.25 L 177 98.28125 L 177.03125 96.8125 C 177.05625 96.00481 177.1248 95.37281 177.1875 95.375 C 177.2495 95.377 177.77605 96.00151 178.34375 96.78125 L 179.375 98.21875 L 180.28125 98.21875 L 181.1875 98.21875 L 181.21875 96 C 181.24475 94.77613 181.25275 93.71091 181.21875 93.625 C 181.18975 93.5392 180.85135 93.4375 180.46875 93.4375 L 179.78125 93.4375 L 179.71875 95 L 179.6875 96.5625 L 178.5625 95 L 177.46875 93.46875 L 176.5 93.46875 L 175.5625 93.4375 z M 83.84375 94.375 C 84.60397 94.366 85.3125 94.93305 85.3125 95.8125 C 85.31248 96.66346 85.18452 96.91432 84.65625 97.1875 C 84.15633 97.44602 83.64637 97.46013 83.125 97.25 C 82.29608 96.91603 82.12952 95.39559 82.84375 94.78125 C 83.15579 94.51282 83.49821 94.37947 83.84375 94.375 z M 135.6875 94.40625 C 136.60022 94.40625 137.125 94.9488 137.125 95.84375 C 137.125 96.59088 137.01938 96.69656 136.59375 96.46875 C 136.31938 96.32193 136.24798 96.35681 136.03125 96.6875 C 135.88982 96.90344 135.81865 97.15883 135.875 97.25 C 136.01694 97.47967 135.49973 97.44581 134.90625 97.1875 C 134.62717 97.06603 134.36924 96.80581 134.3125 96.59375 C 133.9558 95.26127 134.50193 94.40625 135.6875 94.40625 z M 153.96875 94.4375 C 154.08065 94.4305 154.18025 94.4345 154.28125 94.4375 C 154.98765 94.4631 155.42355 94.7229 155.28125 95.09375 C 155.20225 95.29952 154.9506 95.34375 154.125 95.34375 L 153.0625 95.34375 L 153.125 94.90625 C 153.171 94.5023 153.23425 94.48059 153.96875 94.4375 z M 62.96875 94.65625 L 63.25 95.28125 C 63.40115 95.63051 63.56433 96.05008 63.59375 96.21875 C 63.63735 96.46875 63.51662 96.54382 63.03125 96.59375 C 62.33643 96.66515 62.32757 96.58373 62.71875 95.4375 L 62.96875 94.65625 z M 153.09375 96.3125 L 154.25 96.34375 C 155.3594 96.38875 155.40625 96.39859 155.40625 96.78125 C 155.40625 97.16382 155.36 97.17379 154.25 97.21875 L 153.09375 97.28125 L 153.09375 96.78125 L 153.09375 96.3125 z M 188.96875 96.9375 L 188.96875 97.625 L 188.96875 98.28125 L 189.6875 98.28125 L 190.40625 98.28125 L 190.40625 97.625 L 190.40625 96.9375 L 189.6875 96.9375 L 188.96875 96.9375 z M 164.0625 101.53125 C 163.5455 101.54305 163.0423 101.64546 162.625 101.8125 C 161.8899 102.10656 161.65625 102.41932 161.65625 103.1875 C 161.65625 104.00261 162.09505 104.27828 163.78125 104.5625 C 165.16795 104.79621 165.25 104.81074 165.25 105.1875 C 165.2499 105.54009 165.1543 105.61326 164.5625 105.65625 C 164.0586 105.69285 163.84065 105.62181 163.59375 105.375 C 163.34375 105.12495 163.0443 105.03125 162.375 105.03125 C 161.35 105.03125 161.2561 105.23741 161.9375 106 C 162.2887 106.39305 162.5541 106.50497 163.25 106.59375 C 165.1715 106.83883 166.95515 106.39484 167.15625 105.59375 C 167.31155 104.97479 167.1567 104.35814 166.75 104.0625 C 166.5316 103.9033 165.7203 103.66575 164.9375 103.53125 C 163.3796 103.26353 163.09235 103.12821 163.40625 102.75 C 163.70545 102.38964 164.74195 102.42392 165.09375 102.8125 C 165.31285 103.05457 165.57175 103.125 166.21875 103.125 C 167.18725 103.125 167.29 102.96265 166.6875 102.3125 C 166.2548 101.84565 165.26935 101.5474 164.28125 101.53125 C 164.20725 101.53056 164.1363 101.53025 164.0625 101.53125 z M 86.375 101.5625 C 85.8591 101.5585 85.40175 101.58578 85.09375 101.6875 C 84.4042 101.91506 83.98059 102.47381 84 103.15625 C 84.0231 103.96488 84.47488 104.28439 86.125 104.5625 C 87.52568 104.79859 87.59375 104.81047 87.59375 105.1875 C 87.59375 105.54784 87.55375 105.61257 86.875 105.65625 C 86.26196 105.69575 86.0732 105.64231 85.90625 105.375 C 85.73922 105.10753 85.53155 105.03125 84.78125 105.03125 C 83.79238 105.03125 83.68736 105.1877 84.125 105.8125 C 84.46597 106.29931 84.90371 106.50918 85.84375 106.625 C 87.63105 106.8452 89.33639 106.37005 89.53125 105.59375 C 89.68575 104.97808 89.53581 104.36779 89.125 104.0625 C 88.88863 103.88686 88.10615 103.66479 87.28125 103.53125 C 85.70652 103.27634 85.36474 103.0723 85.84375 102.71875 C 86.28194 102.39534 87.00354 102.44104 87.375 102.8125 C 87.61551 103.05305 87.90098 103.125 88.5625 103.125 C 89.04272 103.125 89.4375 103.102 89.4375 103.0625 C 89.43747 102.75755 89.00373 102.17968 88.59375 101.9375 C 88.20164 101.70588 87.23481 101.57043 86.375 101.5625 z M 145.65625 101.5625 C 144.32753 101.5931 143.52398 102.04871 143.09375 102.9375 C 142.82411 103.4945 142.77074 103.82126 142.84375 104.4375 C 143.03525 106.05397 143.91797 106.65272 146.125 106.65625 C 147.32754 106.65825 147.5244 106.69354 147.9375 107.03125 C 148.195 107.24165 148.4177 107.40312 148.4375 107.40625 C 148.4575 107.40925 148.6055 107.25178 148.75 107.03125 C 148.9921 106.66163 148.9818 106.60553 148.75 106.34375 C 148.5123 106.08124 148.54295 106.01517 148.84375 105.4375 C 149.08895 104.96741 149.13725 104.59986 149.09375 103.9375 C 148.99095 102.37785 148.19054 101.70428 146.28125 101.59375 C 146.07088 101.58155 145.87729 101.5587 145.6875 101.5625 L 145.65625 101.5625 z M 132.6875 101.625 C 131.89572 101.62469 131.11977 101.69929 130.78125 101.90625 C 129.9217 102.4318 129.6875 102.95093 129.6875 104.125 C 129.68747 105.34283 129.97208 105.88331 130.875 106.34375 C 131.67702 106.75268 133.73606 106.74287 134.625 106.3125 C 135.4571 105.9097 135.78807 105.40444 135.90625 104.40625 C 136.03121 103.35137 135.54089 102.31512 134.71875 101.90625 C 134.30197 101.69894 133.4792 101.62529 132.6875 101.625 z M 95.15625 101.6875 L 92.75 101.75 L 90.34375 101.78125 L 90.3125 104.125 L 90.3125 106.46875 L 92.625 106.5 C 93.89109 106.5241 94.96577 106.527 95.03125 106.5 C 95.09665 106.4729 95.15625 106.25681 95.15625 106 L 95.15625 105.53125 L 93.46875 105.53125 L 91.78125 105.53125 L 91.84375 105.09375 L 91.90625 104.65625 L 93.4375 104.59375 L 95 104.5625 L 95 104.09375 L 95 103.625 L 93.40625 103.625 L 91.78125 103.625 L 91.84375 103.1875 L 91.90625 102.75 L 93.53125 102.6875 L 95.15625 102.65625 L 95.15625 102.1875 L 95.15625 101.6875 z M 149.90625 101.6875 L 149.90625 102.84375 C 149.85825 105.55618 149.8966 105.7845 150.5 106.21875 C 150.7268 106.38213 151.26895 106.56803 151.71875 106.625 C 152.76115 106.75701 154.1163 106.58335 154.625 106.25 C 155.2033 105.8711 155.3125 105.37054 155.3125 103.4375 L 155.3125 101.71875 L 154.53125 101.71875 L 153.71875 101.71875 L 153.71875 103.375 C 153.71875 104.85989 153.70355 105.07624 153.40625 105.375 C 153.14305 105.63807 152.9443 105.6971 152.5 105.625 C 151.5553 105.47168 151.44065 105.22977 151.40625 103.40625 L 151.375 101.78125 L 150.65625 101.75 L 149.9375 101.6875 L 149.90625 101.6875 z M 95.9375 101.71875 L 95.9375 104.09375 L 95.9375 106.46875 L 96.65625 106.46875 L 97.375 106.46875 L 97.375 104.78125 C 97.37495 103.8286 97.42386 103.13416 97.5 103.21875 C 97.5747 103.30165 97.86876 104.05881 98.15625 104.90625 C 98.49262 105.89787 98.77378 106.46548 98.9375 106.5 C 99.0774 106.5296 99.40426 106.51765 99.65625 106.46875 C 100.076 106.38715 100.16171 106.2546 100.6875 104.75 L 101.25 103.09375 L 101.3125 104.78125 L 101.34375 106.4375 L 101.78125 106.5 C 102.01852 106.532 102.36602 106.528 102.5625 106.5 C 102.91462 106.4488 102.9375 106.43067 102.9375 104.09375 L 102.9375 101.71875 L 101.71875 101.71875 C 100.62348 101.71875 100.52305 101.735 100.40625 102.0625 C 100.33615 102.25897 100.09274 102.99222 99.84375 103.6875 L 99.375 104.9375 L 98.84375 103.34375 L 98.3125 101.71875 L 97.125 101.71875 L 95.9375 101.71875 z M 103.875 101.71875 L 103.875 104.09375 C 103.875 105.62306 103.95374 106.46371 104.0625 106.5 C 104.1553 106.5309 104.49989 106.5328 104.84375 106.5 L 105.46875 106.4375 L 105.46875 104.0625 L 105.46875 101.71875 L 104.6875 101.71875 L 103.875 101.71875 z M 109.90625 101.71875 L 109.90625 104.09375 L 109.90625 106.46875 L 110.71875 106.46875 L 111.5 106.46875 L 111.5 105.6875 L 111.5 104.875 L 112.46875 104.875 C 113.34939 104.875 113.41996 104.90637 113.5625 105.28125 C 113.6477 105.50523 113.71875 105.85716 113.71875 106.0625 C 113.71871 106.26783 113.78579 106.47026 113.875 106.5 C 113.9642 106.5298 114.36014 106.563 114.75 106.5625 C 115.30407 106.56181 115.45951 106.49871 115.40625 106.3125 C 115.36885 106.18154 115.27688 105.7557 115.21875 105.34375 C 115.16065 104.93181 115.0296 104.50865 114.90625 104.40625 C 114.71646 104.24877 114.72856 104.1589 115 103.96875 C 115.24517 103.79702 115.3125 103.57329 115.3125 103 C 115.3125 101.84861 114.96517 101.71875 112.15625 101.71875 L 109.90625 101.71875 z M 116.25 101.71875 L 116.25 104.09375 L 116.25 106.46875 L 118.59375 106.5 C 119.88164 106.5267 120.97815 106.57445 121 106.59375 C 121.0218 106.61305 121.03125 106.36811 121.03125 106.0625 L 121.03125 105.53125 L 119.4375 105.53125 L 117.84375 105.53125 L 117.84375 105.03125 L 117.84375 104.5625 L 119.375 104.5625 L 120.875 104.5625 L 120.875 104.09375 L 120.875 103.625 L 119.375 103.625 L 117.84375 103.625 L 117.84375 103.125 L 117.84375 102.65625 L 119.4375 102.65625 L 121.03125 102.65625 L 121.03125 102.1875 L 121.03125 101.71875 L 118.65625 101.71875 L 116.25 101.71875 z M 121.8125 101.71875 L 121.8125 104.0625 C 121.81248 105.3577 121.836 106.46087 121.875 106.5 C 121.9142 106.5391 122.23999 106.5332 122.59375 106.5 L 123.25 106.4375 L 123.25 104.78125 C 123.24996 103.78263 123.31624 103.1631 123.40625 103.21875 C 123.48855 103.26955 123.77697 104.00389 124.0625 104.875 L 124.59375 106.46875 L 125.3125 106.46875 L 126.03125 106.46875 L 126.5625 104.875 C 126.85808 104.00182 127.17515 103.28125 127.25 103.28125 C 127.3249 103.28125 127.375 104.00182 127.375 104.875 L 127.375 106.46875 L 127.84375 106.46875 C 128.09856 106.46875 128.42439 106.5094 128.5625 106.5625 C 128.78489 106.6478 128.8125 106.38165 128.8125 104.1875 L 128.8125 101.71875 L 127.625 101.71875 L 126.46875 101.71875 L 125.9375 103.21875 C 125.6459 104.04825 125.35996 104.71875 125.3125 104.71875 C 125.265 104.71875 125.09526 104.36466 124.9375 103.90625 C 124.77976 103.44784 124.54281 102.74609 124.40625 102.375 L 124.15625 101.71875 L 123 101.71875 L 121.8125 101.71875 z M 136.75 101.71875 L 136.75 104.09375 L 136.75 106.46875 L 137.53125 106.46875 L 138.34375 106.46875 L 138.34375 105.6875 L 138.34375 104.875 L 139.15625 104.875 C 140.20633 104.878 140.37838 105.01163 140.5 105.78125 C 140.554 106.12345 140.65331 106.42509 140.71875 106.46875 C 140.96869 106.63539 142.31851 106.5534 142.25 106.375 C 142.2124 106.277 142.12383 105.86341 142.0625 105.4375 C 142.001 105.01157 141.82129 104.52781 141.6875 104.375 C 141.52328 104.18748 141.52698 104.09375 141.65625 104.09375 C 141.92467 104.09375 142.27631 103.18288 142.1875 102.71875 C 142.1472 102.50586 141.93827 102.20392 141.71875 102.03125 C 141.36317 101.7516 141.06275 101.71875 139.03125 101.71875 L 136.75 101.71875 z M 156.28125 101.71875 L 156.28125 104.09375 L 156.28125 106.46875 L 158.71875 106.46875 L 161.125 106.46875 L 161.0625 106 L 161 105.53125 L 159.4375 105.53125 L 157.875 105.53125 L 157.875 105.03125 L 157.875 104.5625 L 159.375 104.5625 L 160.875 104.5625 L 160.875 104.09375 L 160.875 103.625 L 159.375 103.625 L 157.875 103.625 L 157.875 103.125 L 157.875 102.65625 L 159.4375 102.65625 L 161.03125 102.65625 L 161.03125 102.1875 L 161.03125 101.71875 L 158.65625 101.71875 L 156.28125 101.71875 z M 132.75 102.625 C 133.14452 102.6355 133.55076 102.80072 133.8125 103.0625 C 134.47307 103.72304 134.27604 105.13218 133.46875 105.5 C 131.87577 106.22582 130.53578 104.33838 131.71875 103.03125 C 131.92328 102.80531 132.24732 102.67953 132.59375 102.65625 C 132.64945 102.65325 132.69364 102.623 132.75 102.625 z M 138.34375 102.625 L 139.3125 102.6875 C 140.48797 102.7725 140.85172 103.14828 140.3125 103.6875 C 140.14699 103.85303 139.75933 103.9375 139.1875 103.9375 L 138.34375 103.9375 L 138.34375 103.28125 L 138.34375 102.625 z M 145.75 102.65625 C 145.8053 102.65325 145.87884 102.65577 145.9375 102.65625 C 146.80324 102.66225 147.187 102.90731 147.375 103.5625 C 147.6232 104.42832 147.18678 105.32423 146.8125 104.71875 C 146.7455 104.60947 146.58584 104.67879 146.34375 104.90625 C 146.0551 105.17744 145.99046 105.30668 146.125 105.46875 C 146.26154 105.63341 146.23047 105.66407 146 105.65625 C 145.06214 105.62445 144.53843 105.09086 144.53125 104.15625 C 144.52425 103.22103 144.92509 102.70889 145.75 102.65625 z M 112.3125 102.6875 C 112.75165 102.6719 113.2342 102.72048 113.40625 102.8125 C 113.80624 103.02659 113.80468 103.56855 113.40625 103.78125 C 113.23742 103.87165 112.75487 103.9375 112.3125 103.9375 L 111.5 103.9375 L 111.5 103.3125 L 111.5 102.71875 L 112.3125 102.6875 z M 107.78125 104.09375 C 106.57023 104.09375 106.38135 104.17217 106.53125 104.75 C 106.59165 104.983 106.79818 105.03125 107.78125 105.03125 L 108.96875 105.03125 L 108.96875 104.5625 L 108.96875 104.09375 L 107.78125 104.09375 z M 188 122.96875 C 187.96 122.96975 187.8791 123.011 187.75 123.0625 C 186.9996 123.36277 182.28115 124.40636 178.46875 125.125 C 173.58995 126.04465 166.26835 127.15075 159.84375 127.90625 C 156.32205 128.32037 155.053 128.54556 156.125 128.5625 C 156.6508 128.5705 167.8355 130.52296 167.9375 130.625 C 167.9825 130.67 168.02525 132.79513 168.03125 135.34375 C 168.04125 138.8319 168.07625 139.96873 168.21875 139.96875 C 168.32355 139.96877 169.45265 139.75806 170.71875 139.5 C 173.10735 139.01314 187.15895 136.25126 188.21875 136.0625 C 189.26685 135.87584 190.11445 136.09045 179.28125 133.78125 C 174.46465 132.75459 174.0625 132.63474 174.0625 132.28125 C 174.0624 132.15709 175.6065 131.08428 177.5 129.875 C 179.3933 128.6657 181.63365 127.2281 182.46875 126.6875 C 183.30405 126.14691 184.8867 125.11493 186 124.40625 C 187.5209 123.43804 188.1765 122.96289 188 122.96875 z M 62.46875 123.21875 C 62.44305 123.24395 63.37043 123.87862 64.53125 124.625 C 65.69207 125.3714 67.4646 126.50402 68.46875 127.15625 C 73.90404 130.68661 75.41682 131.65608 75.8125 131.90625 C 76.05262 132.05805 76.25 132.33495 76.25 132.5 C 76.25 132.76379 75.42099 132.99328 69.28125 134.5 C 65.43939 135.4428 62.39095 136.28568 62.5 136.34375 C 62.60904 136.40185 64.07857 136.71121 65.78125 137.03125 C 67.48393 137.35128 71.91403 138.20815 75.625 138.9375 C 79.33598 139.66683 82.50343 140.27198 82.65625 140.28125 C 82.91509 140.29695 82.9375 139.94939 82.9375 135.46875 L 82.9375 130.65625 L 88.84375 129.59375 C 92.09628 128.99724 95.35154 128.36713 96.09375 128.21875 L 97.4375 127.96875 L 96.75 127.84375 C 90.13667 126.88171 62.52813 123.16062 62.46875 123.21875 z M 99.46875 128.375 C 99.40265 128.375 96.62998 128.8825 93.3125 129.5 C 89.99498 130.11751 87.01707 130.66959 86.6875 130.71875 C 86.35793 130.76805 86.06837 130.84621 86.03125 130.90625 C 85.97155 131.00295 88.45706 131.33969 96.8125 132.34375 C 98.12226 132.50115 99.29707 132.64659 99.40625 132.65625 C 99.55606 132.66955 99.59375 132.14936 99.59375 130.53125 C 99.59375 129.35248 99.53482 128.375 99.46875 128.375 z M 152.21875 128.75 C 152.11355 128.755 152.0284 128.76755 151.9375 128.78125 L 151.1875 128.875 L 151.1875 130.5 C 151.1875 131.39692 151.2515 132.18903 151.3125 132.25 C 151.3745 132.311 151.7087 132.32785 152.0625 132.28125 C 152.4163 132.23465 155.50085 131.91594 158.90625 131.5625 C 162.31175 131.20904 165.14105 130.89649 165.21875 130.875 C 165.29675 130.8535 164.62585 130.71111 163.71875 130.5625 C 162.81165 130.41389 161.06625 130.12172 159.84375 129.90625 C 154.29925 128.92899 152.95585 128.7153 152.21875 128.75 z M 83.5625 131.375 L 83.5625 137.875 L 83.5625 144.375 L 84.0625 144.46875 C 85.14877 144.66812 93.65851 145.71405 97.375 146.09375 C 103.80127 146.7503 108.45791 147.10272 115.9375 147.5 C 118.26236 147.62347 128.95352 147.5794 131.90625 147.4375 C 138.59004 147.11639 148.02815 146.33909 156.34375 145.4375 C 160.16575 145.02313 165.9915 144.30778 166.875 144.15625 L 167.375 144.09375 L 167.375 137.75 C 167.375 134.26127 167.37475 131.40625 167.34375 131.40625 C 167.27675 131.40625 156.10805 132.57817 153.09375 132.90625 C 147.82305 133.47996 139.67094 134.01182 131.65625 134.28125 C 123.18538 134.566 110.98812 134.3501 103.71875 133.78125 C 100.08968 133.49728 84.95894 131.73231 83.90625 131.46875 L 83.5625 131.375 z M 158.90625 135.375 C 159.17965 135.3547 159.1531 135.46272 158.875 136 C 158.5104 136.70507 158.1144 136.62051 158.3125 135.875 C 158.3845 135.60409 158.56125 135.43848 158.78125 135.40625 C 158.83225 135.39925 158.86725 135.3779 158.90625 135.375 z M 159.375 136.5 C 159.427 136.498 159.4599 136.49931 159.5 136.5 C 159.7624 136.509 159.75 136.60797 159.75 136.84375 C 159.7499 137.23966 159.4391 137.43309 158.6875 137.4375 C 158.3806 137.4385 158.3331 137.51031 158.375 137.875 C 158.423 138.2919 158.43645 138.30157 159.15625 138.25 C 159.86735 138.1991 159.9375 138.22298 159.9375 138.59375 C 159.9375 138.93926 159.8287 138.99758 159.1875 139.09375 C 158.5363 139.19145 158.4799 139.22324 158.5625 139.53125 C 158.6135 139.7211 158.65425 139.98873 158.65625 140.09375 C 158.65625 140.22947 158.8733 140.25425 159.4375 140.1875 C 160.2044 140.0967 160.2499 140.11438 160.25 140.5 C 160.2499 140.82007 160.1472 140.88918 159.75 140.96875 C 159.4772 141.02335 158.97985 141.09375 158.65625 141.09375 L 158.0625 141.09375 L 157.8125 138.90625 C 157.6648 137.71496 157.5387 136.73797 157.5625 136.71875 C 157.5865 136.69945 158.098 136.62051 158.6875 136.5625 C 158.9844 136.5334 159.2197 136.53805 159.375 136.53125 L 159.375 136.5 z M 156.9375 136.8125 C 157.3212 136.8155 157.375 136.91071 157.375 137.1875 C 157.375 137.51022 157.30755 137.59375 156.96875 137.59375 C 156.55145 137.59375 156.55195 137.60167 156.65625 138.59375 C 156.71425 139.13948 156.79125 139.99794 156.84375 140.5 C 156.93175 141.33902 156.9163 141.40625 156.625 141.40625 C 156.2711 141.40625 156.1781 141.0441 156 138.9375 C 155.9 137.7596 155.91755 137.75 155.46875 137.75 C 155.09845 137.75 155 137.6813 155 137.375 C 155 137.04143 155.10125 136.99536 155.84375 136.90625 C 156.37925 136.84185 156.7073 136.81033 156.9375 136.8125 z M 92.59375 136.9375 C 93.30298 136.9375 93.56143 137.11782 93.8125 137.71875 C 94.11486 138.44237 94.09893 139.31413 93.78125 140.25 C 93.59513 140.79817 93.56608 141.05558 93.6875 141.25 C 93.80736 141.44194 93.79808 141.58734 93.65625 141.78125 C 93.47645 142.02712 93.44093 142.04254 93.25 141.8125 C 93.13476 141.67364 92.89103 141.5625 92.6875 141.5625 C 91.69218 141.5625 91.13731 140.84349 91.15625 139.59375 C 91.17975 138.03598 91.75414 136.9375 92.59375 136.9375 z M 154.25 137.125 C 154.285 137.123 154.3289 137.125 154.375 137.125 C 154.601 137.125 154.6855 137.24905 154.75 137.625 C 154.8599 138.26606 155.15445 140.90484 155.15625 141.28125 C 155.15625 141.54848 154.54215 141.7023 154.53125 141.4375 C 154.52125 141.372 154.40765 140.45406 154.28125 139.40625 C 154.02745 137.30245 154.0089 137.13828 154.25 137.125 z M 94.84375 137.28125 C 95.18925 137.28125 95.22678 137.53537 95 139.28125 C 94.84384 140.48317 94.88414 140.84035 95.21875 140.96875 C 95.62392 141.12423 95.83 140.77206 95.96875 139.625 C 96.21745 137.56966 96.23768 137.4375 96.59375 137.4375 C 96.87775 137.4375 96.91839 137.50979 96.84375 138.03125 C 96.79685 138.35868 96.70921 139.0386 96.65625 139.5625 C 96.52815 140.8276 96.29576 141.52699 95.9375 141.71875 C 95.45334 141.97784 95.00659 141.91285 94.59375 141.5 C 94.14607 141.0523 94.11315 140.72909 94.375 138.6875 C 94.5285 137.49015 94.58988 137.28125 94.84375 137.28125 z M 107.21875 137.28125 C 107.60697 137.28125 107.61109 137.34038 107.28125 137.84375 C 107.06577 138.17253 106.59375 138.3853 106.59375 138.15625 C 106.59375 137.78427 106.95304 137.28125 107.21875 137.28125 z M 151.84375 137.28125 C 151.87675 137.28025 151.92465 137.28125 151.96875 137.28125 C 152.33495 137.28125 152.4176 137.55055 152.5625 139.46875 L 152.65625 140.9375 L 153.4375 140.8125 C 154.1845 140.7134 154.21865 140.73962 154.21875 141.125 C 154.21865 141.4044 154.09395 141.55793 153.84375 141.625 C 153.64725 141.6776 153.21085 141.71735 152.84375 141.71875 C 152.07915 141.72175 152.13775 141.89254 151.84375 139.15625 C 151.65945 137.44068 151.61105 137.29268 151.84375 137.28125 z M 150.6875 137.4375 C 150.72906 137.41989 150.77197 137.4375 150.84375 137.4375 C 151.20235 137.4375 151.2939 137.69485 151.4375 139.34375 C 151.4865 139.9113 151.54385 140.71024 151.59375 141.125 C 151.67575 141.805 151.6633 141.875 151.375 141.875 C 151.0181 141.875 150.9628 141.6343 150.8125 139.96875 C 150.7605 139.40119 150.6737 138.60226 150.625 138.1875 C 150.565 137.6779 150.56282 137.49034 150.6875 137.4375 z M 98.28125 137.59375 C 98.5301 137.59275 98.65322 137.71607 98.71875 138.03125 C 98.85209 138.67211 99.28125 141.65869 99.28125 141.9375 C 99.28125 142.06905 99.13945 142.1875 98.96875 142.1875 C 98.73982 142.1875 98.63949 142.03496 98.5625 141.625 C 98.4686 141.12363 98.40888 141.09375 97.9375 141.09375 C 97.50256 141.09375 97.38488 141.1445 97.25 141.53125 C 97.12207 141.89842 97.01578 142.007 96.75 141.9375 C 96.56502 141.8892 96.44335 141.7849 96.46875 141.71875 C 96.49425 141.65265 96.82577 140.69422 97.21875 139.59375 C 97.83482 137.86822 97.98417 137.5954 98.28125 137.59375 z M 149.03125 137.625 C 149.23085 137.622 149.3957 137.63005 149.5 137.65625 C 150.0184 137.78639 150.3489 138.59444 150.125 139.1875 C 149.9914 139.5413 150.01215 139.66806 150.21875 139.875 C 150.55265 140.20893 150.5768 141.47028 150.25 141.78125 C 150.119 141.90582 149.58515 142.03562 149.09375 142.09375 L 148.21875 142.21875 L 148.125 141.53125 C 148.075 141.15519 147.9901 140.32997 147.9375 139.71875 C 147.8845 139.10753 147.7938 138.42144 147.75 138.1875 C 147.675 137.78798 147.72745 137.75803 148.40625 137.65625 C 148.60505 137.62645 148.83175 137.6273 149.03125 137.625 z M 92.65625 137.75 C 92.03358 137.75 91.57947 139.558 92 140.34375 C 92.18376 140.68707 92.19643 140.69198 92.34375 140.25 C 92.48445 139.82789 92.50337 139.81099 92.78125 140.0625 C 93.05948 140.31425 93.07514 140.30562 93.1875 139.875 C 93.46842 138.79847 93.20227 137.75 92.65625 137.75 z M 100.375 137.75 C 100.56191 137.7609 100.57731 138.05277 100.53125 139.59375 L 100.46875 141.46875 L 101.0625 141.53125 C 101.57429 141.57355 101.65625 141.63574 101.65625 141.96875 C 101.65625 142.32756 101.60475 142.36081 100.90625 142.34375 C 100.49144 142.33325 100.02775 142.2899 99.875 142.25 C 99.55023 142.1651 99.54641 141.91432 99.8125 139.5 C 99.96815 138.0875 100.03162 137.8289 100.28125 137.78125 C 100.31575 137.77425 100.3484 137.749 100.375 137.75 z M 120.96875 137.90625 L 121.375 137.90625 L 121.09375 138.375 C 120.75574 138.94721 120.29398 139.03548 120.4375 138.5 C 120.4901 138.30354 120.5608 138.09673 120.5625 138.03125 C 120.5635 137.96565 120.74555 137.90625 120.96875 137.90625 z M 146.21875 137.90625 C 146.48367 137.88855 146.54047 138.11105 147.375 140.46875 C 147.9738 142.16031 147.9765 142.1875 147.625 142.1875 C 147.4009 142.1875 147.20805 142.03212 147.09375 141.78125 C 146.95165 141.46927 146.80653 141.40625 146.375 141.40625 C 145.87161 141.40625 145.79566 141.43317 145.75 141.90625 C 145.7117 142.30615 145.62809 142.42847 145.34375 142.46875 C 145.00807 142.51635 145.00364 142.48327 145.09375 142 C 145.14775 141.70946 145.31616 140.67924 145.46875 139.71875 C 145.71863 138.14451 145.78016 137.9832 146.09375 137.9375 C 146.14225 137.9305 146.18077 137.90885 146.21875 137.90625 z M 102.6875 138.0625 C 103.02355 138.0625 103.00563 138.08008 102.8125 139.9375 C 102.70589 140.96346 102.62946 141.95977 102.625 142.15625 C 102.619 142.40494 102.50225 142.5 102.28125 142.5 C 101.89949 142.5 101.90251 142.34652 102.15625 139.84375 C 102.32532 138.17597 102.37401 138.0625 102.6875 138.0625 z M 144.4375 138.0625 C 144.86193 138.0736 145.00124 138.15293 145.0625 138.3125 C 145.2047 138.68323 145.05567 138.84375 144.59375 138.84375 C 144.29068 138.84375 144.1908 138.91357 144.25 139.125 C 144.2931 139.27781 144.37892 140.11741 144.4375 140.96875 C 144.53908 142.44515 144.55217 142.5 144.25 142.5 C 143.9781 142.5 143.89878 142.38331 143.8125 141.53125 C 143.55818 139.01684 143.57829 139.03125 143.1875 139.03125 C 142.92497 139.03125 142.80525 138.91443 142.75 138.625 C 142.7077 138.40462 142.696 138.18543 142.75 138.15625 C 142.804 138.12715 143.32834 138.11175 143.90625 138.09375 C 144.11894 138.08675 144.29612 138.0595 144.4375 138.0625 z M 103.59375 138.15625 C 103.63475 138.15557 103.69994 138.15557 103.75 138.15625 C 103.88336 138.15925 104.03801 138.171 104.25 138.1875 C 105.54997 138.28834 105.58536 138.30353 105.5 138.75 C 105.4421 139.0526 105.35044 139.11755 105.0625 139.0625 C 104.66243 138.9861 104.683 139.0056 104.4375 141.59375 C 104.3514 142.50146 104.2845 142.65625 104.03125 142.65625 C 103.69446 142.65625 103.66134 142.50551 103.84375 140.3125 C 103.93765 139.18331 103.93307 139.03125 103.71875 139.03125 C 103.35932 139.03125 103.10051 138.70769 103.1875 138.375 C 103.2304 138.21126 103.30745 138.16563 103.59375 138.15625 z M 141.46875 138.21875 C 141.97309 138.21875 142.35951 138.55994 142.53125 139.125 C 142.6848 139.62994 142.15365 139.76476 141.8125 139.3125 C 141.64582 139.09139 141.44437 138.99985 141.28125 139.0625 C 140.80541 139.24506 141.03132 139.66068 141.75 139.96875 C 142.13682 140.13454 142.52162 140.43184 142.625 140.625 C 142.88815 141.11682 142.742 142.31584 142.375 142.59375 C 142.005 142.87398 141.34422 142.88645 141 142.625 C 140.75401 142.43824 140.40625 141.70266 140.40625 141.375 C 140.40625 141.09364 140.99783 141.22902 141.09375 141.53125 C 141.22488 141.94437 141.6875 142.09388 141.96875 141.8125 C 142.31031 141.47101 142.07241 141.10406 141.34375 140.8125 C 140.58911 140.51058 140.40625 140.22477 140.40625 139.375 C 140.40618 138.63167 140.7818 138.21875 141.46875 138.21875 z M 105.9375 138.3125 C 105.9512 138.3055 105.97095 138.315 106.03125 138.3125 C 106.21231 138.3085 106.57577 138.3367 106.96875 138.375 C 107.8542 138.4612 107.9375 138.47479 107.9375 138.84375 C 107.9375 139.21881 107.9001 139.26862 107.1875 139.21875 C 106.43957 139.16635 106.40625 139.17077 106.40625 139.65625 C 106.40625 140.12135 106.45887 140.125 107.0625 140.125 C 107.64977 140.125 107.6875 140.15764 107.6875 140.5625 C 107.6875 140.98385 107.65636 140.9922 106.96875 140.9375 L 106.25 140.90625 L 106.25 141.46875 L 106.25 142.03125 L 106.96875 142.03125 C 107.65665 142.03125 107.6875 142.04133 107.6875 142.5 C 107.6875 142.76196 107.62786 142.98557 107.5625 142.96875 C 107.497 142.95185 106.99292 142.9064 106.4375 142.875 L 105.4375 142.8125 L 105.53125 141.84375 C 105.58205 141.30244 105.66227 140.30297 105.71875 139.625 C 105.77525 138.94704 105.88236 138.34037 105.9375 138.3125 z M 148.875 138.4375 C 148.827 138.4405 148.7939 138.45145 148.75 138.46875 C 148.6128 138.52145 148.5 138.75981 148.5 138.96875 C 148.5 139.28504 148.57255 139.34375 148.96875 139.34375 C 149.23075 139.34375 149.4375 139.31775 149.4375 139.28125 C 149.4374 139.24475 149.48125 139.10017 149.53125 138.96875 C 149.62725 138.71607 149.2185 138.41288 148.875 138.4375 z M 136.21875 138.65625 C 136.28415 138.63445 136.37915 138.82767 136.40625 139.0625 C 136.45235 139.46137 136.38903 139.4852 135.75 139.53125 C 135.12719 139.57615 135.07895 139.6138 135.03125 140.03125 C 134.97915 140.48774 134.96388 140.48783 135.6875 140.40625 C 136.40163 140.32575 136.4375 140.33265 136.4375 140.78125 C 136.4375 141.21677 136.39985 141.25 135.71875 141.25 C 135.12027 141.25 135 141.27616 135 141.53125 C 135 142.19938 135.16579 142.34375 135.96875 142.34375 C 136.68441 142.34375 136.75 142.39633 136.75 142.75 C 136.75 143.11419 136.67345 143.1375 135.625 143.1875 L 134.53125 143.21875 L 134.46875 142.4375 C 134.42525 142.00091 134.33149 140.96393 134.28125 140.15625 L 134.1875 138.6875 L 135.15625 138.6875 C 135.68329 138.6875 136.15321 138.67815 136.21875 138.65625 z M 111.90625 138.71875 C 111.91325 138.71175 111.9407 138.71955 112 138.71875 C 112.17748 138.71675 112.56921 138.73515 113 138.78125 C 113.96336 138.8844 114.03125 138.93223 114.03125 139.28125 C 114.03125 139.62947 113.98049 139.65625 113.25 139.65625 C 112.51913 139.65625 112.46875 139.68243 112.46875 140.03125 C 112.46875 140.35856 112.53903 140.4387 113.15625 140.53125 C 113.77317 140.62385 113.875 140.67315 113.875 141 C 113.875 141.33888 113.8002 141.39417 113.125 141.4375 C 112.43747 141.4816 112.35772 141.51448 112.3125 141.90625 C 112.2657 142.31194 112.33564 142.33687 113.09375 142.4375 C 113.81058 142.5326 113.875 142.59231 113.875 142.9375 C 113.87494 143.31576 113.85426 143.32634 112.75 143.28125 L 111.625 143.21875 L 111.75 141 C 111.8124 139.77528 111.87805 138.74827 111.90625 138.71875 z M 114.21875 138.84375 L 114.59375 138.84375 C 114.83419 138.84375 115.04104 138.95738 115.09375 139.125 C 115.14175 139.2778 115.25467 139.59422 115.34375 139.8125 L 115.5 140.21875 L 115.75 139.625 C 115.93281 139.16945 116.08423 139.03125 116.375 139.03125 C 116.58394 139.03125 116.75 139.05805 116.75 139.09375 C 116.75 139.12955 116.5349 139.58865 116.28125 140.125 L 115.8125 141.09375 L 116.1875 142.0625 C 116.6526 143.2493 116.66352 143.46875 116.25 143.46875 C 116.04332 143.46875 115.88242 143.31197 115.78125 143.03125 C 115.37468 141.9031 115.38868 141.91073 115.03125 142.71875 C 114.84815 143.13267 114.68302 143.44763 114.65625 143.4375 C 114.62955 143.427 114.46894 143.38425 114.3125 143.34375 C 113.98067 143.25755 114.03177 142.99258 114.625 141.8125 L 115.03125 141.03125 L 114.625 139.96875 L 114.21875 138.84375 z M 132.75 138.84375 C 133.21766 138.84375 133.40395 138.93831 133.625 139.3125 C 133.96278 139.88433 133.94664 140.0641 133.625 140.1875 C 133.47042 140.2468 133.27379 140.15668 133.09375 139.9375 C 132.85604 139.64802 132.73303 139.60818 132.5 139.75 C 132.15859 139.95789 132.02312 141.41471 132.28125 142.09375 C 132.50581 142.68427 133.07023 142.6677 133.28125 142.0625 C 133.40162 141.71713 133.51822 141.62687 133.75 141.6875 C 134.11895 141.7839 134.11297 141.87487 133.8125 142.59375 C 133.67693 142.91835 133.43166 143.21966 133.1875 143.3125 C 132.95921 143.3993 132.7349 143.44305 132.71875 143.4375 C 131.92948 143.16692 131.6467 142.74025 131.4375 141.46875 C 131.31572 140.72862 131.56078 139.54703 131.9375 139.125 C 132.08741 138.95698 132.40157 138.84375 132.75 138.84375 z M 117.84375 139 C 118.25876 139.0116 118.71997 139.12621 118.875 139.28125 C 119.20934 139.61549 119.3403 140.20464 119.21875 140.8125 C 119.07601 141.52614 118.68414 141.875 118.0625 141.875 L 117.53125 141.875 L 117.53125 142.65625 C 117.53125 143.35884 117.48496 143.46875 117.1875 143.46875 C 116.8579 143.46875 116.87753 143.42247 116.96875 141.4375 C 117.01995 140.3242 117.0597 139.3279 117.0625 139.21875 C 117.0655 139.06813 117.42864 138.98841 117.84375 139 z M 119.59375 139 L 120.65625 139.0625 C 121.68735 139.1186 121.73295 139.11595 121.78125 139.53125 C 121.83015 139.95082 121.81305 139.96875 121.03125 139.96875 C 120.27917 139.96875 120.21875 140.0039 120.21875 140.375 C 120.21875 140.73955 120.28119 140.75 120.9375 140.75 C 121.59365 140.75 121.65625 140.79165 121.65625 141.15625 C 121.65625 141.52081 121.59362 141.5625 120.9375 141.5625 C 120.22892 141.5625 120.21875 141.55105 120.21875 142.09375 C 120.21875 142.63363 120.2549 142.63973 121 142.6875 C 121.68558 142.7314 121.75 142.79542 121.75 143.15625 C 121.75 143.52339 121.6717 143.53956 120.9375 143.5625 C 119.51962 143.6068 119.59375 143.7345 119.59375 141.21875 L 119.59375 139 z M 127.6875 139.03125 C 128.12805 139.03225 128.15625 139.11894 128.15625 139.34375 C 128.15625 139.84491 128.11387 139.88963 127.6875 139.90625 C 126.78824 139.94135 126.75 139.97507 126.75 140.375 C 126.75 140.73956 126.81253 140.75 127.46875 140.75 C 128.12488 140.75 128.15625 140.79165 128.15625 141.15625 C 128.15625 141.52081 128.12486 141.5625 127.46875 141.5625 C 126.75807 141.5625 126.75 141.57234 126.75 142.125 L 126.75 142.65625 L 127.53125 142.65625 C 128.27208 142.65625 128.34375 142.692 128.34375 143.0625 C 128.34375 143.36616 128.24195 143.46335 127.96875 143.46875 C 127.77224 143.47175 127.28972 143.50135 126.875 143.53125 L 126.09375 143.59375 L 126.09375 141.53125 C 126.08075 140.40589 126.04005 139.3904 126.03125 139.28125 C 126.02025 139.14471 126.35641 139.09479 127.09375 139.0625 C 127.34097 139.0517 127.54069 139.03065 127.6875 139.03125 z M 128.9375 139.03125 C 129.1591 139.03125 129.38894 139.3391 129.8125 140.3125 L 130.375 141.625 L 130.375 140.3125 C 130.378 139.3012 130.45419 139.03125 130.625 139.03125 C 130.96188 139.03125 130.98789 139.31297 131.03125 141.4375 C 131.06905 143.29066 131.07921 143.39332 130.78125 143.4375 C 130.52441 143.4755 130.35549 143.22777 129.875 142.15625 L 129.28125 140.84375 L 129.375 142.15625 C 129.4604 143.37184 129.43768 143.46875 129.15625 143.46875 C 128.79459 143.46875 128.65845 142.60884 128.65625 140.40625 C 128.65525 139.15242 128.66823 139.03125 128.9375 139.03125 z M 122.21875 139.09375 L 122.84375 139.125 C 123.19297 139.1383 123.6431 139.14825 123.84375 139.15625 C 124.56977 139.18525 124.82068 141.04289 124.15625 141.46875 C 123.98044 141.58139 124.01461 141.72399 124.3125 142.3125 C 124.76084 143.19801 124.77713 143.625 124.375 143.625 C 124.17129 143.625 123.93717 143.34328 123.625 142.71875 C 123.15844 141.78562 122.87913 141.63651 122.84375 142.34375 C 122.83275 142.56204 122.79215 142.9474 122.78125 143.1875 C 122.76645 143.51371 122.67795 143.625 122.4375 143.625 C 122.12718 143.625 122.14503 143.55515 122.1875 141.375 L 122.21875 139.09375 z M 125.3125 139.1875 C 125.61488 139.1875 125.625 139.28946 125.625 141.40625 C 125.625 143.52302 125.61483 143.625 125.3125 143.625 C 125.01002 143.625 125 143.52302 125 141.40625 C 125 139.28946 125.00999 139.1875 125.3125 139.1875 z M 98.15625 139.25 C 97.9845 139.2654 97.67741 140.05247 97.8125 140.1875 C 97.8636 140.2387 98.00857 140.28125 98.125 140.28125 C 98.36449 140.28125 98.41755 139.39214 98.1875 139.25 C 98.177 139.244 98.16775 139.249 98.15625 139.25 z M 146.1875 139.25 L 146.09375 139.8125 C 146.04385 140.11809 146.0327 140.40707 146.0625 140.46875 C 146.1091 140.56565 146.59375 140.4812 146.59375 140.375 C 146.59367 140.3537 146.51341 140.07806 146.40625 139.78125 L 146.1875 139.25 z M 117.96875 139.8125 C 117.78626 139.8085 117.6875 140.00716 117.6875 140.4375 C 117.6875 140.84098 117.7801 141.09534 117.90625 141.09375 C 118.44485 141.08675 118.73533 140.4229 118.375 140.0625 C 118.20978 139.89736 118.07825 139.81537 117.96875 139.8125 z M 123 139.96875 C 122.7869 139.97675 122.78577 140.08598 122.8125 140.4375 C 122.8467 140.88549 122.87578 140.94905 123.3125 140.90625 C 123.70782 140.86745 123.8125 140.76326 123.8125 140.4375 C 123.8125 140.10522 123.71599 140.04186 123.28125 140 C 123.15811 139.9882 123.07103 139.96585 123 139.96875 z M 149.125 140.15625 C 148.7481 140.16325 148.60735 140.3994 148.71875 140.84375 C 148.80475 141.18585 148.8977 141.25937 149.25 141.21875 C 149.612 141.17695 149.6875 141.08753 149.6875 140.6875 C 149.6875 140.3075 149.6116 140.19865 149.3125 140.15625 C 149.2495 140.14725 149.1788 140.15525 149.125 140.15625 z M 109.65625 140.90625 C 109.95674 140.90625 110.24801 140.96577 110.28125 141.03125 C 110.31445 141.09675 110.2999 141.34421 110.25 141.5625 C 110.1728 141.90025 110.06401 141.94858 109.625 141.90625 C 109.17125 141.86255 109.125 141.78494 109.125 141.375 C 109.125 140.94955 109.15783 140.90625 109.65625 140.90625 z M 138.46875 140.90625 C 139.04984 140.90625 139.125 140.97528 139.125 141.3125 C 139.125 141.57068 139.02499 141.71593 138.78125 141.78125 C 138.22085 141.93141 138 141.89938 138 141.65625 C 138 141.53242 137.95935 141.32561 137.90625 141.1875 C 137.82795 140.98363 137.93958 140.90625 138.46875 140.90625 z "
       transform="translate(853.05202,639.37924)"
       id="path3286" />
    <path
       style="fill:#f5002f;fill-opacity:1"
       d="M 98.25 40.96875 C 98.00606 41.03155 96.44621 41.9825 95.75 42.5 C 94.89796 43.1333 92.40916 45.68764 91.875 46.46875 C 91.60624 46.86167 90.84897 48.6475 90.1875 50.4375 C 87.68859 57.19974 87.33119 58.1924 86.5 60.5 C 85.91093 62.13542 85.65104 62.99868 85.71875 63.28125 C 86.02448 64.55703 87.18782 65.81907 88.65625 66.5 C 90.89138 67.53648 93.63298 67.80215 100.6875 67.6875 C 107.37919 67.57873 110.91671 67.19844 122.625 65.28125 C 134.52988 63.33186 139.51366 62.76166 145.40625 62.75 C 148.65045 62.743 154.44685 63.16765 154.96875 63.4375 C 155.10825 63.5096 154.9865 63.86567 154.5625 64.71875 C 153.5702 66.71196 151.607 69.08665 149.75 70.5625 C 149.357 70.87475 148.99085 71.17849 148.90625 71.25 C 148.31315 71.75137 152.5073 69.74525 153.875 68.875 C 155.5563 67.80522 157.22365 66.07658 157.96875 64.625 C 158.94565 62.72204 163.5589 51.30074 164.375 48.75 C 164.8087 47.39411 164.7192 47.02345 163.6875 46.03125 C 162.3884 44.7819 160.23385 44.20717 155.71875 43.90625 C 149.51715 43.49295 141.29215 44.0482 132.375 45.5 C 130.00062 45.88657 124.89902 46.72818 123 47.03125 C 114.6746 48.35992 108.03361 48.96139 103.3125 48.8125 C 99.76616 48.70064 94.84375 48.19907 94.84375 47.96875 C 94.84375 47.68471 95.73751 45.4522 96.28125 44.375 C 96.55779 43.82723 97.13224 42.83722 97.5625 42.1875 C 97.99274 41.53781 98.31044 40.99799 98.28125 40.96875 C 98.27725 40.96475 98.2663 40.96475 98.25 40.96875 z M 152.6875 46.6875 L 152.96875 48.75 C 153.12125 49.87978 153.2852 50.88693 153.3125 50.96875 C 153.3575 51.10529 154.53085 49.53187 155.78125 47.6875 C 156.13225 47.16982 156.385 46.93686 156.625 46.9375 C 157.1149 46.93818 160.55665 47.52539 160.65625 47.625 C 160.74625 47.7149 159.92535 48.74986 157.84375 51.15625 C 157.09595 52.02092 155.9841 53.34629 155.375 54.09375 L 154.28125 55.4375 L 153.65625 57.78125 L 153.03125 60.125 L 150.96875 60 C 149.83005 59.9449 148.87285 59.89914 148.84375 59.875 C 148.81575 59.8509 149.0811 58.77646 149.4375 57.5 C 149.7939 56.22356 150.09375 55.06409 150.09375 54.90625 C 150.09365 54.64974 148.91625 49.74118 148.46875 48.125 L 148.28125 47.5 L 147.9375 48.75 L 147.59375 50.03125 L 146.21875 50.125 C 145.46111 50.1773 144.81468 50.2463 144.78125 50.28125 C 144.74775 50.31625 144.09018 52.48609 143.34375 55.09375 C 142.59717 57.70143 141.97866 59.86505 141.9375 59.90625 C 141.8965 59.94745 141.1396 60.04832 140.28125 60.125 C 139.42284 60.2017 138.47367 60.24687 138.15625 60.25 L 137.5625 60.28125 L 138.96875 55.46875 C 139.7336 52.82741 140.3157 50.65059 140.25 50.625 C 140.1844 50.5993 139.56088 50.6336 138.875 50.71875 C 138.18905 50.80385 137.59063 50.87184 137.5625 50.84375 C 137.5345 50.81565 137.61716 50.42438 137.75 50 C 137.88289 49.57561 138.11279 48.83555 138.25 48.34375 C 138.4699 47.5552 138.54884 47.42775 138.96875 47.34375 C 140.36003 47.06551 145.70112 46.73702 148.96875 46.71875 L 152.6875 46.6875 z M 137.40625 47.59375 C 137.43955 47.59443 137.46355 47.58725 137.46875 47.59375 C 137.50875 47.63405 137.16267 48.98583 136.6875 50.59375 C 136.21235 52.20167 135.32877 55.13042 134.75 57.09375 C 134.17119 59.05709 133.68439 60.6906 133.65625 60.71875 C 133.62805 60.74695 132.89207 60.8762 132.03125 61 C 131.17034 61.12382 130.20241 61.26567 129.875 61.3125 C 129.54752 61.3594 129.28125 61.3257 129.28125 61.25 C 129.28125 61.1743 129.97328 58.79741 130.8125 55.96875 C 131.65164 53.1401 132.50084 50.22191 132.71875 49.46875 L 133.125 48.09375 L 135.25 47.8125 C 136.27648 47.6788 137.17326 47.58651 137.40625 47.59375 z M 127.5 49 C 127.5635 48.99992 127.61456 49.02035 127.625 49.03125 C 127.6666 49.07295 127.60875 49.30633 127.53125 49.5625 C 126.34992 53.44594 124.84375 58.55738 124.84375 58.625 C 124.84375 58.673 124.99102 58.6728 125.1875 58.625 C 125.90431 58.45068 129.02543 58.02544 129.09375 58.09375 C 129.15355 58.15355 128.20641 61.37659 128.09375 61.5 C 128.07205 61.5239 127.17593 61.67455 126.09375 61.84375 C 125.01152 62.01296 123.20295 62.32193 122.0625 62.5 C 119.471 62.90467 119.23902 62.8937 119.34375 62.53125 C 119.38785 62.37844 120.24049 59.54105 121.25 56.21875 C 122.25959 52.89645 123.09375 50.07581 123.09375 49.96875 C 123.09375 49.72269 123.58063 49.54058 124.59375 49.40625 C 125.03029 49.34835 125.87886 49.22405 126.46875 49.125 C 126.91115 49.0507 127.30946 49.00027 127.5 49 z M 121.625 49.96875 C 121.83115 49.96675 121.92756 49.98935 121.9375 50.03125 C 121.9793 50.20853 118.10632 62.92494 117.96875 63.0625 C 117.92425 63.107 116.95055 63.26548 115.78125 63.4375 C 113.29907 63.80268 113.5625 63.7814 113.5625 63.65625 C 113.5625 63.58695 117.43287 50.92447 117.59375 50.46875 C 117.59875 50.45385 118.57143 50.3205 119.75 50.15625 C 120.6473 50.03118 121.28144 49.97179 121.625 49.96875 z M 116.25 50.625 C 116.47611 50.6107 116.59375 50.64781 116.59375 50.75 C 116.59375 50.85693 116.36075 51.64066 116.09375 52.5 L 115.625 54.0625 L 114.71875 54.15625 C 112.93362 54.34654 112.80259 54.3867 112.625 54.84375 C 112.5326 55.08173 111.82961 57.29364 111.0625 59.75 L 109.6875 64.21875 L 108.34375 64.3125 C 107.60005 64.3706 106.61465 64.4484 106.15625 64.5 C 105.69779 64.5516 105.3125 64.5582 105.3125 64.5 C 105.3125 64.4423 105.98297 62.25831 106.8125 59.65625 C 107.64197 57.05418 108.3125 54.89865 108.3125 54.84375 C 108.3125 54.78885 107.716 54.7597 106.96875 54.8125 L 105.59375 54.90625 L 105.71875 54.46875 C 105.78155 54.2153 106.0163 53.41728 106.25 52.71875 L 106.6875 51.46875 L 108.34375 51.34375 C 110.73557 51.17497 115.30571 50.77016 116 50.65625 C 116.1042 50.63915 116.17464 50.6297 116.25 50.625 z M 94.71875 50.75 C 95.05429 50.75 99.03422 51.26103 99.09375 51.3125 C 99.12745 51.3416 98.55746 52.70386 97.8125 54.34375 C 96.22401 57.8403 95.27566 60.33478 95.34375 60.8125 C 95.38665 61.1129 95.539 61.15944 96.625 61.28125 C 98.36028 61.47589 98.73705 61.29343 99.0625 60.125 C 99.1993 59.63381 99.35871 59.01195 99.4375 58.75 C 99.7035 57.86567 100.67131 53.20118 100.78125 52.28125 L 100.90625 51.375 L 103.28125 51.375 L 105.65625 51.375 L 105.5625 51.8125 C 105.5052 52.05262 104.74093 54.42839 103.875 57.09375 C 102.82342 60.33037 102.14199 62.19007 101.8125 62.6875 C 101.20032 63.61171 100.24506 64.35146 99.21875 64.65625 C 98.72633 64.80249 97.81625 64.85733 96.8125 64.84375 C 95.11292 64.82075 94.952 64.80946 93.53125 64.53125 C 91.91611 64.21503 91.04064 63.00725 91.21875 61.28125 C 91.3261 60.24148 94.48245 50.75 94.71875 50.75 z M 156.03125 59 C 157.26355 59 157.8873 60.5815 157 61.46875 C 156.731 61.7378 156.42475 61.84375 156.03125 61.84375 C 155.22145 61.84375 154.6873 61.2949 154.6875 60.4375 C 154.6873 59.5801 155.22145 59 156.03125 59 z M 156.03125 59.34375 C 155.87325 59.34307 155.7262 59.41251 155.5625 59.5 C 154.925 59.84124 154.83795 60.71281 155.40625 61.28125 C 155.66635 61.54117 156.1914 61.61187 156.3125 61.40625 C 156.4193 61.22484 156.15465 60.59375 155.96875 60.59375 C 155.87875 60.59375 155.78125 60.77655 155.78125 61 C 155.78125 61.2304 155.7147 61.36815 155.625 61.3125 C 155.3911 61.16803 155.4489 59.68475 155.6875 59.59375 C 155.7965 59.55215 156.02775 59.58525 156.21875 59.65625 C 156.50105 59.7612 156.5697 59.9081 156.5625 60.4375 C 156.5525 61.24651 156.66225 61.37929 156.90625 60.84375 C 157.24665 60.09663 156.71545 59.34714 156.03125 59.34375 z M 155.9375 59.9375 C 155.8555 59.9375 155.78125 60.03764 155.78125 60.125 C 155.78125 60.2123 155.89505 60.28125 156.03125 60.28125 C 156.16745 60.28125 156.2414 60.21236 156.1875 60.125 C 156.1345 60.0377 156.0197 59.9375 155.9375 59.9375 z M 112.71875 110.28125 C 111.00932 110.28057 109.26355 110.6446 107.90625 111.3125 C 105.86715 112.31591 104.50574 114.18671 103.96875 116.78125 C 103.83458 117.42944 103.77684 117.99558 103.8125 118.03125 C 103.8849 118.10365 107.69164 118.52748 108.3125 118.53125 C 108.67322 118.53325 108.75501 118.42211 109 117.40625 C 109.3498 115.95587 109.75834 115.31066 110.59375 114.90625 C 113.25677 113.6171 115.93369 115.16487 115.9375 118 C 115.9405 119.78236 115.07648 121.2073 112.34375 123.84375 C 108.53419 127.5191 107.11605 128.99168 106.09375 130.3125 C 105.09105 131.60791 104.34375 132.71881 104.34375 132.96875 C 104.34375 133.08381 109.91663 133.44462 113.15625 133.53125 C 113.9421 133.55235 116.04431 133.57585 117.8125 133.59375 L 121.03125 133.625 L 121.03125 132.90625 L 121.03125 132.1875 L 115.9375 132.21875 C 113.14328 132.24295 110.87495 132.24715 110.875 132.21875 C 110.875 131.91235 112.22934 130.40163 113.9375 128.8125 C 116.76805 126.17922 117.81563 125.09734 118.6875 123.9375 C 120.45498 121.58624 121.27022 118.84309 120.875 116.5 C 120.66029 115.22707 119.80314 113.33686 119.46875 113.40625 C 119.34907 113.43105 119.31274 113.38201 119.375 113.28125 C 119.50113 113.07717 118.35656 111.84495 118.15625 111.96875 C 118.08305 112.01395 118 111.9664 118 111.875 C 117.99999 111.59205 116.17859 110.77917 115 110.53125 C 114.27395 110.37852 113.49575 110.28183 112.71875 110.28125 z M 127.75 110.75 L 126.46875 117.625 C 125.76136 121.40146 125.19985 124.51047 125.21875 124.53125 C 125.23775 124.55205 126.17066 124.71336 127.28125 124.875 C 128.71398 125.08351 129.32631 125.09144 129.40625 124.96875 C 129.73641 124.46205 131.15187 123.6215 132.0625 123.375 C 134.51181 122.71201 136.5477 123.9661 137.0625 126.4375 C 137.33443 127.74287 137.16583 129.69981 136.6875 130.78125 C 135.96517 132.41465 134.91107 133.13119 133.28125 133.125 C 131.57451 133.118 130.3498 132.16945 129.8125 130.46875 C 129.50785 129.5045 129.65654 129.5546 126.96875 129.8125 C 124.42525 130.05654 124.50637 130.04714 124.625 130.65625 C 124.77812 131.44229 125.27785 132.84682 125.5625 133.28125 L 125.84375 133.65625 L 130.375 133.5625 C 132.87503 133.5012 135.35109 133.41031 135.875 133.375 C 136.39891 133.3397 137.7278 133.27483 138.84375 133.21875 C 140.25545 133.14785 140.93952 133.02929 141.09375 132.875 C 141.353 132.61578 141.90172 131.22061 142.15625 130.15625 C 142.45528 128.90645 142.36001 126.39446 141.96875 125.125 C 141.02705 122.06911 138.73988 119.92371 135.71875 119.3125 C 134.50378 119.06671 132.67054 119.23521 131.71875 119.65625 C 131.32062 119.83235 130.94661 119.94661 130.90625 119.90625 C 130.86585 119.86585 131.00966 118.82998 131.21875 117.625 L 131.59375 115.4375 L 136.40625 115.40625 L 141.1875 115.34375 L 141.1875 113.0625 L 141.1875 110.75 L 134.46875 110.75 L 127.75 110.75 z M 161.78125 110.90625 C 161.10375 110.89345 160.45375 111.01515 159.96875 111.25 C 158.24985 112.08208 158.6471 114.24265 160.625 114.75 C 162.6639 115.27297 162.9375 115.38353 162.9375 115.6875 C 162.9375 116.62329 160.76055 116.73183 160.46875 115.8125 C 160.39775 115.58814 160.22635 115.5294 159.71875 115.53125 C 159.35345 115.53194 158.9347 115.57887 158.8125 115.65625 C 158.4529 115.88388 159.1054 116.77397 159.9375 117.21875 C 160.5453 117.54355 160.81815 117.60646 161.84375 117.5625 C 163.38545 117.4965 164.26825 116.97689 164.53125 116 C 164.85185 114.80922 164.10415 113.92113 162.53125 113.5625 C 160.89865 113.19023 160.40625 112.96756 160.40625 112.65625 C 160.40625 111.96902 162.12445 111.84972 162.65625 112.5 C 162.87725 112.77015 163.0119 112.8028 163.625 112.71875 C 164.0262 112.66385 164.375 112.55778 164.375 112.46875 C 164.375 112.07415 163.52445 111.24811 162.96875 111.09375 C 162.59845 110.99091 162.18785 110.91387 161.78125 110.90625 z M 146.75 110.9375 C 145.87018 110.9873 145.57608 111.10084 145.09375 111.46875 C 144.56944 111.86863 144.16339 112.49269 144.3125 112.65625 C 144.3426 112.68915 144.66234 112.74505 145.03125 112.8125 C 145.62706 112.92146 145.73378 112.90088 146 112.5625 C 146.57012 111.83766 148.1175 112.14987 148 112.96875 C 147.953 113.29347 147.8109 113.3814 147 113.5625 C 144.75437 114.06396 144.26221 114.36871 144.09375 115.40625 C 143.97089 116.16376 144.29484 116.90844 144.90625 117.28125 C 145.64105 117.72933 146.88255 117.69143 147.625 117.1875 C 148.2028 116.79534 148.19905 116.77916 148.28125 117.09375 C 148.35225 117.3673 148.48805 117.4375 149.21875 117.4375 C 150.02535 117.4375 150.0943 117.41806 149.9375 117.125 C 149.8455 116.95306 149.74365 115.71666 149.71875 114.40625 C 149.67575 112.15749 149.63195 111.99873 149.28125 111.625 C 148.82435 111.13856 148.1784 110.93818 147.1875 110.9375 C 147.0459 110.9374 146.90608 110.9286 146.75 110.9375 z M 154.96875 110.9375 C 154.41775 110.9565 153.84205 111.13336 153.40625 111.5 L 152.9375 111.90625 L 152.9375 111.46875 C 152.9375 111.08138 152.90395 111.0625 152.15625 111.0625 L 151.34375 111.0625 L 151.34375 114.25 L 151.34375 117.4375 L 152.21875 117.4375 L 153.09375 117.4375 L 153.09375 115.34375 C 153.09375 113.26538 153.19935 112.80533 153.71875 112.40625 C 154.00565 112.18594 154.8245 112.12178 155.125 112.3125 C 155.4842 112.54053 155.625 113.48382 155.625 115.46875 L 155.625 117.4375 L 156.4375 117.4375 L 157.21875 117.4375 L 157.21875 115 C 157.21875 113.65961 157.1533 112.34691 157.0625 112.09375 C 156.7836 111.3174 155.88685 110.90587 154.96875 110.9375 z M 147.78125 114.4375 C 148.01775 114.4241 148.03125 114.59602 148.03125 115.125 C 148.03125 115.76327 147.959 115.87611 147.5 116.15625 C 146.70588 116.64045 146.17724 116.55302 145.84375 115.90625 C 145.60419 115.44166 145.85253 114.92697 146.375 114.8125 C 146.61887 114.759 147.02815 114.6426 147.28125 114.5625 C 147.50015 114.4932 147.67385 114.44363 147.78125 114.4375 z "
       transform="translate(853.05202,639.37924)"
       id="path3204" />
  </g>
</svg>
