<?xml version="1.0" encoding="UTF-8" standalone="no"?>
<!-- Created with Inkscape (http://www.inkscape.org/) -->

<svg
   xmlns:dc="http://purl.org/dc/elements/1.1/"
   xmlns:cc="http://creativecommons.org/ns#"
   xmlns:rdf="http://www.w3.org/1999/02/22-rdf-syntax-ns#"
   xmlns:svg="http://www.w3.org/2000/svg"
   xmlns="http://www.w3.org/2000/svg"
   xmlns:sodipodi="http://sodipodi.sourceforge.net/DTD/sodipodi-0.dtd"
   xmlns:inkscape="http://www.inkscape.org/namespaces/inkscape"
   width="250"
   height="177"
   id="svg2"
   version="1.1"
   inkscape:version="0.48.2 r9819"
   sodipodi:docname="log25.svg">
  <defs
     id="defs4" />
  <sodipodi:namedview
     id="base"
     pagecolor="#ffffff"
     bordercolor="#666666"
     borderopacity="1.0"
     inkscape:pageopacity="0.0"
     inkscape:pageshadow="2"
     inkscape:zoom="1"
     inkscape:cx="82.67113"
     inkscape:cy="226.63776"
     inkscape:document-units="px"
     inkscape:current-layer="layer1"
     showgrid="false"
     fit-margin-top="0"
     fit-margin-left="0"
     fit-margin-right="0"
     fit-margin-bottom="0"
     inkscape:window-width="1073"
     inkscape:window-height="724"
     inkscape:window-x="0"
     inkscape:window-y="0"
     inkscape:window-maximized="0" />
  <metadata
     id="metadata7">
    <rdf:RDF>
      <cc:Work
         rdf:about="">
        <dc:format>image/svg+xml</dc:format>
        <dc:type
           rdf:resource="http://purl.org/dc/dcmitype/StillImage" />
        <dc:title></dc:title>
      </cc:Work>
    </rdf:RDF>
  </metadata>
  <g
     inkscape:label="Layer 1"
     inkscape:groupmode="layer"
     id="layer1"
     transform="translate(-853.05202,-639.37924)">
    <path
       style="fill:#0073d1;fill-opacity:1"
       d="m 978.82845,642.71973 c -2.20289,0.0125 -4.36235,0.46181 -6.13189,1.34975 -2.83707,1.42359 -5.42435,3.56879 -7.61231,6.31333 -1.3515,1.69536 -1.37212,1.73574 -0.8345,1.90852 0.30211,0.0971 2.17115,0.27218 4.15084,0.38461 7.29016,0.41404 20.91394,0.23871 25.01386,-0.3193 l 0.97239,-0.13062 -0.85629,-1.20462 c -2.00604,-2.79753 -5.58615,-5.82675 -8.29441,-7.02449 -1.95975,-0.86667 -4.20478,-1.28973 -6.40769,-1.27718 z m 10.26826,0.94338 c -0.0813,0.0552 0.37359,0.52016 1.06673,1.074 1.81408,1.44948 4.01967,3.80854 5.33366,5.71102 0.88592,1.2827 1.19804,1.56744 1.7126,1.56744 0.61968,0 9.1708,-1.10213 9.6224,-1.24088 0.7711,-0.23692 -6.4713,-3.87467 -10.21743,-5.13049 -2.42268,-0.81216 -6.85073,-1.98039 -7.4962,-1.98109 -0.01,-2e-5 -0.0165,-0.004 -0.0218,0 z m -20.15916,0.0508 c -0.63468,-0.0274 -4.59659,0.97319 -7.09703,1.80692 -3.5376,1.17952 -10.58592,4.57488 -10.61657,5.11598 -0.004,0.0712 1.7953,0.36929 3.99846,0.66036 2.20309,0.29106 4.1624,0.56438 4.35402,0.6023 0.19153,0.038 0.71403,0.0705 1.16108,0.0799 0.75253,0.0156 0.89864,-0.10491 1.97381,-1.65453 1.40054,-2.01868 3.46182,-4.23269 5.15224,-5.53686 0.68518,-0.52858 1.20378,-1.00229 1.15384,-1.05223 -0.0114,-0.0113 -0.0374,-0.02 -0.0799,-0.0218 z m -19.89786,8.62822 c -0.6262,0.0447 -3.9198,2.74109 -5.68201,4.67332 -2.59725,2.84785 -5.13863,6.64111 -6.42218,9.59337 -0.36246,0.83358 -0.38029,1.03409 -0.11611,1.19735 0.35828,0.22144 2.13417,0.46497 5.22483,0.7039 2.63184,0.20348 9.69996,0.22101 11.83569,0.029 l 1.61823,-0.15239 0.3701,-1.85772 c 0.766,-3.78454 1.91382,-7.05622 4.31049,-12.32188 0.072,-0.15811 -0.79453,-0.34746 -2.39472,-0.52975 -2.50762,-0.28563 -7.96672,-1.1252 -8.69353,-1.33523 -0.0144,-0.004 -0.0307,-10e-4 -0.0508,0 z m 59.99121,0.0218 c -0.036,-0.002 -0.066,7.5e-4 -0.094,0.008 -1.2289,0.2746 -6.3025,1.05039 -8.5484,1.30622 -1.37299,0.15639 -2.49635,0.35178 -2.49635,0.4354 0,0.0836 0.35485,0.87292 0.78371,1.75612 0.42893,0.8832 1.17341,2.68675 1.66184,4.0057 l 0.8926,2.39472 0.7111,-0.12337 c 1.3827,-0.24079 7.2693,-0.64186 11.7123,-0.79824 l 4.4992,-0.15965 -1.0668,-1.39329 c -2.497,-3.27551 -6.9523,-7.36313 -8.0549,-7.43086 z m -46.31232,1.894 c -0.30116,-0.0459 -1.78953,2.76841 -2.68499,5.07244 -0.75885,1.95251 -2.14357,6.58834 -2.40922,8.06946 -0.14328,0.79872 -0.11157,0.87093 0.37735,0.8708 2.14106,-4.7e-4 12.84408,-1.48014 25.02838,-3.46145 4.94546,-0.80419 11.89904,-1.84023 15.03588,-2.24232 0.60431,-0.0775 0.98692,-0.24582 0.98692,-0.43541 0,-0.98625 -3.22292,-7.9523 -3.64289,-7.87352 -1.52979,0.28695 -10.47447,0.6304 -16.44366,0.63133 -5.98124,7.6e-4 -14.1843,-0.31717 -16.24777,-0.63133 z m 44.22962,38.95399 c -1.1235,-10e-4 -2.1245,0.0259 -2.8809,0.0799 l -2.5326,0.17417 -0.7474,2.20604 c -0.7685,2.27129 -2.25878,5.79106 -2.8084,6.63263 -0.30543,0.46762 -0.23668,0.48674 3.6937,1.00868 2.201,0.29229 4.6776,0.66955 5.5078,0.83451 0.8302,0.16498 1.6893,0.31133 1.9085,0.32656 0.4347,0.0302 3.9168,-2.82122 5.4062,-4.42659 2.1472,-2.31424 4.5283,-5.43922 4.5283,-5.94325 0,-0.41254 -7.207,-0.88533 -12.0752,-0.89257 z m -8.35975,0.40638 c -2.5739,0.0573 -12.55212,1.40349 -23.56976,3.20747 -3.83154,0.62735 -8.58612,1.37257 -10.56575,1.65452 -1.97966,0.28196 -3.63609,0.54507 -3.67917,0.58054 -0.0431,0.0354 0.31997,0.85266 0.80551,1.82144 l 0.88529,1.76337 1.05224,-0.12336 c 5.09941,-0.59448 20.16805,-0.78224 26.75547,-0.33381 1.95791,0.13328 3.97375,0.2639 4.48467,0.29027 l 0.92883,0.0435 1.16108,-2.33665 c 1.30057,-2.622 2.6247,-6.25753 2.37298,-6.50927 -0.0472,-0.0467 -0.26368,-0.0663 -0.63139,-0.0581 z m -40.21665,5.76908 c -0.14844,0 -2.36335,0.20646 -4.9273,0.45717 -2.56395,0.25071 -5.68675,0.52141 -6.93741,0.60231 -2.65444,0.17172 -2.66738,0.0364 0.18143,2.46729 1.0217,0.87187 1.88075,1.58194 1.9085,1.58195 0.0277,1e-5 1.64744,-0.25333 3.59933,-0.56601 1.95188,-0.3127 4.56736,-0.6917 5.81263,-0.84178 1.24521,-0.15009 2.26409,-0.31157 2.26409,-0.36284 0,-0.37455 -1.68755,-3.33809 -1.90127,-3.33809 z m 19.13594,4.47739 c -0.7365,0.004 -1.42185,0.0133 -2.02461,0.029 -5.68311,0.14895 -11.4639,0.49897 -11.66878,0.7039 -0.10502,0.10491 1.98355,2.79052 2.98976,3.84605 2.39114,2.50849 6.26735,4.8068 9.14345,5.42077 1.19066,0.25418 5.68087,0.13293 6.91564,-0.18868 1.72095,-0.44825 4.16081,-1.68541 5.75454,-2.9172 1.54699,-1.19562 4.21674,-3.93742 5.13775,-5.27562 l 0.67489,-0.98691 -0.64586,-0.029 c -0.35735,-0.0163 -0.86212,-0.0529 -1.11751,-0.0871 -2.17181,-0.29021 -10.00378,-0.54222 -15.15927,-0.51523 z m 19.10693,0.84904 -1.04495,1.55293 c -1.09122,1.62487 -4.09379,4.83456 -5.68928,6.08112 -1.1775,0.91994 -0.86761,0.93266 2.4963,0.0653 4.8319,-1.24586 8.09186,-2.54885 12.44526,-4.95634 1.7188,-0.95056 2.0822,-1.23566 1.7416,-1.37151 -0.4042,-0.16128 -5.8518,-0.93501 -8.67178,-1.23364 l -1.27715,-0.13788 z m -35.06442,0.008 -1.39328,0.13789 c -2.53909,0.25383 -8.00983,1.04781 -8.51213,1.23363 -0.4492,0.16618 -0.39461,0.24128 0.58053,0.81275 4.12846,2.41944 8.38,4.17396 13.04031,5.38448 1.66032,0.43128 3.22778,0.78581 3.48322,0.78373 0.41878,-0.003 0.40739,-0.0435 -0.1161,-0.39187 -1.32365,-0.88084 -4.68556,-4.40188 -5.84166,-6.1174 l -1.24089,-1.84321 z m 51.02195,29.27356 c -0.8083,0.0189 -1.0139,0.13098 -1.299,0.56602 -0.2063,0.3148 -0.3773,0.62829 -0.3773,0.69664 0,0.0683 0.4061,0.12337 0.8998,0.12337 0.6655,0 1.1004,-0.17545 1.6836,-0.68939 l 0.7837,-0.68938 -1.3062,-0.008 c -0.1421,-4.6e-4 -0.2692,-0.003 -0.3846,0 z m 52.9376,1.87949 c -2.0488,0.0705 -3.5049,0.98938 -3.9694,2.53984 -0.5526,1.84429 0.1484,3.73506 1.6545,4.47739 0.514,0.25338 1.3918,0.38103 2.6996,0.3846 2.6867,0.008 3.7818,-0.569 4.3176,-2.26408 0.1569,-0.49574 0.1004,-0.52249 -1.0377,-0.52249 -1.0445,0 -1.2885,0.10038 -1.8794,0.73293 -0.6047,0.64736 -0.7812,0.70928 -1.6328,0.59504 -1.2596,-0.16894 -1.6289,-0.58786 -1.7633,-1.98833 -0.098,-1.0177 -0.038,-1.23209 0.4862,-1.75612 0.8888,-0.88894 2.279,-0.84719 2.9752,0.0943 0.4599,0.62198 0.6476,0.69665 1.7488,0.69665 0.6785,0 1.2337,-0.0545 1.2337,-0.12337 0,-0.069 -0.2009,-0.52047 -0.4499,-1.00868 -0.5537,-1.08531 -1.7232,-1.70197 -3.4977,-1.83595 -0.1567,-0.0119 -0.3133,-0.0187 -0.4644,-0.0217 -0.1419,-0.003 -0.2844,-0.004 -0.421,0 z m -147.86988,0.008 c -1.71188,0.008 -3.15614,0.52668 -3.81704,1.4078 -0.48375,0.64497 -0.57327,1.02294 -0.57327,2.43099 0,1.45341 0.0738,1.7442 0.58053,2.29312 0.31929,0.34584 0.89402,0.76582 1.27718,0.93612 1.01408,0.45071 4.38153,0.42551 5.36997,-0.0435 1.28062,-0.60768 1.82869,-1.58855 1.82869,-3.26552 0,-2.32492 -1.2524,-3.51593 -3.91862,-3.72995 -0.2539,-0.0204 -0.50291,-0.0301 -0.74744,-0.029 z m -21.32021,0.008 c -2.74475,-0.021 -4.31775,1.27625 -4.31775,3.61383 0,1.6357 0.53554,2.75564 1.59649,3.31633 1.21438,0.64177 4.34916,0.63567 5.60943,-0.008 0.82536,-0.42107 1.61825,-1.43941 1.61825,-2.07542 0,-0.13717 -0.49592,-0.24673 -1.13931,-0.24673 -0.96061,0 -1.25783,0.11128 -1.8432,0.69665 -1.71953,1.71953 -4.08603,-0.011 -3.29455,-2.40923 0.32343,-0.97996 0.8125,-1.3062 1.96657,-1.3062 0.80188,0 1.75612,0.63113 1.75612,1.16107 0,0.12772 0.57473,0.23221 1.27719,0.23221 1.43414,0 1.51765,-0.13769 0.79097,-1.31346 -0.65024,-1.05212 -1.63939,-1.51508 -3.46145,-1.64002 -0.19331,-0.0133 -0.37578,-0.0204 -0.55876,-0.0218 z m 97.2834,0.0146 c -1.23222,-0.0126 -2.44789,0.22902 -3.1857,0.72566 -1.01141,0.68086 -1.46126,1.62839 -1.44407,3.04781 0.0313,2.57416 1.42275,3.654 4.70961,3.62836 1.8178,-0.0142 2.07311,0.0329 2.68494,0.55877 l 0.67489,0.58053 0.54422,-0.50797 0.53707,-0.50796 -0.47897,-0.50798 -0.47889,-0.51522 0.47889,-0.78373 c 0.90821,-1.48961 0.49335,-4.09056 -0.78371,-4.9273 -0.78166,-0.5122 -2.02602,-0.77835 -3.25828,-0.79097 z m 44.92629,0.0725 c -2.3061,0.0112 -3.1733,0.36539 -3.9476,1.61823 -0.4259,0.68889 -0.4994,1.08333 -0.421,2.31489 0.1014,1.5946 0.4195,2.14913 1.6981,2.93897 0.531,0.32798 1.1538,0.42745 2.6197,0.42815 2.2979,7.5e-4 3.3446,-0.37632 3.9912,-1.43683 0.713,-1.16941 0.6284,-1.34976 -0.6677,-1.34976 -0.9605,0 -1.2578,0.11128 -1.8432,0.69666 -1.7037,1.70374 -3.9445,0.0575 -3.2654,-2.40197 0.2641,-0.95647 0.7724,-1.31347 1.8939,-1.31347 0.7564,0 1.7998,0.68401 1.7998,1.17559 0,0.12273 0.5747,0.21769 1.2771,0.21769 1.4334,0 1.5301,-0.15599 0.82,-1.32071 -0.7323,-1.20096 -1.6852,-1.57846 -3.9549,-1.56744 z m -137.23885,0.0943 0,0.82001 0,0.81274 1.27718,0 1.27718,0 0,2.72853 0,2.72852 1.16108,0 1.16107,0 0,-2.72852 0,-2.72853 1.27718,0 c 0.70245,0 1.29202,-0.10447 1.30622,-0.23221 0.15254,-1.37302 0.42852,-1.26542 -3.69368,-1.33524 l -3.76623,-0.0653 z m 44.58522,0 0,0.82001 0,0.81274 1.27718,0 1.27719,0 0,2.72853 0,2.72852 1.16107,0 1.16107,0 0,-2.72852 0,-2.72853 1.27718,0 c 0.70242,0 1.29201,-0.10447 1.3062,-0.23221 0.15255,-1.37302 0.42851,-1.26542 -3.69367,-1.33524 l -3.76622,-0.0653 z m 22.98924,0 0,0.82001 0,0.81274 1.27718,0 1.27719,0 0,2.72853 0,2.72852 1.16108,-0.0799 1.16106,-0.0799 0,-2.64869 0,-2.6487 1.36426,0 c 1.34694,0 1.35725,-7.6e-4 1.24089,-0.60956 -0.18166,-0.95026 0.21236,-0.53333 1.65452,1.7416 1.09654,1.72972 1.31348,2.243 1.31348,3.12038 l 0,1.04497 1.16107,0.0799 1.16108,0.0799 0,-1.04497 c 0,-0.89815 0.22977,-1.39567 1.61823,-3.54128 l 1.61824,-2.4963 -1.357,0 -1.35699,0 -0.81275,1.54568 -0.81276,1.53842 -0.78371,-1.48037 -0.78373,-1.48762 -5.05067,-0.0581 -5.05067,-0.0653 z m -83.03124,0.008 -1.32072,3.07684 c -1.80134,4.20521 -1.70793,3.84555 -0.94338,3.93314 1.4185,0.16249 1.68675,0.0856 1.90126,-0.52975 0.19597,-0.56214 0.31974,-0.60653 1.74887,-0.64584 1.44784,-0.0398 1.55252,-0.0108 1.76338,0.54425 0.17418,0.45813 0.38763,0.59612 0.97965,0.60957 0.41825,0.01 0.99707,0.0625 1.28444,0.1161 0.28737,0.0535 0.52248,0.063 0.52248,0.0218 0,-0.0412 -0.63832,-1.53114 -1.41506,-3.30906 -0.77673,-1.77794 -1.46406,-3.36712 -1.53116,-3.52676 -0.0789,-0.18771 -0.62558,-0.29027 -1.55293,-0.29027 l -1.43683,0 z m 23.81651,0 0,3.47596 0,3.4687 1.10302,0.0871 c 0.60666,0.0478 1.12914,0.1076 1.16107,0.13061 0.032,0.023 0.0581,-1.58341 0.0581,-3.56304 l 0,-3.59932 -1.16108,0 -1.16107,0 z m 13.93288,0 0,3.48321 0,3.48323 1.04497,0 1.04497,0 0.029,-1.45135 c 0.0141,-0.79824 0.006,-1.66962 -0.0146,-1.94479 -0.0781,-0.9918 0.35684,-0.69298 1.85048,1.27718 l 1.52389,2.00285 1.32074,0.0725 1.32798,0.0725 0,-3.49773 0,-3.49772 -1.03772,0 -1.03772,0 -0.0653,2.23506 -0.0653,2.23506 -1.6255,-2.23506 -1.62551,-2.23506 -1.33523,0 -1.33524,0 z m 13.70067,0 0,2.80833 c 0,1.56016 0.11448,3.0049 0.25398,3.26553 0.13776,0.25743 0.58187,0.6148 0.98691,0.79098 0.42514,0.18493 1.55402,0.3213 2.67773,0.32655 1.59016,0.008 2.0975,-0.0828 2.75028,-0.4862 1.07367,-0.66356 1.2264,-1.19163 1.2264,-4.16534 l 0,-2.53985 -1.16108,0 -1.16107,0 0,2.43825 c 0,2.79202 -0.29071,3.36711 -1.6981,3.36711 -1.45595,0 -1.65914,-0.36484 -1.71982,-3.05507 -0.0298,-1.3195 -0.0557,-2.48034 -0.0581,-2.57613 -0.002,-0.0958 -0.47752,-0.17416 -1.05221,-0.17416 l -1.04496,0 z m 16.95166,0 0,3.47596 0,3.4687 1.10302,0.0871 c 0.60662,0.0478 1.1291,0.1076 1.16108,0.13061 0.0319,0.023 0.0581,-1.58341 0.0581,-3.56304 l 0,-3.59932 -1.16106,0 -1.16107,0 z m 3.94766,0 0,3.48321 0,3.48323 3.25099,0 3.25101,0 0,-0.68213 0,-0.68939 -2.14798,-0.0653 -2.148,-0.0725 -0.0653,-2.72852 -0.0653,-2.72853 -1.03771,0 -1.03769,0 z m 7.66307,0 -0.0218,2.78657 c -0.0127,1.53261 -0.0218,3.04782 -0.0218,3.36711 0,0.31929 0.009,0.63278 0.0218,0.69665 0.0127,0.0639 0.49113,0.11611 1.05947,0.11611 l 1.03045,0 0.0725,-3.48323 0.0653,-3.48321 -1.10301,0 -1.10303,0 z m 33.43895,0 0.008,2.84462 c 0.008,3.07124 0.10837,3.38858 1.29183,4.00571 0.913,0.47618 4.2875,0.48073 5.203,0.008 1.2323,-0.63729 1.3932,-1.12444 1.3932,-4.12181 l 0,-2.73578 -1.1609,0 -1.1612,0 0,2.43826 c 0,2.17322 -0.055,2.49373 -0.4933,2.93171 -0.3937,0.39357 -0.6732,0.47057 -1.4223,0.37009 -0.5147,-0.069 -1.0248,-0.26608 -1.1321,-0.43541 -0.1074,-0.16932 -0.1937,-1.43536 -0.196,-2.80834 l -0.01,-2.49631 -1.1612,0 -1.16091,0 z m 9.28853,0 0,3.54126 0,3.54128 3.5993,-0.0653 3.5994,-0.0725 0,-0.68214 0,-0.68938 -2.4528,0 -2.4529,0 0.072,-0.63859 0.073,-0.63859 2.0899,-0.0146 2.0899,-0.0146 0.072,-0.74019 0.073,-0.74018 -2.2206,0 c -2.1874,0 -2.2205,-0.004 -2.2205,-0.55151 0,-0.73369 0.3508,-0.84178 2.8083,-0.84178 l 2.0682,0 0,-0.69664 0,-0.69664 -3.5993,0 -3.5994,0 z m 8.1275,0 0,3.54126 0,3.54128 3.4759,-0.0436 c 2.7915,-0.0393 3.5983,-0.12564 4.0712,-0.43539 0.9964,-0.65296 1.0642,-2.24108 0.1304,-3.04056 -0.379,-0.32471 -0.3932,-0.4267 -0.1088,-0.71115 0.5623,-0.56217 0.4113,-1.8196 -0.2829,-2.3657 -0.5546,-0.43617 -0.9247,-0.48619 -3.9477,-0.48619 l -3.3381,0 z m 9.5208,0 0,3.54126 0,3.54128 3.5993,-0.0653 3.5994,-0.0725 0,-0.68214 0,-0.68938 -2.4528,0 -2.4527,0 0.072,-0.63859 0.072,-0.63859 2.1262,-0.0653 2.1189,-0.0653 0.1014,-0.68939 0.1015,-0.68938 -2.3003,0 -2.2931,0 0.072,-0.6386 0.072,-0.63858 2.3802,-0.0653 2.3803,-0.0653 0,-0.68938 0,-0.68938 -3.5994,0 -3.5993,0 z m 21.8282,0 0,3.47596 0,3.4687 1.103,0.0871 c 0.6066,0.0478 1.1291,0.1076 1.1611,0.13061 0.032,0.023 0.057,-1.58341 0.057,-3.56304 l 0,-3.59932 -1.1612,0 -1.161,0 z m 3.8315,0 0.072,3.47596 0.066,3.4687 0.9795,0.0725 0.9725,0.0653 0.066,-2.14798 c 0.037,-1.1814 0.141,-2.14393 0.2322,-2.14073 0.091,0.003 0.846,0.94217 1.6764,2.08268 l 1.5094,2.07541 1.3206,0.008 1.328,0.008 0.066,-3.25101 c 0.039,-1.79013 0.034,-3.35758 -0.011,-3.48323 -0.043,-0.12565 -0.5291,-0.23221 -1.0886,-0.23221 l -1.0232,0 -0.066,2.26409 -0.066,2.2641 -1.6255,-2.24958 -1.6255,-2.24958 -1.3933,-0.0146 -1.3933,-0.0146 z m -134.14746,1.357 c 1.11196,-0.0145 2.13349,0.81084 2.13349,2.09719 -2e-5,1.24471 -0.1707,1.61778 -0.94339,2.01736 -0.73123,0.37812 -1.47245,0.40885 -2.23505,0.10156 -1.21245,-0.4885 -1.48009,-2.73701 -0.4354,-3.63561 0.45642,-0.39261 0.97493,-0.57399 1.48035,-0.58054 z m 75.81082,0.0363 c 1.33502,0 2.13349,0.7809 2.13349,2.08993 0,1.09281 -0.15393,1.28384 -0.77648,0.95062 -0.40133,-0.21476 -0.5393,-0.16441 -0.85631,0.31929 -0.20688,0.31585 -0.30736,0.67942 -0.22495,0.81276 0.20763,0.33596 -0.53971,0.29081 -1.40779,-0.0871 -0.4082,-0.17769 -0.7878,-0.55337 -0.87081,-0.86355 -0.52174,-1.94901 0.26872,-3.22197 2.00285,-3.22197 z m 27.22724,0.0435 c 1.0334,0.0374 1.6377,0.42998 1.4295,0.97239 -0.1154,0.301 -0.4688,0.37736 -1.6764,0.37736 l -1.5311,0 0.072,-0.6386 c 0.068,-0.59085 0.1594,-0.64087 1.2338,-0.7039 0.1636,-0.01 0.324,-0.0126 0.4716,-0.008 z m -133.55976,0.30478 0.39913,0.92886 c 0.22108,0.51086 0.43588,1.13207 0.47893,1.37877 0.0638,0.36569 -0.0811,0.46397 -0.79098,0.537 -1.01631,0.10447 -1.05112,-0.0215 -0.47894,-1.69808 l 0.39186,-1.14655 z m 131.81086,2.42374 1.6836,0.0653 c 1.6227,0.0658 1.6834,0.0862 1.6834,0.64586 0,0.55958 -0.06,0.58733 -1.6834,0.6531 l -1.6836,0.0653 0,-0.71842 0,-0.71115 z m 52.4804,0.94337 0,0.98691 0,0.98691 1.045,0 1.045,0 0,-0.98691 0,-0.98691 -1.045,0 -1.045,0 z m -36.4431,6.72697 c -0.7563,0.0173 -1.494,0.14035 -2.1044,0.38461 -1.0751,0.43013 -1.3933,0.88648 -1.3933,2.0101 0,1.19224 0.6249,1.60164 3.0913,2.01737 2.0283,0.34185 2.1335,0.38503 2.1335,0.93611 -10e-5,0.51573 -0.1069,0.59022 -0.9724,0.6531 -0.7371,0.0535 -1.0904,-0.0454 -1.4514,-0.40636 -0.3657,-0.36575 -0.7772,-0.47896 -1.7561,-0.47896 -1.4994,0 -1.6279,0.29963 -0.6313,1.41507 0.5136,0.57491 0.8978,0.7482 1.9157,0.87805 2.8105,0.35848 5.417,-0.32315 5.7111,-1.49489 0.2272,-0.90535 -0.016,-1.7881 -0.6095,-2.22054 -0.3194,-0.23284 -1.5184,-0.57972 -2.6633,-0.77647 -2.2788,-0.39159 -2.6796,-0.60062 -2.2206,-1.15382 0.4376,-0.52712 1.931,-0.46687 2.4455,0.10157 0.3205,0.35407 0.7155,0.46442 1.6618,0.46442 1.4166,0 1.5707,-0.26816 0.6895,-1.21913 -0.6329,-0.68286 -2.0743,-1.08664 -3.5196,-1.11026 -0.1084,-10e-4 -0.2185,-0.002 -0.3265,0 z m -113.61102,0.029 c -0.75459,-0.006 -1.45801,0.0545 -1.90851,0.20319 -1.0086,0.33286 -1.61034,1.14981 -1.58196,2.148 0.0337,1.18277 0.70676,1.6178 3.12037,2.0246 2.04877,0.34533 2.15526,0.39191 2.15526,0.94338 0,0.52707 -0.10307,0.5892 -1.09577,0.6531 -0.89669,0.0578 -1.14185,-0.0153 -1.38604,-0.40636 -0.24432,-0.39123 -0.54254,-0.47895 -1.63999,-0.47895 -1.44642,0 -1.61255,0.19637 -0.97243,1.11027 0.49873,0.71204 1.15036,1.02069 2.52534,1.1901 2.61426,0.32209 5.09947,-0.37393 5.3845,-1.5094 0.22598,-0.90053 -0.0159,-1.78124 -0.61683,-2.22779 -0.34573,-0.2569 -1.44938,-0.5739 -2.65596,-0.76922 -2.30334,-0.37286 -2.81236,-0.65845 -2.11171,-1.17559 0.64094,-0.47303 1.67724,-0.4127 2.22057,0.13062 0.35181,0.35184 0.77402,0.46443 1.74161,0.46443 0.70242,0 1.27718,-0.0437 1.27718,-0.10156 -5e-5,-0.44605 -0.62673,-1.28578 -1.2264,-1.64001 -0.57354,-0.3388 -1.97159,-0.54719 -3.22923,-0.55877 z m 86.71042,0.0146 c -1.9435,0.0448 -3.1587,0.68832 -3.788,1.98835 -0.3944,0.81472 -0.4697,1.28288 -0.3629,2.18426 0.2801,2.36437 1.5758,3.24587 4.804,3.25101 1.759,0.003 2.0734,0.0649 2.6777,0.55877 0.3766,0.30775 0.7039,0.56143 0.7329,0.56601 0.029,0.004 0.2314,-0.25071 0.4427,-0.57328 0.3542,-0.54064 0.3537,-0.61853 0.011,-1.00143 -0.3477,-0.38398 -0.3391,-0.49028 0.1014,-1.33522 0.3587,-0.6876 0.4556,-1.22996 0.3919,-2.19879 -0.1499,-2.28129 -1.3364,-3.26349 -4.1291,-3.42516 -0.3077,-0.0178 -0.6004,-0.0209 -0.878,-0.0146 z m -18.97631,0.0581 c -1.15812,-4.6e-4 -2.29144,0.14712 -2.78657,0.44991 -1.25726,0.76872 -1.62551,1.49742 -1.62551,3.21472 -6e-5,1.78131 0.43541,2.59205 1.7561,3.26552 1.17311,0.59815 4.16408,0.56412 5.46432,-0.0653 1.2171,-0.58918 1.70662,-1.30475 1.87947,-2.7648 0.1828,-1.54296 -0.5318,-3.05207 -1.73434,-3.65012 -0.60962,-0.30323 -1.79546,-0.44951 -2.95347,-0.44992 z m 25.19531,0.1161 -0.029,1.69806 c -0.07,3.96745 -0.018,4.27763 0.8635,4.9128 0.3318,0.23899 1.1417,0.50448 1.7997,0.58779 1.5247,0.1931 3.4939,-0.064 4.2379,-0.5515 0.8459,-0.55421 1.0232,-1.2581 1.0232,-4.08554 l 0,-2.53984 -1.1611,0 -1.1611,0 0,2.43825 c 0,2.17194 -0.05,2.49473 -0.4861,2.93172 -0.3848,0.38479 -0.6708,0.46104 -1.3208,0.35557 -1.3818,-0.22424 -1.5534,-0.56925 -1.6037,-3.23649 l -0.043,-2.37294 -1.0595,-0.0653 -1.0594,-0.0725 z m -80.11406,0.0146 -3.51225,0.0653 -3.51224,0.0581 -0.029,3.42518 -0.029,3.41791 3.36711,0.0653 c 1.85188,0.0352 3.44549,0.0322 3.54127,-0.008 0.0957,-0.0395 0.17417,-0.37908 0.17417,-0.7547 l 0,-0.68939 -2.4528,0 -2.45274,0 0.0725,-0.63858 0.0725,-0.63859 2.26408,-0.0653 2.2641,-0.0653 0,-0.68939 0,-0.68938 -2.33668,0 -2.33664,0 0.0725,-0.63859 0.0725,-0.63859 2.38019,-0.0653 2.38021,-0.0653 0,-0.68938 0,-0.69665 z m 1.16107,0.008 0,3.4832 0,3.48323 1.04497,0 1.04497,0 0,-2.4818 c -6e-5,-1.39343 0.0845,-2.38782 0.19591,-2.26409 0.10926,0.12133 0.54464,1.23501 0.96516,2.47454 0.49201,1.45044 0.89982,2.2789 1.13929,2.3294 0.20462,0.0432 0.66914,0.0208 1.03772,-0.0508 0.61397,-0.11929 0.74034,-0.33181 1.5094,-2.53258 l 0.84176,-2.40197 0.0653,2.43825 0.0653,2.44551 0.63135,0.0798 c 0.34705,0.0467 0.86644,0.0562 1.15382,0.0146 0.51504,-0.0749 0.52248,-0.13037 0.52248,-3.54853 l 0,-3.4687 -1.74886,0 c -1.60205,0 -1.75945,0.0434 -1.93029,0.52248 -0.10253,0.28737 -0.48482,1.35595 -0.84902,2.37294 l -0.66037,1.8505 -0.79098,-2.37294 -0.79099,-2.37294 -1.7271,0 -1.71982,0 z m 11.61073,0 0,3.4687 c 0,2.23691 0.0875,3.48819 0.2467,3.54127 0.13564,0.0452 0.65813,0.048 1.16108,0 l 0.91436,-0.0871 0,-3.46145 0,-3.46145 -1.16106,0 -1.16108,0 z m 8.82416,0 0,3.4832 0,3.48323 1.16108,0 1.16107,0 0,-1.16108 0,-1.16107 1.40053,0 c 1.28811,0 1.41699,0.0539 1.62549,0.60231 0.12457,0.32761 0.22497,0.83896 0.22497,1.1393 -6e-5,0.30033 0.10898,0.58058 0.23947,0.62408 0.13047,0.0435 0.6997,0.0807 1.26994,0.0799 0.81044,-10e-4 1.014,-0.0832 0.9361,-0.35559 -0.0548,-0.19156 -0.16897,-0.83427 -0.254,-1.43682 -0.0849,-0.60255 -0.29849,-1.22173 -0.47891,-1.37152 -0.2776,-0.23033 -0.25925,-0.32417 0.13785,-0.6023 0.35861,-0.25119 0.4717,-0.58378 0.4717,-1.42232 0,-1.68413 -0.51395,-1.90125 -4.62253,-1.90125 l -3.27276,0 z m 9.28858,0 0,3.4832 0,3.47597 3.42517,0.0725 c 1.88379,0.0391 3.45124,0.0879 3.48322,0.11611 0.0319,0.0282 0.0581,-0.31494 0.0581,-0.76196 l 0,-0.81275 -2.32215,0 -2.32215,0 0,-0.69664 0,-0.69664 2.20604,0 2.20604,0 0,-0.69665 0,-0.69664 -2.20604,0 -2.20604,0 0,-0.69664 0,-0.69665 2.32215,0 2.32215,0 0,-0.69664 0,-0.69665 -3.48322,0 -3.48323,0 z m 8.12751,0 0,3.44693 c -4e-5,1.89447 0.0445,3.4913 0.10156,3.54853 0.0573,0.0572 0.52752,0.0639 1.04497,0.0146 l 0.9434,-0.0871 0,-2.43101 c -6e-5,-1.46068 0.086,-2.37452 0.21767,-2.29312 0.12043,0.0744 0.56202,1.1786 0.97967,2.45277 l 0.76193,2.3149 1.05224,0 1.05948,0 0.78373,-2.32215 c 0.43233,-1.2772 0.87744,-2.32215 0.98691,-2.32215 0.10944,0 0.19594,1.04495 0.19594,2.32215 l 0,2.32215 0.67486,0 c 0.37271,0 0.84295,0.0676 1.04497,0.14512 0.32527,0.12482 0.3701,-0.27385 0.3701,-3.48321 l 0,-3.62835 -1.71258,0 -1.71259,0 -0.77647,2.20603 c -0.42651,1.21331 -0.83041,2.20603 -0.89983,2.20603 -0.0694,0 -0.32078,-0.54861 -0.55152,-1.21912 -0.23074,-0.67052 -0.58397,-1.66324 -0.78371,-2.20604 l -0.36284,-0.9869 -1.70532,0 -1.71258,0 z m 21.82818,0 0,3.4832 0,3.48323 1.16109,0 1.16108,0 0,-1.16108 0,-1.16107 1.21911,0.008 c 1.53595,0.004 1.78135,0.16598 1.95925,1.2917 0.079,0.50053 0.2236,0.95932 0.3193,1.02318 0.3656,0.24374 2.3135,0.1232 2.2133,-0.13787 -0.055,-0.14332 -0.1715,-0.77029 -0.2612,-1.39329 -0.09,-0.62299 -0.3268,-1.32217 -0.5225,-1.54568 -0.2402,-0.2743 -0.2612,-0.40636 -0.072,-0.40636 0.3926,0 0.8991,-1.31673 0.7692,-1.9956 -0.059,-0.31139 -0.3682,-0.77064 -0.6893,-1.02321 -0.5201,-0.40905 -0.9472,-0.46442 -3.91865,-0.46442 l -3.33807,0 z m 28.56233,0 0,3.4832 0,3.48323 3.5631,0 3.5557,0 -0.1014,-0.69665 -0.1015,-0.69664 -2.3003,0 -2.2931,0 0,-0.69664 0,-0.69665 2.206,0 2.2061,0 0,-0.69665 0,-0.69663 -2.2061,0 -2.206,0 0,-0.69665 0,-0.69664 2.3222,0 2.3222,0 0,-0.69664 0,-0.69664 -3.4833,0 -3.4833,0 z m -26.24016,1.34247 1.41503,0.10157 c 1.71933,0.12436 2.26183,0.65536 1.47313,1.44407 -0.2421,0.24212 -0.78912,0.36284 -1.62554,0.36284 l -1.26262,0 0,-0.95063 0,-0.95789 z m -8.14932,0.0218 c 0.57707,0.0151 1.16282,0.21939 1.54567,0.6023 0.96621,0.96616 0.66559,3.0468 -0.51523,3.58481 -2.33004,1.06164 -4.29193,-1.72367 -2.56162,-3.6356 0.29917,-0.33048 0.77771,-0.51021 1.28445,-0.54426 0.0814,-0.005 0.16429,-0.01 0.24673,-0.008 z m 19.00528,0.0436 c 0.081,-0.005 0.161,-7e-4 0.2468,0 1.2663,0.009 1.8441,0.36238 2.119,1.32072 0.3631,1.26643 -0.2582,2.55468 -0.8056,1.66904 -0.098,-0.15983 -0.3571,-0.0642 -0.7112,0.2685 -0.4222,0.39667 -0.4942,0.59745 -0.2974,0.83452 0.1997,0.24085 0.1629,0.30169 -0.1742,0.29026 -1.3718,-0.0464 -2.1593,-0.84623 -2.1698,-2.21329 -0.011,-1.36794 0.5858,-2.09276 1.7924,-2.16975 z m -48.93194,0.0217 c 0.64236,-0.0228 1.37383,0.0685 1.6255,0.20319 0.58507,0.31315 0.58862,1.06767 0.006,1.37878 -0.24697,0.13221 -0.97844,0.23946 -1.62551,0.23946 l -1.17556,0 0,-0.88531 0,-0.89258 1.16832,-0.0435 z m -6.6036,2.05366 c -1.77136,0 -2.03341,0.14162 -1.81417,0.98691 0.0884,0.34081 0.38351,0.40637 1.82143,0.40637 l 1.71259,0 0,-0.69664 0,-0.69664 -1.71985,0 z m 117.32644,27.63353 c -0.059,0.002 -0.1813,0.0406 -0.3701,0.1161 -1.0977,0.43921 -7.9864,1.97491 -13.5628,3.02606 -7.1361,1.34515 -17.8589,2.93692 -27.2561,4.04198 -5.1512,0.60573 -6.9963,0.93311 -5.4281,0.95788 0.769,0.0122 17.1145,2.88405 17.2637,3.0333 0.066,0.0658 0.1286,3.16605 0.1379,6.89388 0.013,5.10209 0.089,6.77773 0.2975,6.77776 0.1531,3e-5 1.791,-0.30466 3.6429,-0.68213 3.4938,-0.71213 24.0659,-4.74554 25.6162,-5.02164 1.533,-0.27302 2.7689,0.0467 -13.0766,-3.33082 -7.0452,-1.50171 -7.6631,-1.68175 -7.6631,-2.19879 -10e-5,-0.18161 2.2666,-1.77245 5.0362,-3.54127 2.7694,-1.76882 6.035,-3.86809 7.2566,-4.65881 1.2217,-0.79072 3.5529,-2.27974 5.1813,-3.31631 2.2247,-1.41619 3.1827,-2.10576 2.9245,-2.09719 z m -183.59469,0.34107 c -0.0376,0.0368 1.32087,0.9619 3.0188,2.05364 1.69791,1.09175 4.28581,2.76869 5.75456,3.7227 7.95015,5.16383 10.16118,6.59326 10.73992,6.95918 0.35123,0.22205 0.63861,0.60034 0.63861,0.84177 0,0.38584 -1.23692,0.74236 -10.21745,2.94623 -5.61946,1.37902 -10.08668,2.57826 -9.92717,2.66321 0.15949,0.0849 2.32794,0.54057 4.81844,1.00868 2.49051,0.46811 8.9693,1.71977 14.39731,2.78658 5.42802,1.0668 10.05198,1.95302 10.2755,1.96657 0.37861,0.023 0.40637,-0.45619 0.40637,-7.00999 l 0,-7.03174 8.65001,-1.58922 c 4.75744,-0.87252 9.53819,-1.76404 10.62381,-1.98108 l 1.97383,-0.39187 -1.04496,-0.15239 c -9.67325,-1.40717 -50.02073,-6.8773 -50.10758,-6.79227 z m 54.11328,7.55423 c -0.0967,0 -4.14587,0.74405 -8.99832,1.64727 -4.8525,0.90321 -9.22018,1.69873 -9.70223,1.77064 -0.48206,0.072 -0.91811,0.20242 -0.9724,0.29026 -0.0873,0.14135 3.56193,0.62856 15.78335,2.09719 1.91577,0.23022 3.61379,0.42856 3.77349,0.44267 0.21912,0.0194 0.29026,-0.74635 0.29026,-3.11314 0,-1.72418 -0.0776,-3.13489 -0.17415,-3.13489 z m 77.14601,0.52247 c -0.1539,0.008 -0.2878,0.0236 -0.4208,0.0435 l -1.0813,0.15965 0,2.38746 c 0,1.31192 0.071,2.45792 0.1595,2.5471 0.09,0.0892 0.5857,0.10447 1.1032,0.0363 0.5175,-0.0682 5.0186,-0.5425 9.9997,-1.05947 4.981,-0.51699 9.1532,-0.96999 9.2668,-1.00142 0.1136,-0.0314 -0.8792,-0.23256 -2.2061,-0.44992 -1.3268,-0.21737 -3.8793,-0.64998 -5.6674,-0.96515 -8.1098,-1.42944 -10.0755,-1.74882 -11.1536,-1.69807 z m -100.42553,3.84606 0,9.51355 0,9.52079 0.7547,0.13787 c 1.58889,0.29162 14.0119,1.79581 19.44798,2.35119 9.39964,0.96033 16.22877,1.47255 27.1691,2.05365 3.40055,0.18061 19.01864,0.12767 23.33757,-0.0799 9.77631,-0.46969 23.59768,-1.59847 35.76098,-2.9172 5.5903,-0.60609 14.092,-1.62881 15.3843,-1.85045 l 0.7546,-0.12337 0,-9.28133 c 0,-5.10294 -0.035,-9.28133 -0.08,-9.28133 -0.098,0 -16.4107,1.74067 -20.8196,2.22055 -7.7094,0.83914 -19.6259,1.59425 -31.34891,1.98835 -12.39025,0.41651 -30.23692,0.0918 -40.86976,-0.74019 -5.3082,-0.41536 -27.42903,-2.99611 -28.96879,-3.38162 l -0.52248,-0.13063 z m 110.22933,5.87068 c 0.3999,-0.0298 0.3556,0.13573 -0.051,0.9216 -0.5333,1.03132 -1.1098,0.88726 -0.8201,-0.20319 0.1058,-0.39625 0.3458,-0.64951 0.6677,-0.69664 0.075,-0.011 0.1461,-0.0175 0.2032,-0.0217 z m 0.6459,1.66179 c 0.077,-0.003 0.1383,-10e-4 0.196,0 0.3838,0.0131 0.3919,0.14865 0.3919,0.49345 -10e-5,0.57908 -0.4828,0.83531 -1.5821,0.84177 -0.4491,0.002 -0.5258,0.10523 -0.4645,0.63859 0.07,0.6098 0.1224,0.64144 1.1757,0.56603 1.0401,-0.0745 1.1029,-0.0489 1.103,0.49346 -10e-5,0.50536 -0.1287,0.59225 -1.0668,0.73292 -0.9524,0.14285 -1.0497,0.21709 -0.9288,0.66762 0.075,0.27769 0.1355,0.6301 0.1379,0.78373 0,0.19852 0.3358,0.24287 1.161,0.14513 1.1219,-0.13287 1.161,-0.1215 1.1611,0.44265 -10e-5,0.46815 -0.1438,0.6093 -0.7257,0.72568 -0.3991,0.0799 -1.1086,0.14514 -1.5819,0.14514 l -0.8636,0 -0.3919,-3.16393 c -0.2161,-1.74248 -0.3686,-3.19387 -0.3338,-3.22198 0.035,-0.0282 0.7706,-0.11831 1.6328,-0.20318 0.4343,-0.0427 0.7524,-0.0771 0.9797,-0.0871 z m -3.5269,0.41363 c 0.5614,0.005 0.6314,0.16843 0.6314,0.57328 0,0.47203 -0.1132,0.58054 -0.6095,0.58054 -0.6104,0 -0.6099,2.3e-4 -0.4573,1.45133 0.084,0.79824 0.2136,2.0522 0.2904,2.78657 0.1283,1.22721 0.1003,1.33524 -0.3266,1.33524 -0.5177,0 -0.6466,-0.51802 -0.9071,-3.59932 -0.1456,-1.7229 -0.1561,-1.74161 -0.8127,-1.74161 -0.5415,0 -0.6604,-0.0963 -0.6604,-0.54426 0,-0.4879 0.134,-0.56631 1.2192,-0.69664 0.7833,-0.0941 1.2959,-0.14838 1.6326,-0.14513 z m -94.11936,0.22496 c 1.03737,0 1.38887,0.22404 1.75612,1.10301 0.44225,1.05844 0.4357,2.33206 -0.029,3.70093 -0.27222,0.80181 -0.30821,1.21051 -0.13062,1.49487 0.17532,0.28075 0.16386,0.5001 -0.0435,0.78373 -0.26299,0.35963 -0.31579,0.35827 -0.59505,0.0218 -0.16857,-0.20312 -0.55133,-0.3701 -0.84904,-0.3701 -1.45585,0 -2.27726,-1.04567 -2.24956,-2.87365 0.0344,-2.27853 0.91263,-3.86057 2.14072,-3.86057 z m 90.15726,0.23221 c 0.051,-0.003 0.1069,0 0.1742,0 0.3307,0 0.4862,0.20479 0.5806,0.7547 0.1608,0.93767 0.5852,4.79035 0.5878,5.34093 0,0.39088 -0.9201,0.61955 -0.9361,0.23222 -0.011,-0.0959 -0.1563,-1.42812 -0.3412,-2.96073 -0.3713,-3.07723 -0.4185,-3.34769 -0.066,-3.36712 z m -86.86996,0.23221 c 0.50537,0 0.53488,0.40705 0.20318,2.96074 -0.22842,1.75803 -0.16287,2.27221 0.32655,2.46003 0.59264,0.22741 0.87829,-0.28152 1.08124,-1.95932 0.36376,-3.00632 0.42257,-3.22924 0.94339,-3.22924 0.4154,0 0.46477,0.10807 0.35557,0.87082 -0.0686,0.47894 -0.19103,1.49777 -0.26849,2.26408 -0.18738,1.85045 -0.52095,2.86169 -1.04497,3.14217 -0.70818,0.37897 -1.37724,0.26279 -1.98109,-0.34107 -0.65482,-0.65485 -0.69504,-1.12835 -0.31203,-4.11456 0.22453,-1.75136 0.32532,-2.05365 0.69665,-2.05365 z m 18.07644,0 c 0.56785,0 0.5768,0.0909 0.0943,0.82726 -0.31517,0.48091 -1.01593,0.80673 -1.01593,0.4717 0,-0.5441 0.53293,-1.29896 0.92159,-1.29896 z m 65.30312,0 c 0.048,-0.002 0.1025,0 0.1669,0 0.5357,0 0.637,0.39448 0.849,3.20021 l 0.1596,2.15524 1.1321,-0.15239 c 1.0926,-0.14495 1.132,-0.12828 1.1321,0.43541 -10e-5,0.40867 -0.1566,0.62032 -0.5225,0.71841 -0.2874,0.077 -0.9579,0.14328 -1.4949,0.14513 -1.1183,0.004 -1.0285,0.25064 -1.4586,-3.75171 -0.2696,-2.50934 -0.3037,-2.73358 0.037,-2.7503 z m -1.4731,0.23221 c 0.5245,0 0.6389,0.37477 0.849,2.78659 0.072,0.83016 0.1884,2.00575 0.2613,2.61241 0.1193,0.99463 0.088,1.10302 -0.3339,1.10302 -0.522,0 -0.6291,-0.35038 -0.849,-2.78658 -0.076,-0.83016 -0.1971,-2.00575 -0.2685,-2.61241 -0.1171,-0.99386 -0.08,-1.10303 0.3411,-1.10303 z m -76.89936,0.23948 c 0.36397,-0.002 0.53547,0.17032 0.63134,0.63134 0.19502,0.93738 0.83454,5.3395 0.83454,5.74731 0,0.19242 -0.20026,0.34832 -0.44994,0.34832 -0.33485,0 -0.49696,-0.2131 -0.60957,-0.81275 -0.13745,-0.73333 -0.22483,-0.81275 -0.91432,-0.81275 -0.63618,0 -0.80418,0.11645 -1.00145,0.68213 -0.18712,0.53706 -0.34416,0.65317 -0.73292,0.55151 -0.27057,-0.0707 -0.45803,-0.20803 -0.42088,-0.30479 0.0372,-0.0968 0.53547,-1.48898 1.11029,-3.09862 0.9011,-2.52391 1.11837,-2.92928 1.55291,-2.9317 z m 74.22886,0.029 c 0.292,-0.004 0.5514,0.0198 0.7039,0.0581 0.7583,0.19034 1.2419,1.36762 0.9143,2.23507 -0.1952,0.51752 -0.172,0.72776 0.1307,1.03045 0.4883,0.48844 0.5072,2.30994 0.029,2.7648 -0.1916,0.1822 -0.9358,0.40116 -1.6546,0.4862 l -1.3062,0.15239 -0.1378,-1.00141 c -0.073,-0.55005 -0.1989,-1.73291 -0.2758,-2.62694 -0.077,-0.89403 -0.1898,-1.90015 -0.254,-2.24232 -0.1098,-0.58437 -0.05,-0.63487 0.9433,-0.78373 0.2907,-0.0436 0.6152,-0.0691 0.9071,-0.0725 z m -82.42891,0.19593 c -0.91078,0 -1.59477,2.64595 -0.97967,3.79525 0.26877,0.50217 0.27798,0.49407 0.49346,-0.15238 0.20581,-0.61741 0.23938,-0.62912 0.64583,-0.26125 0.40698,0.36825 0.43796,0.35412 0.60232,-0.27575 0.4109,-1.57462 0.0366,-3.10587 -0.76194,-3.10587 z m 11.27689,0.029 c 0.27339,0.016 0.27783,0.43099 0.21046,2.68498 l -0.0798,2.74303 0.8708,0.0725 c 0.7486,0.062 0.87081,0.15156 0.87081,0.63858 0,0.52481 -0.0813,0.56921 -1.10302,0.54426 -0.60673,-0.0148 -1.28596,-0.0794 -1.50939,-0.13788 -0.47504,-0.12412 -0.48354,-0.48157 -0.0943,-4.01296 0.22767,-2.06605 0.33149,-2.44839 0.69663,-2.51808 0.0504,-0.01 0.0989,-0.0168 0.13786,-0.0146 z m 30.10082,0.20319 0.59508,0 -0.41364,0.69665 c -0.49442,0.83696 -1.13152,0.95739 -0.9216,0.17415 0.077,-0.28737 0.14281,-0.60086 0.14514,-0.69664 0.002,-0.0959 0.26855,-0.17416 0.59502,-0.17416 z m 36.9367,0.0218 c 0.3875,-0.0259 0.4918,0.30313 1.7125,3.75172 0.8758,2.47424 0.877,2.4963 0.3629,2.4963 -0.3278,0 -0.6165,-0.21357 -0.7838,-0.58053 -0.2078,-0.45633 -0.4355,-0.58055 -1.0667,-0.58055 -0.7363,0 -0.8113,0.0627 -0.8781,0.7547 -0.056,0.58494 -0.1937,0.77561 -0.6096,0.83453 -0.491,0.0696 -0.5236,0.0108 -0.3918,-0.69664 0.079,-0.42497 0.3284,-1.92593 0.5516,-3.33083 0.3655,-2.30261 0.4555,-2.56008 0.9142,-2.62693 0.071,-0.0108 0.1333,-0.018 0.1888,-0.0218 z m -63.67041,0.21044 c 0.49154,0 0.48568,0.0121 0.20319,2.72853 -0.15595,1.50068 -0.28373,2.96363 -0.29026,3.25101 -0.009,0.36377 -0.15566,0.52247 -0.47892,0.52247 -0.55839,0 -0.5671,-0.2143 -0.19595,-3.87508 0.24731,-2.43945 0.30341,-2.62693 0.76194,-2.62693 z m 61.07241,0.0146 c 0.6208,0.0162 0.8248,0.10772 0.9144,0.34106 0.208,0.54226 -0.021,0.80551 -0.6967,0.80551 -0.4433,0 -0.5582,0.0971 -0.4716,0.40637 0.063,0.22351 0.19,1.42522 0.2757,2.67047 0.1485,2.15951 0.1299,2.26409 -0.3121,2.26409 -0.3977,0 -0.4833,-0.20506 -0.6095,-1.45134 -0.372,-3.67781 -0.3645,-3.65738 -0.9361,-3.65738 -0.384,0 -0.565,-0.15718 -0.6458,-0.58054 -0.062,-0.32234 -0.05,-0.62494 0.029,-0.66762 0.079,-0.0426 0.8383,-0.097 1.6836,-0.12336 0.3111,-0.01 0.5623,-0.0126 0.7691,-0.008 z m -59.71539,0.10157 c 0.0599,-10e-4 0.12273,-10e-4 0.19594,0 0.19507,0.004 0.43736,0.0194 0.74743,0.0436 1.90146,0.1475 1.96805,0.18148 1.8432,0.83452 -0.0846,0.44261 -0.21741,0.53768 -0.63858,0.45717 -0.58518,-0.11186 -0.59879,-0.0702 -0.95789,3.71544 -0.12593,1.3277 -0.21735,1.56745 -0.58779,1.56745 -0.49261,0 -0.50626,-0.21748 -0.23947,-3.42517 0.13735,-1.65166 0.11025,-1.91577 -0.20319,-1.91577 -0.52573,0 -0.88195,-0.43499 -0.7547,-0.9216 0.0627,-0.23951 0.17628,-0.34186 0.59505,-0.35558 z m 55.36139,0.1161 c 0.7377,0 1.3089,0.48696 1.5601,1.31347 0.2246,0.73856 -0.5386,0.95179 -1.0376,0.29027 -0.2438,-0.32342 -0.5305,-0.46172 -0.7691,-0.37009 -0.696,0.26702 -0.3982,0.8701 0.653,1.32072 0.5658,0.24251 1.1478,0.6681 1.299,0.95063 0.3849,0.71939 0.1521,2.48167 -0.3847,2.88816 -0.5412,0.40991 -1.4993,0.43318 -2.0028,0.0508 -0.3598,-0.27315 -0.8708,-1.33493 -0.8708,-1.81419 0,-0.41154 0.8974,-0.20986 1.0377,0.23222 0.1918,0.60426 0.8294,0.80342 1.2408,0.39185 0.4996,-0.49949 0.1806,-1.01761 -0.8852,-1.44407 -1.1038,-0.44162 -1.3933,-0.88326 -1.3933,-2.12621 -10e-5,-1.08727 0.5481,-1.68357 1.5529,-1.68357 z m -51.80561,0.13789 c 0.26483,-0.006 0.79673,0.0238 1.37154,0.0799 1.29514,0.12601 1.39328,0.17148 1.39328,0.71115 0,0.5486 -0.0607,0.58093 -1.10301,0.50797 -1.09399,-0.0766 -1.10302,-0.0715 -1.10302,0.63858 0,0.68031 0.046,0.71116 0.92885,0.71116 0.85899,0 0.92886,0.0537 0.92886,0.64586 0,0.61632 -0.0392,0.63876 -1.04496,0.55875 l -1.04497,-0.0871 0,0.83453 0,0.83451 1.04497,0 c 1.00618,0 1.04496,0.0258 1.04496,0.69665 0,0.38315 -0.0785,0.67772 -0.17415,0.6531 -0.0959,-0.0246 -0.83487,-0.0776 -1.64729,-0.12336 l -1.48037,-0.0871 0.13788,-1.43682 c 0.0744,-0.79177 0.20039,-2.25209 0.28301,-3.24375 0.0826,-0.99165 0.21688,-1.8387 0.29754,-1.87948 0.02,-0.01 0.0786,-0.0125 0.16688,-0.0146 z m 62.66891,0.196 c -0.071,0.005 -0.1448,0.0183 -0.2104,0.0436 -0.2008,0.0771 -0.3628,0.39102 -0.3628,0.69665 -1e-4,0.46262 0.1165,0.55151 0.6965,0.55151 0.3832,0 0.6967,-0.0409 0.6967,-0.0943 -10e-5,-0.0534 0.064,-0.25043 0.1379,-0.44266 0.1418,-0.3696 -0.4554,-0.79069 -0.9579,-0.75469 z m -18.51183,0.30477 c 0.0957,-0.0319 0.20706,0.22978 0.2467,0.57328 0.0675,0.58342 0.006,0.6293 -0.92886,0.69665 -0.91097,0.0656 -1.00421,0.12957 -1.07398,0.74019 -0.0762,0.66772 -0.0715,0.67081 0.9869,0.5515 1.04456,-0.11773 1.0595,-0.11196 1.0595,0.54426 0,0.63703 -0.0487,0.66761 -1.04495,0.66761 -0.87539,0 -1.04497,0.0768 -1.04497,0.44992 0,0.97726 0.24784,1.17558 1.42231,1.17558 1.04679,0 1.13205,0.0487 1.13205,0.56603 0,0.53268 -0.0846,0.56544 -1.61826,0.63858 l -1.61099,0.0725 -0.11611,-1.16107 c -0.0637,-0.63859 -0.1805,-2.12767 -0.25397,-3.30906 l -0.13065,-2.14798 1.40056,0 c 0.77089,0 1.47886,-0.0261 1.57472,-0.0581 z m -35.43451,0.0799 c 0.25961,-0.003 0.82849,0.0341 1.45859,0.10156 1.40911,0.1509 1.52393,0.20792 1.52393,0.71842 0,0.50936 -0.0926,0.55151 -1.16107,0.55151 -1.06903,0 -1.16108,0.0486 -1.16108,0.55877 0,0.47876 0.14219,0.57577 1.04497,0.71115 0.90236,0.13533 1.04497,0.23308 1.04497,0.71116 0,0.49567 -0.11549,0.5607 -1.10303,0.62407 -1.00563,0.0645 -1.10947,0.12354 -1.17561,0.69665 -0.0684,0.59339 -0.006,0.63653 1.10303,0.78372 1.04849,0.13908 1.17561,0.22077 1.17561,0.72567 -10e-5,0.55328 -0.0394,0.5594 -1.65454,0.49346 l -1.64728,-0.0653 0.16692,-3.25826 c 0.0913,-1.79139 0.19821,-3.28766 0.23945,-3.33083 0.01,-0.0108 0.0586,-0.0207 0.14514,-0.0218 z m 3.22198,0.21044 0.58778,0 c 0.35169,0 0.63409,0.16121 0.71118,0.40638 0.0702,0.2235 0.23251,0.66763 0.36281,0.98691 l 0.23948,0.58054 0.34833,-0.8708 c 0.26739,-0.66632 0.48179,-0.8708 0.9071,-0.8708 0.30561,0 0.5515,0.0492 0.5515,0.10156 0,0.0523 -0.30387,0.73212 -0.67488,1.51664 l -0.67488,1.42958 0.55877,1.42231 c 0.6803,1.73592 0.69203,2.03188 0.0871,2.03188 -0.30231,0 -0.54865,-0.22798 -0.69664,-0.63859 -0.59468,-1.65013 -0.5802,-1.63904 -1.10302,-0.45717 -0.26781,0.60543 -0.51961,1.08881 -0.55877,1.07399 -0.0391,-0.0148 -0.25737,-0.0785 -0.4862,-0.13787 -0.48537,-0.12608 -0.40326,-0.51623 0.46444,-2.24233 l 0.56602,-1.13204 -0.59506,-1.59649 -0.59504,-1.60373 z m 27.14732,0 c 0.68404,0 0.91758,0.12752 1.24091,0.67488 0.49406,0.8364 0.49942,1.09667 0.029,1.27718 -0.2261,0.0868 -0.53488,-0.0567 -0.79823,-0.37735 -0.3477,-0.42343 -0.5082,-0.47595 -0.84905,-0.2685 -0.49937,0.30407 -0.69685,2.42467 -0.31929,3.41791 0.32847,0.86374 1.12819,0.83445 1.43685,-0.0508 0.17607,-0.50519 0.3431,-0.64018 0.68211,-0.5515 0.53966,0.14111 0.55549,0.29824 0.11611,1.34974 -0.19831,0.47479 -0.58621,0.90193 -0.94335,1.03771 -0.33391,0.12691 -0.6295,0.21855 -0.65313,0.21044 -1.15445,-0.39578 -1.58798,-1.05739 -1.89399,-2.91719 -0.17813,-1.08259 0.19643,-2.77885 0.74745,-3.39614 0.21928,-0.24576 0.69495,-0.40638 1.20459,-0.40638 z m -19.25928,0.19594 1.56745,0.0871 c 1.50817,0.0821 1.56934,0.10361 1.64,0.71116 0.0715,0.61372 0.0405,0.63133 -1.10302,0.63133 -1.10007,0 -1.17556,0.0377 -1.17556,0.58054 0,0.53323 0.085,0.58054 1.04496,0.58054 0.95973,0 1.04497,0.0473 1.04497,0.58053 0,0.53324 -0.0853,0.58054 -1.04497,0.58054 -1.03644,0 -1.04496,0.0121 -1.04496,0.80549 0,0.78968 0.0141,0.80094 1.10302,0.87081 1.00278,0.0643 1.10302,0.11801 1.10302,0.64584 0,0.537 -0.0871,0.58328 -1.16108,0.61683 -2.07393,0.0648 -1.97383,0.24007 -1.97383,-3.43968 l 0,-3.25101 z m -2.55436,0.029 c 0.60703,0.017 1.26811,0.15054 1.49487,0.37736 0.48904,0.48889 0.67852,1.35321 0.50072,2.24231 -0.20878,1.04384 -0.77429,1.56746 -1.68356,1.56746 l -0.77645,0 0,1.16107 c 0,1.02767 -0.0584,1.16107 -0.49346,1.16107 -0.4821,0 -0.489,-0.0574 -0.35559,-2.96073 0.0748,-1.62842 0.14119,-3.09137 0.14514,-3.25101 0.005,-0.22032 0.56115,-0.31447 1.16833,-0.29753 z m 16.226,0.008 c 0.32413,0 0.65037,0.49199 1.26991,1.91577 l 0.83451,1.91577 0.006,-1.91577 c 0.005,-1.47921 0.0841,-1.91577 0.33381,-1.91577 0.49275,0 0.56066,0.41197 0.62407,3.5195 0.0553,2.71059 0.0367,2.87434 -0.3991,2.93896 -0.37568,0.0557 -0.62518,-0.29041 -1.32799,-1.85771 l -0.86357,-1.93029 0.13789,1.91577 c 0.12503,1.77802 0.0997,1.91577 -0.31204,1.91577 -0.52899,0 -0.73696,-1.24842 -0.74017,-4.47013 -0.002,-1.83396 0.0416,-2.03187 0.4354,-2.03187 z m -1.84323,0.029 c 0.64438,0.002 0.71119,0.0993 0.71119,0.42815 0,0.73304 -0.073,0.82473 -0.69665,0.84903 -1.31533,0.0513 -1.39329,0.0826 -1.39329,0.66761 0,0.53324 0.0851,0.58054 1.04497,0.58054 0.95972,0 1.04497,0.0473 1.04497,0.58054 0,0.53323 -0.0853,0.58054 -1.04497,0.58054 -1.03949,0 -1.04497,0.004 -1.04497,0.81276 l 0,0.81274 1.16108,0 c 1.0836,0 1.16107,0.0387 1.16107,0.58054 0,0.44416 -0.12279,0.58715 -0.52248,0.59505 -0.28744,0.005 -1.01889,0.0432 -1.6255,0.0871 l -1.10302,0.0799 -0.0363,-2.98977 c -0.019,-1.64605 -0.0452,-3.12764 -0.0581,-3.28728 -0.0161,-0.19972 0.46718,-0.30834 1.54569,-0.35558 0.3616,-0.0158 0.64152,-0.0227 0.85626,-0.0218 z m -7.99687,0.0943 0.92887,0.0363 c 0.5108,0.0194 1.17235,0.0463 1.46583,0.0581 1.06194,0.0424 1.4218,2.72969 0.44994,3.3526 -0.25715,0.16475 -0.21803,0.40185 0.21768,1.26267 0.65579,1.29522 0.68984,1.90126 0.10167,1.90126 -0.29798,0 -0.64642,-0.42173 -1.10302,-1.33523 -0.68244,-1.36487 -1.10933,-1.55696 -1.16108,-0.52249 -0.0161,0.3193 -0.0421,0.86791 -0.0581,1.21912 -0.0216,0.47714 -0.14896,0.6386 -0.50073,0.6386 -0.45391,0 -0.4685,-0.11288 -0.40638,-3.30181 l 0.0653,-3.30905 z m 4.52819,0.10885 c 0.44228,0 0.46444,0.1548 0.46444,3.25101 0,3.09619 -0.0223,3.25099 -0.46444,3.25099 -0.44244,0 -0.46442,-0.1548 -0.46442,-3.25099 0,-3.09621 0.022,-3.25101 0.46442,-3.25101 z m 30.55069,0.1161 -0.1378,0.81276 c -0.073,0.447 -0.1015,0.88944 -0.058,0.97965 0.068,0.14161 0.762,0.003 0.762,-0.15239 -10e-5,-0.0311 -0.1264,-0.41488 -0.2831,-0.84903 l -0.283,-0.79099 z m -70.28116,0.008 c -0.25121,0.0226 -0.6983,1.17401 -0.50071,1.37151 0.0746,0.0748 0.27234,0.13062 0.44265,0.13062 0.3503,0 0.43798,-1.28698 0.10156,-1.49488 -0.0148,-0.009 -0.0268,-0.009 -0.0435,-0.008 z m 28.99779,0.79822 c -0.26692,-0.006 -0.41362,0.30668 -0.41362,0.93613 0,0.59017 0.10577,0.93118 0.29028,0.92885 0.7878,-0.01 1.25272,-0.97499 0.72566,-1.50214 -0.24166,-0.24156 -0.44216,-0.35864 -0.60232,-0.36284 z m 7.34378,0.26125 c -0.31169,0.0122 -0.32211,0.16071 -0.28301,0.67488 0.05,0.65528 0.12314,0.71569 0.76196,0.65309 0.57822,-0.0567 0.70391,-0.1766 0.70391,-0.65309 0,-0.48601 -0.12609,-0.59189 -0.76196,-0.65311 -0.18013,-0.0174 -0.317,-0.0259 -0.4209,-0.0217 z m 38.22829,0.23222 c -0.5513,0.0108 -0.7726,0.37325 -0.6096,1.02319 0.1257,0.50039 0.2685,0.60368 0.7838,0.54426 0.5295,-0.0611 0.6314,-0.19133 0.6314,-0.77647 0,-0.5558 -0.1135,-0.7072 -0.5515,-0.76921 -0.092,-0.0131 -0.1754,-0.0233 -0.2541,-0.0218 z m -57.72706,1.1393 c 0.43953,0 0.84396,0.0784 0.89259,0.17416 0.0486,0.0958 0.0222,0.4354 -0.0508,0.7547 -0.11288,0.49402 -0.24315,0.56989 -0.88529,0.50797 -0.6637,-0.064 -0.75469,-0.15508 -0.75469,-0.7547 0,-0.62231 0.0691,-0.68213 0.79821,-0.68213 z m 42.13974,0 c 0.84995,0 0.95057,0.0655 0.95057,0.55877 0,0.37764 -0.16595,0.59384 -0.52247,0.68938 -0.81969,0.21966 -1.10299,0.1742 -1.10299,-0.18141 0,-0.18114 -0.0601,-0.49463 -0.13788,-0.69665 -0.11446,-0.2982 0.0388,-0.37009 0.81277,-0.37009 z"
       id="path3286"
       inkscape:connector-curvature="0" />
    <path
       style="fill:#f5002f;fill-opacity:1"
       d="m 938.80771,659.30856 c -0.35681,0.0918 -2.62451,1.47087 -3.64284,2.22782 -1.24629,0.92632 -4.90794,4.66285 -5.68926,5.80537 -0.39311,0.57472 -1.50703,3.18714 -2.47455,5.80535 -3.65513,9.89107 -4.19047,11.35582 -5.40625,14.73112 -0.86162,2.39212 -1.20931,3.65043 -1.11027,4.06376 0.4472,1.86607 2.11909,3.7136 4.26695,4.7096 3.2693,1.51604 7.30796,1.91658 17.62652,1.74887 9.78787,-0.15909 14.93454,-0.72976 32.06015,-3.53402 17.41314,-2.85135 24.70379,-3.65484 33.32284,-3.6719 4.7452,-0.01 13.2202,0.58496 13.9837,0.97966 0.204,0.10556 0.04,0.6317 -0.5807,1.87949 -1.4514,2.91546 -4.3008,6.3897 -7.0171,8.5484 -0.5749,0.45673 -1.1463,0.91135 -1.27,1.01595 -0.8676,0.73335 5.307,-2.20307 7.3076,-3.47598 2.4592,-1.56474 4.8823,-4.08853 5.9723,-6.21174 1.4288,-2.78344 8.1675,-19.51954 9.3611,-23.25048 0.6344,-1.98324 0.5003,-2.51814 -1.0087,-3.96942 -1.9001,-1.82742 -5.0499,-2.66571 -11.6542,-3.10587 -9.0709,-0.60452 -21.0926,0.22038 -34.13563,2.34391 -3.47299,0.56543 -10.92302,1.77001 -13.70068,2.2133 -12.17748,1.94343 -21.88908,2.82295 -28.7946,2.60516 -5.18719,-0.1636 -12.42348,-0.86773 -12.42348,-1.20462 0,-0.41547 1.3091,-3.6855 2.10442,-5.26111 0.4045,-0.80122 1.25018,-2.23537 1.87951,-3.1857 0.62931,-0.95031 1.10941,-1.76416 1.06673,-1.80692 -0.006,-0.006 -0.0198,-0.006 -0.0436,0 z m 79.62789,8.3815 0.4063,3.01153 c 0.2231,1.65252 0.4391,3.10231 0.479,3.22198 0.066,0.19971 1.7922,-2.08441 3.6211,-4.78216 0.5133,-0.75721 0.9117,-1.09669 1.2626,-1.09576 0.7167,10e-4 5.7468,0.86297 5.8925,1.00868 0.1316,0.13148 -1.0772,1.64699 -4.1219,5.16678 -1.0938,1.26476 -2.7157,3.18814 -3.6066,4.28144 l -1.6181,1.98835 -0.9143,3.41064 -0.9072,3.41066 -3.0332,-0.14513 c -1.6657,-0.0807 -3.0635,-0.17517 -3.106,-0.21046 -0.042,-0.0353 0.3496,-1.59439 0.8708,-3.46145 0.5213,-1.86703 0.9507,-3.58613 0.9507,-3.81701 -10e-5,-0.37519 -1.7111,-7.53419 -2.3657,-9.89815 l -0.254,-0.92886 -0.5079,1.85771 -0.5153,1.85772 -2.0101,0.14513 c -1.1082,0.0765 -2.0556,0.18108 -2.1045,0.23221 -0.049,0.0512 -0.9835,3.2103 -2.0753,7.02451 -1.092,3.81421 -2.0371,6.98598 -2.0973,7.04626 -0.06,0.0602 -1.1319,0.19986 -2.3874,0.31203 -1.25558,0.11216 -2.6633,0.20589 -3.12759,0.21045 l -0.84912,0.008 2.03917,-7.02449 c 1.11873,-3.86348 1.95384,-7.05237 1.85774,-7.0898 -0.096,-0.0375 -0.99964,0.0351 -2.00285,0.15965 -1.00335,0.12455 -1.85292,0.19351 -1.89406,0.15239 -0.041,-0.0411 0.0814,-0.58387 0.27576,-1.20461 0.19439,-0.62075 0.51776,-1.71891 0.71846,-2.43826 0.32163,-1.1534 0.44528,-1.32123 1.05948,-1.44409 2.03501,-0.40699 9.83541,-0.90212 14.61491,-0.92885 l 5.4499,-0.0363 z m -22.35792,1.31348 c 0.0487,10e-4 0.0722,0.006 0.0798,0.0146 0.0586,0.0588 -0.45874,2.03116 -1.15378,4.38305 -0.69499,2.35189 -1.95455,6.62728 -2.8011,9.49903 -0.84662,2.87175 -1.57707,5.25622 -1.61825,5.29739 -0.0412,0.0412 -1.0993,0.22529 -2.35841,0.40638 -1.25925,0.1811 -2.68503,0.38142 -3.16393,0.44992 -0.47901,0.0685 -0.8708,0.0381 -0.8708,-0.0725 0,-0.11069 1.00755,-3.59095 2.23507,-7.7284 1.22741,-4.13744 2.48958,-8.42641 2.80833,-9.52805 l 0.58054,-2.00285 3.12037,-0.40638 c 1.50142,-0.19555 2.8014,-0.32261 3.14219,-0.31204 z m -14.49167,2.06814 c 0.0929,-1.2e-4 0.15164,0.006 0.16692,0.0218 0.0609,0.061 0.0125,0.42354 -0.10167,0.79824 -1.72793,5.68028 -3.96214,13.1591 -3.96214,13.258 0,0.0703 0.2351,0.0699 0.52249,0 1.04848,-0.25497 5.58206,-0.86913 5.68198,-0.76921 0.0875,0.0875 -1.27204,4.79034 -1.43682,4.97085 -0.0317,0.0349 -1.34879,0.26773 -2.9317,0.51522 -1.58295,0.24751 -4.24612,0.66114 -5.91424,0.92161 -3.79057,0.5919 -4.11532,0.59553 -3.96214,0.0653 0.0646,-0.22351 1.32447,-4.3783 2.80107,-9.23779 1.47672,-4.85949 2.685,-8.96508 2.685,-9.12168 0,-0.35992 0.72417,-0.63079 2.20604,-0.82727 0.63853,-0.0846 1.8657,-0.27599 2.72852,-0.42088 0.64709,-0.10866 1.23792,-0.17378 1.51664,-0.17417 z m -8.60645,1.40056 c 0.30152,-0.003 0.45716,0.0258 0.4717,0.0871 0.0611,0.25931 -5.59691,18.86215 -5.79813,19.06336 -0.0652,0.0652 -1.51165,0.32166 -3.22197,0.57328 -3.63065,0.53415 -3.22923,0.49509 -3.22923,0.31204 0,-0.10135 5.67163,-18.61448 5.90694,-19.28107 0.008,-0.0217 1.42556,-0.23868 3.14944,-0.47894 1.31247,-0.18294 2.21872,-0.2713 2.72125,-0.27575 z m -7.84451,0.94336 c 0.33074,-0.0209 0.47897,0.0393 0.47897,0.18868 0,0.1564 -0.32065,1.31193 -0.71119,2.56887 l -0.71114,2.28586 -1.32074,0.14514 c -2.61109,0.27834 -2.76628,0.32566 -3.02603,0.99418 -0.13527,0.34809 -1.16385,3.57673 -2.28588,7.16962 l -2.03912,6.53103 -1.97382,0.15239 c -1.08782,0.0849 -2.5297,0.21478 -3.2002,0.29027 -0.67057,0.0754 -1.21913,0.0697 -1.21913,-0.0146 0,-0.0843 0.99267,-3.26927 2.20604,-7.07529 1.21325,-3.80602 2.20604,-6.98047 2.20604,-7.06077 0,-0.0803 -0.89538,-0.0844 -1.98837,-0.008 l -1.98831,0.13788 0.1669,-0.67487 c 0.0919,-0.37071 0.44915,-1.51084 0.79099,-2.53258 l 0.62406,-1.85773 2.41649,-0.1669 c 3.4985,-0.24687 10.16707,-0.85658 11.1826,-1.02319 0.15241,-0.025 0.28162,-0.0438 0.39184,-0.0508 z m -31.51587,0.19594 c 0.49079,0 6.33512,0.76649 6.4222,0.84177 0.0492,0.0426 -0.7971,2.04246 -1.88675,4.44111 -2.32347,5.11436 -3.71344,8.73496 -3.61386,9.43372 0.0627,0.43938 0.28377,0.51848 1.87225,0.69664 2.53818,0.28469 3.08699,0.0329 3.56303,-1.67629 0.2001,-0.71845 0.45805,-1.62696 0.57328,-2.01012 0.38909,-1.2935 1.80577,-8.11717 1.96657,-9.46274 l 0.15965,-1.33523 3.48322,0 3.48322,0 -0.1524,0.63859 c -0.0838,0.35122 -1.18616,3.82978 -2.45275,7.72839 -1.53812,4.73417 -2.54412,7.45073 -3.02605,8.17831 -0.89542,1.35183 -2.30135,2.41333 -3.80252,2.85914 -0.72026,0.2139 -2.02231,0.32463 -3.49048,0.30477 -2.48596,-0.0336 -2.74759,-0.0575 -4.8257,-0.46442 -2.36246,-0.46253 -3.6204,-2.25032 -3.35988,-4.77492 0.15701,-1.52086 4.74134,-15.39872 5.08697,-15.39872 z m 89.70012,12.07516 c 1.8024,0 2.7056,2.31605 1.4078,3.61383 -0.3934,0.39353 -0.8321,0.56603 -1.4078,0.56603 -1.1844,0 -1.9738,-0.83582 -1.9737,-2.08993 -10e-5,-1.25412 0.7892,-2.08993 1.9737,-2.08993 z m 0,0.52248 c -0.231,-10e-4 -0.4718,0.0607 -0.7112,0.18868 -0.9325,0.49911 -1.0345,1.81 -0.2032,2.64144 0.3804,0.38019 1.1583,0.48942 1.3353,0.18867 0.1563,-0.26534 -0.2577,-1.21914 -0.5297,-1.21914 -0.1318,0 -0.2395,0.26823 -0.2395,0.59507 -10e-5,0.33702 -0.1004,0.5313 -0.2322,0.4499 -0.342,-0.21131 -0.2919,-2.36317 0.057,-2.49629 0.1596,-0.0608 0.5188,-0.0241 0.7982,0.0798 0.4129,0.15351 0.5041,0.36498 0.4935,1.13931 -0.016,1.18334 0.1728,1.40741 0.5297,0.62407 0.498,-1.0928 -0.2982,-2.18656 -1.299,-2.19153 z m -0.1306,0.8708 c -0.1201,0 -0.2177,0.10447 -0.2177,0.23222 -10e-5,0.12771 0.1637,0.23221 0.3629,0.23221 0.1993,0 0.2966,-0.10448 0.2177,-0.23221 -0.079,-0.12771 -0.2427,-0.23222 -0.3629,-0.23222 z m -63.23492,73.62655 c -2.50037,-0.001 -5.04644,0.51794 -7.03176,1.49488 -2.98257,1.46767 -4.9546,4.22366 -5.74004,8.01866 -0.19625,0.9481 -0.31342,1.762 -0.26125,1.81418 0.10599,0.10598 5.70999,0.72742 6.61812,0.73293 0.52762,0.003 0.61402,-0.14682 0.97237,-1.63277 0.51165,-2.12146 1.13651,-3.09488 2.35845,-3.68641 3.89519,-1.88563 7.80991,0.38127 7.81548,4.52819 0.004,2.60703 -1.29301,4.7066 -5.29015,8.56291 -5.5722,5.37591 -7.64086,7.50904 -9.13618,9.44098 -1.46662,1.89479 -2.52534,3.53126 -2.52534,3.89685 0,0.1683 8.14936,0.67878 12.88792,0.80549 1.14944,0.0308 4.20596,0.0753 6.79228,0.10157 l 4.70234,0.0435 0,-1.04496 0,-1.05222 -7.43087,0.0653 c -4.08707,0.0354 -7.43094,0.0263 -7.43087,-0.0146 0,-0.44816 1.97164,-2.63195 4.47013,-4.95634 4.14023,-3.85168 5.71293,-5.46588 6.9882,-7.16236 2.58527,-3.43916 3.75652,-7.44333 3.17844,-10.87055 -0.31405,-1.8619 -1.56455,-4.60789 -2.05366,-4.5064 -0.17506,0.0364 -0.24347,-0.0486 -0.15238,-0.19594 0.18448,-0.29851 -1.49214,-2.11137 -1.78515,-1.93028 -0.10696,0.0661 -0.19592,0.01 -0.19592,-0.12336 -2e-5,-0.41387 -2.7027,-1.63297 -4.42661,-1.9956 -1.06199,-0.2234 -2.18704,-0.33296 -3.32355,-0.33381 z m 22.00957,0.68212 -1.87948,10.04329 c -1.03469,5.5238 -1.85634,10.07094 -1.8287,10.10133 0.0277,0.0304 1.37984,0.24979 3.0043,0.48621 2.09564,0.305 2.9962,0.35361 3.11312,0.17415 0.48293,-0.74114 2.54312,-1.98336 3.87508,-2.34391 3.58258,-0.96976 6.58351,0.8625 7.33651,4.47738 0.39774,1.90935 0.14807,4.78234 -0.55154,6.36414 -1.05654,2.38915 -2.58689,3.44873 -4.97081,3.43967 -2.49643,-0.01 -4.3228,-1.40199 -5.10871,-3.88958 -0.4456,-1.41039 -0.19766,-1.34963 -4.12906,-0.9724 -3.72035,0.35696 -3.61321,0.32094 -3.4397,1.21186 0.22396,1.14974 0.96244,3.21063 1.3788,3.84606 l 0.37735,0.57328 6.64714,-0.1669 c 3.65676,-0.0897 7.27412,-0.20236 8.04043,-0.25399 0.76631,-0.0516 2.72895,-0.16472 4.36125,-0.24673 2.06487,-0.10372 3.06897,-0.24602 3.29457,-0.47169 0.3792,-0.37916 1.1806,-2.44162 1.5529,-3.99844 0.4374,-1.82808 0.3038,-5.50147 -0.2685,-7.3583 -1.3774,-4.46981 -4.75343,-7.58908 -9.17242,-8.48309 -1.77711,-0.35952 -4.47126,-0.13688 -5.86343,0.47894 -0.58234,0.25758 -1.10931,0.41461 -1.16834,0.35558 -0.059,-0.059 0.14409,-1.54655 0.44991,-3.30906 l 0.55876,-3.20747 7.01725,-0.0581 7.01727,-0.0581 0,-3.36711 0,-3.36712 -9.81836,0 -9.82559,0 z m 49.78095,0.23948 c -0.991,-0.0187 -1.9754,0.14999 -2.6848,0.49346 -2.5143,1.21709 -1.9136,4.35211 0.9795,5.0942 2.9822,0.76494 3.3817,0.92691 3.3817,1.37152 0,1.36878 -3.1798,1.54789 -3.6066,0.20318 -0.1047,-0.32816 -0.3676,-0.43085 -1.1103,-0.42815 -0.5342,10e-4 -1.1202,0.0973 -1.299,0.21046 -0.5258,0.33294 0.3938,1.63527 1.611,2.28586 0.8889,0.47508 1.2937,0.54323 2.7938,0.47894 2.2551,-0.0966 3.5485,-0.84246 3.9332,-2.27135 0.469,-1.74174 -0.6021,-3.06025 -2.9027,-3.58481 -2.3879,-0.54451 -3.1349,-0.85813 -3.1349,-1.31347 0,-1.00519 2.5095,-1.18335 3.2873,-0.23221 0.3232,0.39515 0.5545,0.44949 1.4514,0.32656 0.5868,-0.0804 1.0666,-0.25438 1.0666,-0.38461 0,-0.57716 -1.2261,-1.78435 -2.039,-2.01012 -0.5415,-0.15039 -1.1325,-0.22831 -1.7272,-0.23946 z m -9.9924,0.008 c -0.8059,0.0277 -1.6196,0.29825 -2.2569,0.83452 l -0.7038,0.5878 0,-0.60231 c 0,-0.56661 -0.067,-0.60231 -1.1611,-0.60231 l -1.1611,0 0,4.64429 0,4.64429 1.2771,0 1.2773,0 0,-3.03329 c 0,-3.04 0.1468,-3.74129 0.907,-4.32501 0.4197,-0.32225 1.6214,-0.3878 2.0609,-0.10885 0.5255,0.33353 0.7475,1.71918 0.7475,4.62252 l 0,2.84463 1.1611,0 1.1611,0 0,-3.56304 c 0,-1.96057 -0.1069,-3.86763 -0.2395,-4.23792 -0.408,-1.13555 -1.7266,-1.75158 -3.0696,-1.70532 z m -11.3495,0.008 c -0.2071,-1.4e-4 -0.4248,0.009 -0.6531,0.0218 -1.2869,0.0728 -1.7328,0.20933 -2.4383,0.74745 -0.7669,0.58492 -1.3719,1.50238 -1.1538,1.7416 0.044,0.0481 0.5199,0.16258 1.0595,0.26125 0.8715,0.15937 1.0257,0.11766 1.4151,-0.37735 0.8339,-1.06022 3.0963,-0.58819 2.9244,0.60957 -0.068,0.47497 -0.287,0.6059 -1.4731,0.8708 -3.2846,0.73349 -3.9698,1.16737 -4.2162,2.68498 -0.1797,1.10801 0.2886,2.19047 1.1829,2.73578 1.0748,0.6554 2.8617,0.59185 3.9477,-0.14514 0.8452,-0.57361 0.8738,-0.57628 0.9941,-0.1161 0.1047,0.40011 0.31,0.46443 1.3788,0.46443 1.1798,0 1.2454,-0.0285 1.016,-0.45718 -0.1346,-0.25149 -0.2757,-2.02366 -0.3121,-3.94039 -0.063,-3.28924 -0.096,-3.51709 -0.6096,-4.06375 -0.6684,-0.7115 -1.6129,-1.03671 -3.0623,-1.03771 z m 0.8272,5.13049 c 0.3459,-0.0196 0.3629,0.23495 0.3629,1.00868 0,0.9336 -0.083,1.09964 -0.7547,1.5094 -1.1616,0.70824 -1.9432,0.59044 -2.431,-0.35558 -0.3504,-0.67954 0.034,-1.46532 0.7983,-1.63276 0.3567,-0.0782 0.9504,-0.23841 1.3207,-0.35557 0.3201,-0.10135 0.5467,-0.16521 0.7038,-0.17417 z"
       id="path3204"
       inkscape:connector-curvature="0" />
  </g>
</svg>
