<?xml version="1.0" encoding="UTF-8" standalone="no"?>
<!-- Created with Inkscape (http://www.inkscape.org/) -->

<svg
   xmlns:dc="http://purl.org/dc/elements/1.1/"
   xmlns:cc="http://creativecommons.org/ns#"
   xmlns:rdf="http://www.w3.org/1999/02/22-rdf-syntax-ns#"
   xmlns:svg="http://www.w3.org/2000/svg"
   xmlns="http://www.w3.org/2000/svg"
   xmlns:sodipodi="http://sodipodi.sourceforge.net/DTD/sodipodi-0.dtd"
   xmlns:inkscape="http://www.inkscape.org/namespaces/inkscape"
   width="250"
   height="177"
   id="svg2"
   version="1.1"
   inkscape:version="0.48.2 r9819"
   sodipodi:docname="log25.svg">
  <defs
     id="defs4">
    <clipPath
       id="clipPath3184"
       clipPathUnits="userSpaceOnUse">
      <path
         id="path3186"
         d="M 0,0 199,0 199,182 0,182 0,0 z" />
    </clipPath>
  </defs>
  <sodipodi:namedview
     id="base"
     pagecolor="#ffffff"
     bordercolor="#666666"
     borderopacity="1.0"
     inkscape:pageopacity="0.0"
     inkscape:pageshadow="2"
     inkscape:zoom="2.8284271"
     inkscape:cx="105.83559"
     inkscape:cy="77.817951"
     inkscape:document-units="px"
     inkscape:current-layer="layer1"
     showgrid="false"
     fit-margin-top="0"
     fit-margin-left="0"
     fit-margin-right="0"
     fit-margin-bottom="0"
     inkscape:window-width="1073"
     inkscape:window-height="724"
     inkscape:window-x="0"
     inkscape:window-y="0"
     inkscape:window-maximized="0" />
  <metadata
     id="metadata7">
    <rdf:RDF>
      <cc:Work
         rdf:about="">
        <dc:format>image/svg+xml</dc:format>
        <dc:type
           rdf:resource="http://purl.org/dc/dcmitype/StillImage" />
        <dc:title />
      </cc:Work>
    </rdf:RDF>
  </metadata>
  <g
     inkscape:label="Layer 1"
     inkscape:groupmode="layer"
     id="layer1"
     transform="translate(-853.05202,-639.37924)">
    <g
       id="g3527"
       transform="matrix(0.53157184,0,0,0.53157184,341.28343,335.66821)">
      <path
         id="path3074"
         style="fill:#ffffff;fill-opacity:1;fill-rule:evenodd;stroke:none"
         d="m 1275.8502,660.11299 c -1.43,-8.1125 -12.5375,-9.225 -22.18,-9.47875 -9.9513,-15.705 -30.3438,-26.47 -53.885,-26.47 -19.52,0 -36.8688,7.4075 -47.905,18.88625 l -4.365,2.14 c -3.8863,1.905 -9.03,5.05375 -14.3575,12.57 l -0.1813,0.26 -2.6337,7.12625 c -2.55,6.86875 -6.41,17.245 -8.4138,23.0075 l -0.1887,0.55375 0.079,0.58875 c 0.7063,5.01875 4.1613,8.4025 10.2763,10.04 4.7487,1.27125 10.3112,1.355 15.2187,1.43 l 0.2013,0.002 c 1.145,0.0238 2.3012,0.0362 3.4537,0.0312 10.9775,12.03625 28.7525,19.85625 48.8163,19.85625 14.6037,0 28.005,-4.14125 38.445,-11.0425 l 5.6062,-2.07 c 11.165,-4.11625 15.5275,-8.28375 18.945,-13.67875 l 0.096,-0.14125 0.062,-0.15625 c 2.6225,-5.8675 10.8612,-25.9025 12.8412,-32.3025 l 0.1725,-0.56375 -0.1037,-0.58875"
         inkscape:connector-curvature="0" />
      <path
         id="path3076"
         transform="translate(853.05202,639.37924)"
         d="m 295.4375,7.96875 c -4.25,2.08625 -8.76875,5.18875 -13.46875,11.8125 -1.18,3.30375 -8.015,21.41375 -10.9375,29.8125 C 272.31745,58.76 285.0763,58.86 294.5,59 c 15.02,0.40875 30.80625,-2.1625 46.59375,-4.75 18.6425,-3.035 37.29625,-6.095 54.65625,-4.1875 1.7238,0.18625 4.8625,0.4275 6.5625,0.71875 0,0 -2.5737,8.21625 -12.3125,15.15625 10.35,-3.81375 14.565,-7.635 17.8125,-12.75 2.7925,-6.24625 10.83875,-25.945 12.71875,-32.03125 -1.26,-7.1725 -14.2538,-7.45625 -23.6875,-7.59375 -15.0125,-0.40875 -30.80875,2.16875 -46.59375,4.75 -18.65,3.045 -37.29125,6.095 -54.65625,4.1875 -1.725,-0.19125 -5.5525,-0.42875 -7.25,-0.71875 0,0 1.57875,-6.505 7.09375,-13.8125 z m 98.21875,11.125 c 1.22062,-0.0059 2.39315,-0.0082 3.5625,0.03125 l 0.40625,0.03125 c 0,0 0.945,7.025 1.1875,8.875 1.1113,-1.565 5.96875,-8.375 5.96875,-8.375 l 0.28125,0.03125 c 2.4212,0.2625 4.8062,0.63375 7.0625,1.0625 l 0.8125,0.15625 -0.5625,0.65625 c -3.8162,4.47875 -7.74125,9.14375 -11.65625,13.875 -0.0587,0.2 -2.46875,9 -2.46875,9 l -0.40625,-0.03125 c -2.1587,-0.23 -4.42495,-0.4013 -6.71875,-0.5 L 390.53125,43.875 c 0,0 2.4915,-8.9075 2.5625,-9.15625 -1.1576,-4.86625 -2.385,-9.8175 -3.625,-14.6875 l -1.53125,5.40625 -0.34375,0 c -1.6475,0.045 -3.3012,0.12505 -4.9375,0.21875 C 382.47255,26.28 377.375,44.125 377.375,44.125 l -0.3125,0.03125 c -2.2751,0.13875 -4.63,0.3 -7,0.53125 l -0.71875,0.0625 c 0,0 4.955,-17.18375 5.3125,-18.4375 -1.0612,0.10875 -5.40625,0.5625 -5.40625,0.5625 l 1.84375,-6.28125 0.3125,-0.0625 c 6.5788,-0.77 12.35125,-1.20125 17.65625,-1.34375 l 0.1875,0 0.0312,-0.03125 0.625,0 c 1.28065,-0.0319 2.52938,-0.05655 3.75,-0.0625 z M 369,20.8125 l -7.15625,24.5 -0.0937,0.3125 -8.1875,1.09375 7.34375,-24.8125 7.375,-1 L 369,20.8125 z m -18.625,2.71875 c 0,0 -5.11375,17.03625 -5.53125,18.40625 1.2525,-0.195 8.28125,-1.25 8.28125,-1.25 l -1.8125,6.125 -0.0937,0.28125 -9.78125,1.5 -6.78125,1.0625 7.5,-24.5625 0.0937,-0.3125 5.3125,-0.8125 2.0625,-0.3125 0.75,-0.125 z m -10.625,1.6875 -7.5625,24.5625 -0.0625,0.28125 -8.21875,1.15625 7.625,-24.59375 0.0937,-0.28125 7.375,-1.03125 0.75,-0.09375 z m -10.15625,1.375 -1.875,6.03125 -0.0937,0.28125 c 0,0 -4.85255,0.5588 -5.40625,0.625 -0.185,0.59375 -5.8125,18.53125 -5.8125,18.53125 l -0.3125,0.03125 c -2.4225,0.2525 -4.815,0.46625 -7.0625,0.625 L 308.3438,52.75 c 0,0 5.4988,-17.37125 5.875,-18.5625 -1.5812,0.10875 -3.1412,0.1925 -4.625,0.25 l -0.6875,0.03125 2,-6.3125 0.34375,0 c 5.2412,-0.18875 10.99875,-0.6975 17.59375,-1.5 l 0.75,-0.0625 z M 288,26.75 l 0.40625,0.09375 c 2.2075,0.39625 5.415,0.79625 7.4375,1 l 0.6875,0.0625 -0.3125,0.625 c -1.1638,2.435 -5.1038,10.82 -6.9375,16.40625 -0.2373,0.6725 -0.3025,1.10625 -0.1875,1.34375 0.0275,0.05 0.11875,0.22125 0.59375,0.375 0.3312,0.1013 0.84505,0.155 1.46875,0.1875 l 0.8125,0.03125 c 0.7613,0.0498 1.6238,0.1125 2.1875,0.0625 1.5913,-0.15625 2.01375,-0.7575 2.28125,-1.90625 1.6412,-5.99625 2.94,-12.0025 3.5625,-16.46875 l 0.0625,-0.4375 0.4375,0 c 2.0137,0.0825 5.2512,0.13875 7.625,0.09375 l 0.6875,0 -4.8125,15 c -1.3525,4.20875 -2.23995,6.6575 -4.53125,8.28125 -1.1562,0.8175 -2.35505,1.56625 -4.28125,1.8125 -1.4288,0.18495 -3.44625,0.07 -4.90625,-0.03125 l -0.0625,0 c -0.9725,-0.0625 -2.9812,-0.18875 -4.8125,-0.625 -1.3875,-0.4425 -2.3887,-1.26 -3.0625,-2.46875 -1.3325,-2.415 -0.5537,-4.72 0.4375,-7.625 l 0.375,-1.09375 L 287.875,27.15625 288,26.75 z m 116.0625,15.65625 c 1.3937,0 2.5,1.19375 2.5,2.65625 0,1.49375 -1.0975,2.65625 -2.5,2.65625 -1.4037,0 -2.53125,-1.1625 -2.53125,-2.65625 0,-1.4625 1.12755,-2.65625 2.53125,-2.65625 z m 0,0.40625 c -1.13,0 -2.0625,1.0175 -2.0625,2.25 0,1.25625 0.9237,2.21875 2.0625,2.21875 1.1312,0.007 2.03125,-0.9775 2.03125,-2.21875 0,-1.2475 -0.90005,-2.25 -2.03125,-2.25 z m -0.125,0.75 c 0.4325,0 0.7025,0.09125 0.875,0.21875 0.1662,0.13375 0.25,0.34625 0.25,0.625 0,0.39125 -0.2537,0.62375 -0.5625,0.71875 0.2563,0.055 0.4437,0.31625 0.5,0.75 0.065,0.45625 0.11745,0.63 0.15625,0.71875 l -0.46875,0 c -0.065,-0.0888 -0.1325,-0.36125 -0.1875,-0.75 -0.066,-0.37625 -0.2613,-0.53125 -0.625,-0.53125 l -0.3125,0 0,1.28125 -0.4375,0 0,-2.96875 c 0.2387,-0.03 0.4712,-0.0625 0.8125,-0.0625 z m -0.0312,0.375 c -0.1512,0 -0.25995,0.02005 -0.34375,0.03125 l 0,1 0.34375,0 c 0.3725,0 0.6875,-0.16625 0.6875,-0.53125 0,-0.2525 -0.1775,-0.5 -0.6875,-0.5 z"
         style="fill:#f5002f;fill-opacity:1;fill-rule:nonzero;stroke:none"
         inkscape:connector-curvature="0" />
      <path
         id="path3078"
         style="fill:#0073d1;fill-opacity:1;fill-rule:evenodd;stroke:none"
         d="m 1222.4227,638.03299 c 0.067,0.11125 0.1362,0.2325 0.205,0.3425 4.6275,-0.47125 9.1562,-1.08 13.5737,-1.825 -6.8675,-4.44875 -15.0225,-7.65625 -23.9662,-9.21375 3.7725,2.4625 7.225,6.065 10.1875,10.69625 m 6.51,53.69375 c -1.225,4.37625 -2.8613,8.47875 -4.8863,12.1775 5.1775,0.55 10.2325,1.28875 15.1375,2.1875 5.1838,-3.855 9.4875,-8.46375 12.625,-13.61375 -7.3812,-1.1025 -15.0562,-1.22375 -22.8762,-0.75125 m -6.51,14.94875 c -2.9626,4.635 -6.415,8.2375 -10.1875,10.69 8.9437,-1.54625 17.0987,-4.76125 23.9662,-9.19875 -4.4175,-0.75 -8.9462,-1.3675 -13.5737,-1.835 -0.069,0.11875 -0.1375,0.2325 -0.205,0.34375 m -44.9626,0 c -0.069,-0.11125 -0.1374,-0.225 -0.2074,-0.34375 -4.6263,0.4675 -9.1638,1.085 -13.575,1.835 6.8625,4.4375 15.0237,7.6525 23.965,9.19875 -3.7725,-2.4525 -7.2263,-6.055 -10.1826,-10.69 m 0,-68.6425 c 2.9563,-4.63125 6.4101,-8.23375 10.1826,-10.69625 -8.9413,1.5575 -17.1025,4.765 -23.965,9.21375 4.4112,0.745 8.9487,1.35375 13.575,1.825 0.07,-0.11 0.1387,-0.23125 0.2074,-0.3425 m 43.8763,3.04875 c -6.9637,0.64875 -14.1175,0.9875 -21.3925,0.9875 -7.2825,0 -14.4475,-0.33875 -21.4075,-0.9875 -2.9812,5.15 -5.2362,11.37125 -6.5087,18.25375 10.23,-0.8225 20.665,-2.52 30.9512,-4.205 7.6238,-1.245 15.3213,-2.495 22.9788,-3.41125 -1.23,-3.88375 -2.7775,-7.47 -4.6213,-10.6375 m -1.51,64.98625 c -6.4787,-0.575 -13.1375,-0.86125 -19.8825,-0.86125 -6.7575,0 -13.4087,0.28625 -19.8925,0.86125 4.5213,6.75 10.3987,11.23375 16.9013,12.295 0.9875,0.03 1.9862,0.055 2.9912,0.055 0.9925,0 1.9938,-0.025 2.9813,-0.055 6.51,-1.06125 12.38,-5.545 16.9012,-12.295 m -41.29,-2.44 c 6.96,-0.65375 14.125,-0.98875 21.4075,-0.98875 7.275,0 14.4288,0.335 21.3925,0.98875 2.0138,-3.46375 3.6788,-7.415 4.9475,-11.7225 -10.5187,0.79375 -21.26,2.5475 -31.845,4.2775 -6.0537,0.98625 -12.16,1.9825 -18.2562,2.81 0.7212,1.6225 1.5062,3.18 2.3537,4.635 m -4.9237,-4.29625 c -6.3388,0.805 -12.6663,1.4 -18.9088,1.58875 1.8338,1.8425 3.835,3.575 5.9988,5.17125 4.9,-0.89875 9.9487,-1.6375 15.13,-2.1875 -0.8038,-1.465 -1.5388,-2.9925 -2.22,-4.5725 m 54.865,-47.895 c 7.47,-0.81875 14.8962,-1.26625 22.1625,-1.025 -3.0038,-4.42 -6.8875,-8.4025 -11.4563,-11.79625 -4.905,0.905 -9.96,1.635 -15.1375,2.185 1.7787,3.26625 3.2688,6.8325 4.4313,10.63625 m -48.4238,-12.79375 c 6.4813,0.56625 13.1325,0.85625 19.89,0.85625 6.745,0 13.4038,-0.29 19.8813,-0.85625 -4.52,-6.75 -10.39,-11.2325 -16.9,-12.29875 -0.9875,-0.0338 -1.9888,-0.0538 -2.9813,-0.0538 -1.005,0 -2.0037,0.02 -2.9912,0.0538 -6.5026,1.06625 -12.38,5.54875 -16.8988,12.29875 m -10.5862,20.88375 c 1.1925,-6.8525 3.3562,-13.22375 6.365,-18.72625 -5.1813,-0.55 -10.23,-1.28 -15.13,-2.185 -7.3,5.4175 -12.8313,12.3225 -15.845,20.1175 7.9162,1.2525 16.1837,1.35 24.61,0.79375"
         inkscape:connector-curvature="0" />
      <path
         id="path3084"
         style="fill:#0073d1;fill-opacity:1;fill-rule:nonzero;stroke:none"
         d="m 1081.3739,749.16549 -0.025,0 -1.2862,3.50125 2.595,0 -1.2838,-3.50125 z m -1.88,-2.33375 3.7725,0 3.98,9.2575 -3.3062,0 -0.5563,-1.50375 -4.045,0 -0.5575,1.50375 -3.305,0 4.0175,-9.2575"
         inkscape:connector-curvature="0" />
      <path
         id="path3086"
         style="fill:#0073d1;fill-opacity:1;fill-rule:nonzero;stroke:none"
         d="m 1099.0164,752.52424 c -0.3737,1.99625 -1.4775,3.8525 -5.8587,3.8525 -3.9138,0 -5.82,-1.7275 -5.82,-4.91625 0,-3.09875 1.8012,-4.91375 5.82,-4.91375 2.825,0 5.16,0.65 5.8362,3.85 l -3.4362,0 c -0.1825,-0.66125 -0.6388,-1.775 -2.385,-1.775 -1.9338,0 -2.57,1.31125 -2.57,2.83875 0,1.53 0.5725,2.83875 2.57,2.83875 1.3862,0 2.215,-0.6975 2.4237,-1.775 l 3.42,0"
         inkscape:connector-curvature="0" />
      <path
         id="path3088"
         style="fill:#0073d1;fill-opacity:1;fill-rule:nonzero;stroke:none"
         d="m 1099.3539,746.83174 9.88,0 0,2.0725 -3.3962,0 0,7.185 -3.085,0 0,-7.185 -3.3988,0 0,-2.0725"
         inkscape:connector-curvature="0" />
      <path
         id="path3090"
         style="fill:#0073d1;fill-opacity:1;fill-rule:nonzero;stroke:none"
         d="m 1110.1939,746.83174 3.085,0 0,9.2575 -3.085,0 0,-9.2575 z"
         inkscape:connector-curvature="0" />
      <path
         id="path3092"
         style="fill:#0073d1;fill-opacity:1;fill-rule:nonzero;stroke:none"
         d="m 1120.7327,754.29924 c 1.66,0 2.76,-0.895 2.76,-2.83875 0,-1.93125 -1.1,-2.83875 -2.76,-2.83875 -1.6463,0 -2.7625,0.9075 -2.7625,2.83875 0,1.94375 1.1162,2.83875 2.7625,2.83875 z m 0,-7.7525 c 3.2662,0 6.0287,1.07625 6.0287,4.91375 0,3.83625 -2.7625,4.91625 -6.0287,4.91625 -3.2688,0 -6.0313,-1.08 -6.0313,-4.91625 0,-3.8375 2.7625,-4.91375 6.0313,-4.91375"
         inkscape:connector-curvature="0" />
      <path
         id="path3094"
         style="fill:#0073d1;fill-opacity:1;fill-rule:nonzero;stroke:none"
         d="m 1128.1477,746.83174 3.5525,0 4.2912,5.79625 0.027,0 0,-5.79625 2.98,0 0,9.2575 -3.4087,0 -4.435,-5.84625 -0.026,0 0,5.84625 -2.9812,0 0,-9.2575"
         inkscape:connector-curvature="0" />
      <path
         id="path3096"
         style="fill:#0073d1;fill-opacity:1;fill-rule:nonzero;stroke:none"
         d="m 1145.7652,746.83174 3.0862,0 0,5.485 c 0,1.505 0.6988,1.9825 2.115,1.9825 1.4113,0 2.1113,-0.4775 2.1113,-1.9825 l 0,-5.485 3.0862,0 0,5.99125 c 0,2.5525 -1.92,3.55375 -5.1975,3.55375 -3.285,0 -5.2012,-1.00125 -5.2012,-3.55375 l 0,-5.99125"
         inkscape:connector-curvature="0" />
      <path
         id="path3098"
         style="fill:#0073d1;fill-opacity:1;fill-rule:nonzero;stroke:none"
         d="m 1156.9527,746.83174 9.8812,0 0,2.0725 -3.4,0 0,7.185 -3.0837,0 0,-7.185 -3.3975,0 0,-2.0725"
         inkscape:connector-curvature="0" />
      <path
         id="path3100"
         style="fill:#0073d1;fill-opacity:1;fill-rule:nonzero;stroke:none"
         d="m 1167.7914,746.83174 3.0863,0 0,9.2575 -3.0863,0 0,-9.2575 z"
         inkscape:connector-curvature="0" />
      <path
         id="path3102"
         style="fill:#0073d1;fill-opacity:1;fill-rule:nonzero;stroke:none"
         d="m 1172.7827,746.83174 3.0837,0 0,7.10375 5.64,0 0,2.15375 -8.7237,0 0,-9.2575"
         inkscape:connector-curvature="0" />
      <path
         id="path3104"
         style="fill:#0073d1;fill-opacity:1;fill-rule:nonzero;stroke:none"
         d="m 1182.6739,746.83174 3.0825,0 0,9.2575 -3.0825,0 0,-9.2575 z"
         inkscape:connector-curvature="0" />
      <path
         id="path3106"
         style="fill:#0073d1;fill-opacity:1;fill-rule:nonzero;stroke:none"
         d="m 1186.7189,746.83174 9.8775,0 0,2.0725 -3.3962,0 0,7.185 -3.0863,0 0,-7.185 -3.395,0 0,-2.0725"
         inkscape:connector-curvature="0" />
      <path
         id="path3108"
         style="fill:#0073d1;fill-opacity:1;fill-rule:nonzero;stroke:none"
         d="m 1200.3177,753.17174 -4.11,-6.34 3.5787,0 2.0725,3.92625 2.0763,-3.92625 3.5775,0 -4.11,6.34 0,2.9175 -3.085,0 0,-2.9175"
         inkscape:connector-curvature="0" />
      <path
         id="path3110"
         style="fill:#0073d1;fill-opacity:1;fill-rule:nonzero;stroke:none"
         d="m 1218.6227,753.70424 1.3487,-1.5175 1.05,0.92 c 0.26,-0.415 0.39,-0.97375 0.39,-1.64625 0,-1.93125 -1.105,-2.83875 -2.7625,-2.83875 -1.6487,0 -2.7637,0.9075 -2.7637,2.83875 0,1.94375 1.115,2.83875 2.7637,2.83875 0.2063,0 0.3913,-0.0125 0.6088,-0.04 l -0.635,-0.555 z m 2.6987,2.37125 c -0.43,0.105 -0.8712,0.17 -1.3112,0.22125 -0.4538,0.0538 -0.8938,0.08 -1.3613,0.08 -3.2662,0 -6.0287,-1.08 -6.0287,-4.91625 0,-3.8375 2.7625,-4.91375 6.0287,-4.91375 3.2688,0 6.0275,1.07625 6.0275,4.91375 0,1.6975 -0.545,2.8525 -1.4137,3.605 l 1.3212,1.18 -1.36,1.505 -1.9025,-1.675"
         inkscape:connector-curvature="0" />
      <path
         id="path3112"
         style="fill:#0073d1;fill-opacity:1;fill-rule:nonzero;stroke:none"
         d="m 1225.9327,746.83174 3.0862,0 0,5.485 c 0,1.505 0.7013,1.9825 2.1125,1.9825 1.415,0 2.115,-0.4775 2.115,-1.9825 l 0,-5.485 3.0863,0 0,5.99125 c 0,2.5525 -1.9213,3.55375 -5.2013,3.55375 -3.28,0 -5.1987,-1.00125 -5.1987,-3.55375 l 0,-5.99125"
         inkscape:connector-curvature="0" />
      <path
         id="path3114"
         style="fill:#0073d1;fill-opacity:1;fill-rule:nonzero;stroke:none"
         d="m 1241.9727,744.21299 3.3425,0 -1.9325,1.8175 -2.5938,0 1.1838,-1.8175 z m -3.905,2.61875 9.27,0 0,1.99625 -6.185,0 0,1.67375 5.7975,0 0,1.9175 -5.7975,0 0,1.6725 6.185,0 0,1.9975 -9.27,0 0,-9.2575"
         inkscape:connector-curvature="0" />
      <path
         id="path3116"
         style="fill:#0073d1;fill-opacity:1;fill-rule:nonzero;stroke:none"
         d="m 1255.0377,754.09174 c 0.65,0 1.09,-0.3475 1.09,-0.95875 0,-0.60875 -0.44,-0.92 -1.09,-0.92 l -3.3188,0 0,1.87875 3.3188,0 z m -3.3188,-3.695 3.0738,0 c 0.6587,0 0.945,-0.365 0.945,-0.7925 0,-0.4125 -0.2863,-0.77625 -0.945,-0.77625 l -3.0738,0 0,1.56875 z m -3.085,-3.565 7.6613,0 c 2.245,0 2.6325,1.3875 2.6325,2.2825 0,0.86625 -0.4825,1.61875 -1.1413,1.86625 l 0,0.0263 c 0.9713,0.22 1.6088,1.0125 1.6088,2.3225 0,1.1 -0.5188,2.76 -3.3588,2.76 l -7.4025,0 0,-9.2575"
         inkscape:connector-curvature="0" />
      <path
         id="path3118"
         style="fill:#0073d1;fill-opacity:1;fill-rule:nonzero;stroke:none"
         d="m 1260.8727,746.83174 9.2675,0 0,1.99625 -6.1838,0 0,1.67375 5.7975,0 0,1.9175 -5.7975,0 0,1.6725 6.1838,0 0,1.9975 -9.2675,0 0,-9.2575"
         inkscape:connector-curvature="0" />
      <path
         id="path3120"
         style="fill:#0073d1;fill-opacity:1;fill-rule:nonzero;stroke:none"
         d="m 1282.6377,752.52424 c -0.3738,1.99625 -1.4775,3.8525 -5.86,3.8525 -3.915,0 -5.82,-1.7275 -5.82,-4.91625 0,-3.09875 1.8037,-4.91375 5.82,-4.91375 2.8275,0 5.16,0.65 5.8337,3.85 l -3.4362,0 c -0.1788,-0.66125 -0.6338,-1.775 -2.3838,-1.775 -1.9312,0 -2.5662,1.31125 -2.5662,2.83875 0,1.53 0.57,2.83875 2.5662,2.83875 1.3888,0 2.2175,-0.6975 2.425,-1.775 l 3.4213,0"
         inkscape:connector-curvature="0" />
      <path
         id="path3122"
         style="fill:#0073d1;fill-opacity:1;fill-rule:nonzero;stroke:none"
         d="m 1288.9902,746.83174 3.085,0 0,9.2575 -3.085,0 0,-9.2575 z"
         inkscape:connector-curvature="0" />
      <path
         id="path3124"
         style="fill:#0073d1;fill-opacity:1;fill-rule:nonzero;stroke:none"
         d="m 1293.9789,746.83174 3.5563,0 4.2887,5.79625 0.027,0 0,-5.79625 2.9825,0 0,9.2575 -3.4125,0 -4.4325,-5.84625 -0.025,0 0,5.84625 -2.985,0 0,-9.2575"
         inkscape:connector-curvature="0" />
      <path
         id="path3126"
         style="fill:#0073d1;fill-opacity:1;fill-rule:nonzero;stroke:none"
         d="m 1317.9002,752.52424 c -0.375,1.99625 -1.4775,3.8525 -5.8613,3.8525 -3.9137,0 -5.8187,-1.7275 -5.8187,-4.91625 0,-3.09875 1.8,-4.91375 5.8187,-4.91375 2.8275,0 5.1613,0.65 5.835,3.85 l -3.435,0 c -0.1825,-0.66125 -0.6337,-1.775 -2.385,-1.775 -1.9325,0 -2.5687,1.31125 -2.5687,2.83875 0,1.53 0.5712,2.83875 2.5687,2.83875 1.385,0 2.2163,-0.6975 2.4238,-1.775 l 3.4225,0"
         inkscape:connector-curvature="0" />
      <path
         id="path3128"
         style="fill:#0073d1;fill-opacity:1;fill-rule:nonzero;stroke:none"
         d="m 1319.3127,753.52174 2.9062,0 0,2.5675 -2.9062,0 0,-2.5675 z"
         inkscape:connector-curvature="0" />
      <path
         id="path3130"
         style="fill:#0073d1;fill-opacity:1;fill-rule:nonzero;stroke:none"
         d="m 1127.7777,765.10049 c -0.089,-0.6375 -0.595,-1.07875 -2.01,-1.07875 -1.0388,0 -1.605,0.29875 -1.605,0.9075 0,0.31125 0.2175,0.4925 0.6837,0.57125 0.7788,0.13 3.1538,0.47875 4.06,0.63625 1.7238,0.2975 2.76,0.99875 2.76,2.63125 0,3.1375 -4.0712,3.1625 -5.3412,3.1625 -3.1375,0 -5.4063,-0.5575 -5.5863,-3.13625 l 3.6563,0 c 0.076,0.69875 0.4637,1.14125 2.0712,1.14125 0.7788,0 1.6213,-0.1825 1.6213,-0.975 0,-0.49 -0.3875,-0.66125 -1.4638,-0.82625 l -3.085,-0.46875 c -1.9062,-0.285 -2.645,-1.245 -2.645,-2.62 0,-1.21875 0.7538,-2.94375 4.8088,-2.94375 3.3562,0 5.38,0.805 5.5762,2.99875 l -3.5012,0"
         inkscape:connector-curvature="0" />
      <path
         id="path3132"
         style="fill:#0073d1;fill-opacity:1;fill-rule:nonzero;stroke:none"
         d="m 1132.8989,762.38924 9.27,0 0,1.9975 -6.1862,0 0,1.67125 5.7962,0 0,1.9175 -5.7962,0 0,1.675 6.1862,0 0,1.995 -9.27,0 0,-9.25625"
         inkscape:connector-curvature="0" />
      <path
         id="path3134"
         style="fill:#0073d1;fill-opacity:1;fill-rule:nonzero;stroke:none"
         d="m 1143.4652,762.38924 4.5112,0 2.1113,6.10625 0.026,0 2.1125,-6.10625 4.5125,0 0,9.25625 -2.9025,0 0,-6.9225 -0.029,0 -2.435,6.9225 -2.5388,0 -2.4425,-6.9225 -0.023,0 0,6.9225 -2.9037,0 0,-9.25625"
         inkscape:connector-curvature="0" />
      <path
         id="path3136"
         style="fill:#0073d1;fill-opacity:1;fill-rule:nonzero;stroke:none"
         d="m 1158.6452,762.38924 3.085,0 0,9.25625 -3.085,0 0,-9.25625 z"
         inkscape:connector-curvature="0" />
      <path
         id="path3138"
         style="fill:#0073d1;fill-opacity:1;fill-rule:nonzero;stroke:none"
         d="m 1163.4939,766.88799 4.6538,0 0,1.99625 -4.6538,0 0,-1.99625 z"
         inkscape:connector-curvature="0" />
      <path
         id="path3140"
         style="fill:#0073d1;fill-opacity:1;fill-rule:nonzero;stroke:none"
         d="m 1172.9577,766.48549 2.9687,0 c 0.75,0 1.1538,-0.39125 1.1538,-1.02375 0,-0.61 -0.4038,-0.99875 -1.1538,-0.99875 l -2.9687,0 0,2.0225 z m -3.0875,-4.09625 7.4162,0 c 2.2688,0 3.0988,1.03625 3.0988,2.58 0,1.23 -0.6475,1.90625 -1.4775,2.11125 l 0,0.0275 c 0.5825,0.1925 1.035,0.6625 1.1162,1.66 0.1425,1.8275 0.1925,2.41125 0.5825,2.8775 l -3.385,0 c -0.1687,-0.4025 -0.18,-0.94625 -0.18,-1.37375 0,-1.45125 -0.4812,-1.71125 -1.26,-1.71125 l -2.8237,0 0,3.085 -3.0875,0 0,-9.25625"
         inkscape:connector-curvature="0" />
      <path
         id="path3142"
         style="fill:#0073d1;fill-opacity:1;fill-rule:nonzero;stroke:none"
         d="m 1181.8777,762.38924 9.2687,0 0,1.9975 -6.185,0 0,1.67125 5.795,0 0,1.9175 -5.795,0 0,1.675 6.185,0 0,1.995 -9.2687,0 0,-9.25625"
         inkscape:connector-curvature="0" />
      <path
         id="path3144"
         style="fill:#0073d1;fill-opacity:1;fill-rule:nonzero;stroke:none"
         d="m 1192.4414,762.38924 4.5125,0 2.1125,6.10625 0.026,0 2.1137,-6.10625 4.51,0 0,9.25625 -2.9037,0 0,-6.9225 -0.025,0 -2.4375,6.9225 -2.54,0 -2.44,-6.9225 -0.024,0 0,6.9225 -2.905,0 0,-9.25625"
         inkscape:connector-curvature="0" />
      <path
         id="path3146"
         style="fill:#0073d1;fill-opacity:1;fill-rule:nonzero;stroke:none"
         d="m 1213.1327,769.85674 c 1.6587,0 2.76,-0.89625 2.76,-2.83875 0,-1.93125 -1.1013,-2.84 -2.76,-2.84 -1.6463,0 -2.7625,0.90875 -2.7625,2.84 0,1.9425 1.1162,2.83875 2.7625,2.83875 z m 0,-7.755 c 3.2675,0 6.0287,1.07875 6.0287,4.91625 0,3.83625 -2.7612,4.9125 -6.0287,4.9125 -3.2663,0 -6.0275,-1.07625 -6.0275,-4.9125 0,-3.8375 2.7612,-4.91625 6.0275,-4.91625"
         inkscape:connector-curvature="0" />
      <path
         id="path3148"
         style="fill:#0073d1;fill-opacity:1;fill-rule:nonzero;stroke:none"
         d="m 1223.6314,766.48549 2.9713,0 c 0.7537,0 1.1512,-0.39125 1.1512,-1.02375 0,-0.61 -0.3975,-0.99875 -1.1512,-0.99875 l -2.9713,0 0,2.0225 z m -3.0837,-4.09625 7.4162,0 c 2.2688,0 3.0988,1.03625 3.0988,2.58 0,1.23 -0.6475,1.90625 -1.4788,2.11125 l 0,0.0275 c 0.5825,0.1925 1.0388,0.6625 1.1138,1.66 0.1437,1.8275 0.195,2.41125 0.5812,2.8775 l -3.38,0 c -0.1687,-0.4025 -0.1812,-0.94625 -0.1812,-1.37375 0,-1.45125 -0.48,-1.71125 -1.2575,-1.71125 l -2.8288,0 0,3.085 -3.0837,0 0,-9.25625"
         inkscape:connector-curvature="0" />
      <path
         id="path3150"
         style="fill:#0073d1;fill-opacity:1;fill-rule:nonzero;stroke:none"
         d="m 1238.0764,769.26174 1.35,-1.5175 1.0475,0.92 c 0.2588,-0.41375 0.3888,-0.9725 0.3888,-1.64625 0,-1.93125 -1.1,-2.84 -2.7625,-2.84 -1.6463,0 -2.76,0.90875 -2.76,2.84 0,1.9425 1.1137,2.83875 2.76,2.83875 0.2075,0 0.39,-0.0125 0.6087,-0.0375 l -0.6325,-0.5575 z m 2.6963,2.37125 c -0.43,0.1025 -0.87,0.16875 -1.31,0.2175 -0.4538,0.055 -0.895,0.08 -1.3625,0.08 -3.2663,0 -6.0275,-1.07625 -6.0275,-4.9125 0,-3.8375 2.7612,-4.91625 6.0275,-4.91625 3.2687,0 6.03,1.07875 6.03,4.91625 0,1.69625 -0.5463,2.85125 -1.4163,3.605 l 1.3238,1.17875 -1.3588,1.505 -1.9062,-1.67375"
         inkscape:connector-curvature="0" />
      <path
         id="path3152"
         style="fill:#0073d1;fill-opacity:1;fill-rule:nonzero;stroke:none"
         d="m 1245.3852,762.38924 3.085,0 0,5.485 c 0,1.50375 0.7025,1.9825 2.1149,1.9825 1.4126,0 2.1138,-0.47875 2.1138,-1.9825 l 0,-5.485 3.0838,0 0,5.99125 c 0,2.555 -1.9163,3.55 -5.1975,3.55 -3.28,0 -5.2,-0.995 -5.2,-3.55 l 0,-5.99125"
         inkscape:connector-curvature="0" />
      <path
         id="path3154"
         style="fill:#0073d1;fill-opacity:1;fill-rule:nonzero;stroke:none"
         d="m 1257.5189,762.38924 9.2713,0 0,1.9975 -6.1851,0 0,1.67125 5.7976,0 0,1.9175 -5.7976,0 0,1.675 6.1851,0 0,1.995 -9.2713,0 0,-9.25625"
         inkscape:connector-curvature="0" />
      <path
         id="path3156"
         style="fill:#0073d1;fill-opacity:1;fill-rule:nonzero;stroke:none"
         d="m 1274.4927,765.10049 c -0.092,-0.6375 -0.5975,-1.07875 -2.0126,-1.07875 -1.0349,0 -1.6062,0.29875 -1.6062,0.9075 0,0.31125 0.22,0.4925 0.6863,0.57125 0.7775,0.13 3.1487,0.47875 4.0587,0.63625 1.725,0.2975 2.7613,0.99875 2.7613,2.63125 0,3.1375 -4.07,3.1625 -5.3413,3.1625 -3.1362,0 -5.4062,-0.5575 -5.5888,-3.13625 l 3.6563,0 c 0.08,0.69875 0.465,1.14125 2.075,1.14125 0.7763,0 1.62,-0.1825 1.62,-0.975 0,-0.49 -0.3887,-0.66125 -1.465,-0.82625 l -3.0862,-0.46875 c -1.905,-0.285 -2.6425,-1.245 -2.6425,-2.62 0,-1.21875 0.7525,-2.94375 4.8087,-2.94375 3.3575,0 5.3813,0.805 5.5725,2.99875 l -3.4962,0"
         inkscape:connector-curvature="0" />
      <path
         id="path3158"
         style="fill:#f5002f;fill-opacity:1;fill-rule:nonzero;stroke:none"
         d="m 1190.9502,829.10299 -33.7988,0 c 0.7738,-7.44875 4.4975,-12.71875 14.1238,-21.7125 6.7462,-6.25375 9.9787,-9.275 10.0487,-14.12375 -0.07,-6.11375 -4.7787,-6.67625 -6.535,-6.67625 -4.4975,0 -6.535,2.74125 -6.8862,7.87 l -9.6263,-0.9825 c 0.2813,-2.39 0.9838,-7.66 4.9888,-11.1025 3.4425,-2.88125 8.2912,-3.795 11.735,-3.795 11.6637,0 15.95,7.73 15.95,14.05375 0,8.78375 -6.3938,14.685 -11.3125,19.1825 -4.9188,4.5675 -6.535,6.04375 -7.87,8.29125 l 19.1825,0 0,8.995"
         inkscape:connector-curvature="0" />
      <path
         id="path3160"
         style="fill:#f5002f;fill-opacity:1;fill-rule:nonzero;stroke:none"
         d="m 1207.1802,815.04924 c 0.7025,4.98875 3.865,6.88625 7.0975,6.88625 3.5125,0 7.2362,-2.67 7.2362,-9.8375 0,-4.77875 -1.8962,-8.99375 -7.5187,-8.99375 -2.1775,0 -4.7075,0.7025 -7.4475,3.72375 l -7.8,-1.125 4.9187,-26.20875 25.5075,0 0,8.99375 -18.2,0 -1.475,8.5725 c 1.2638,-0.7025 3.2325,-1.61625 6.535,-1.61625 8.5025,0 15.3875,6.74625 15.3875,16.79375 0,8.01125 -5.48,17.7075 -17.215,17.7075 -8.9237,0 -15.4587,-5.13 -16.6525,-13.9125 l 9.6263,-0.98375"
         inkscape:connector-curvature="0" />
      <path
         id="path3162"
         style="fill:#f5002f;fill-opacity:1;fill-rule:nonzero;stroke:none"
         d="m 1242.0339,786.41924 c -0.3312,0.1175 -0.615,0.2125 -1.3712,0.3775 -0.1663,0.0237 -0.97,0.19 -1.1125,0.2375 -0.59,0.1175 -1.8913,0.44875 -1.8913,1.58375 0,0.68625 0.5438,1.68 1.7975,1.68 0.7563,0 1.395,-0.33125 1.8913,-0.7575 0.6862,-0.59 0.6862,-1.37125 0.6862,-2.4825 l 0,-0.63875 z m -7.285,-3.16875 c 0.545,-1.96375 1.6563,-3.4775 5.2988,-3.4775 5.1562,0 5.1787,2.4125 5.1787,4.6125 0,0.75625 -0.046,4.0675 -0.023,4.75375 0.07,1.6075 0.2363,2.1525 0.7088,3.16875 l -3.1925,0 c -0.071,-0.165 -0.1425,-0.33125 -0.2375,-0.68625 l -0.1888,-0.66125 c -0.6387,0.63875 -1.82,1.63125 -3.8075,1.63125 -2.46,0 -4.0675,-1.49 -4.0675,-3.61875 0,-3.00375 2.7663,-3.5475 4.4688,-3.87875 1.8225,-0.33125 2.5075,-0.52 3.1462,-0.78 l 0,-0.33125 c 0,-0.805 0,-1.72625 -2.2237,-1.72625 -1.5838,0 -1.915,0.92125 -2.1275,1.5375 l -2.9338,-0.54375"
         inkscape:connector-curvature="0" />
      <path
         id="path3164"
         style="fill:#f5002f;fill-opacity:1;fill-rule:nonzero;stroke:none"
         d="m 1256.2239,786.04049 c 0,-2.01 0,-3.78375 -1.9875,-3.78375 -1.0162,0 -1.9387,0.54375 -2.3412,1.4425 -0.3313,0.71 -0.355,2.0575 -0.355,3.05125 l 0,5.5575 -3.24,0 0,-12.25125 3.0275,0 0,1.7975 0.047,0 c 1.2062,-1.655 2.7437,-2.08125 3.9975,-2.08125 0.5437,0 1.7962,0.095 2.8137,0.89875 1.3,0.9925 1.2538,2.815 1.2775,4.02 l 0,7.61625 -3.24,0 0,-6.2675"
         inkscape:connector-curvature="0" />
      <path
         id="path3166"
         style="fill:#f5002f;fill-opacity:1;fill-rule:nonzero;stroke:none"
         d="m 1265.2102,788.31049 c 0.3775,1.6325 1.5837,1.96375 2.6249,1.96375 0.2838,0 2.3413,-0.0237 2.3413,-1.3475 0,-0.71 -0.5675,-0.87625 -1.325,-1.04125 -3.7125,-0.805 -6.4325,-1.4425 -6.4325,-4.35125 0,-2.815 2.5775,-3.76125 5.1563,-3.76125 2.9087,0 4.73,0.80375 5.4387,3.24 l -3.0737,0.5675 c -0.4025,-1.4425 -1.7275,-1.49 -2.295,-1.49 -0.5438,0 -2.2225,0.0237 -2.2225,1.0175 0,0.355 0.26,0.615 0.615,0.75625 0.615,0.2375 1.9387,0.5675 2.7437,0.7575 2.175,0.52 4.635,1.15875 4.635,3.855 0,1.915 -1.5375,4.115 -5.5813,4.115 -1.1824,0 -3.1462,-0.2125 -4.5649,-1.49 -0.9225,-0.8275 -1.1825,-1.82125 -1.3013,-2.29375 l 3.2412,-0.4975"
         inkscape:connector-curvature="0" />
      <path
         id="path3168"
         style="fill:#0073d1;fill-opacity:1;fill-rule:nonzero;stroke:none"
         d="m 1076.7777,801.78424 29.075,18.83625 -29.6188,7.2625 43.2063,8.33875 0,7.53 c 0,0 41.85,6.19125 76.0887,6.19125 34.2388,0 83.695,-6.72875 83.695,-6.72875 l 0,-7.5325 43.7525,-8.61125 -31.25,-6.72375 30.9788,-19.90625 c 0,0 -18.2075,6.99375 -75.2725,12.645 l 0,8.06875 c 0,0 -24.4563,2.42 -52.99,2.42 -28.5325,0 -43.205,-1.88125 -43.205,-1.88125 l 0,-9.68375 -74.46,-10.225"
         inkscape:connector-curvature="0" />
      <path
         inkscape:connector-curvature="0"
         id="path3178"
         d="m 1322.625,799.78125 a 0.65194021,0.65194021 0 0 0 -0.1562,0.0625 c 0,0 -17.8098,6.58932 -71.5938,12.15625 l -0.4375,-0.0625 a 0.65194021,0.65194021 0 0 0 -0.5937,0.1875 c -0.9612,0.0982 -1.4846,0.21503 -2.4688,0.3125 a 0.65194021,0.65194021 0 0 0 -0.5938,0.65625 l 0,7.4375 0,0.0312 c -0.8966,0.0877 -24.3841,2.375 -52.3437,2.375 -27.7652,0 -41.825,-1.7515 -42.5625,-1.84375 l 0,-9.09375 a 0.65194021,0.65194021 0 0 0 -0.5625,-0.625 l -74.4375,-10.25 a 0.65194021,0.65194021 0 0 0 -0.4375,1.21875 l 27.8125,18 -28.1562,6.90625 a 0.65194021,0.65194021 0 0 0 0.031,1.28125 l 42.6562,8.25 0,6.96875 a 0.65194021,0.65194021 0 0 0 0.5626,0.65625 c 0,0 41.8702,6.1875 76.1874,6.1875 34.3243,0 83.7813,-6.71875 83.7813,-6.71875 a 0.65194021,0.65194021 0 0 0 0.5625,-0.65625 l 0,-7 43.2188,-8.5 a 0.65194021,0.65194021 0 0 0 0.031,-1.28125 l -29.6875,-6.375 29.5,-19 0.125,-0.0625 a 0.65194021,0.65194021 0 0 0 -0.4375,-1.21875 z m -4.2188,2.65625 -27.0312,17.375 a 0.65194021,0.65194021 0 0 0 0.2188,1.15625 l 28.1562,6.09375 -39.875,7.8125 0,-17.28125 a 0.65194021,0.65194021 0 0 0 -0.5312,-0.625 l -24.0626,-4.1875 c 36.0255,-3.93143 55.5203,-8.20719 63.125,-10.34375 z m -238.8437,0.40625 67.3125,9.21875 -27.1875,5.0625 -0.125,0 a 0.65194021,0.65194021 0 0 0 -0.094,0.0312 0.65194021,0.65194021 0 0 0 -0.2813,0.0937 0.65194021,0.65194021 0 0 0 -0.062,0.0625 0.65194021,0.65194021 0 0 0 -0.031,0.0312 0.65194021,0.65194021 0 0 0 -0.031,0.0312 0.65194021,0.65194021 0 0 0 -0.031,0.0625 0.65194021,0.65194021 0 0 0 -0.031,0.0312 0.65194021,0.65194021 0 0 0 0,0.0312 0.65194021,0.65194021 0 0 0 -0.031,0.0312 0.65194021,0.65194021 0 0 0 0,0.0312 0.65194021,0.65194021 0 0 0 -0.031,0.0312 0.65194021,0.65194021 0 0 0 0,0.0312 0.65194021,0.65194021 0 0 0 0,0.0312 0.65194021,0.65194021 0 0 0 0,0.0312 0.65194021,0.65194021 0 0 0 0,0.0312 0.65194021,0.65194021 0 0 0 -0.031,0.0312 0.65194021,0.65194021 0 0 0 0,0.0312 l 0,17.6875 -39.625,-7.65625 L 1106,821.25 a 0.65194021,0.65194021 0 0 0 0.2188,-1.1875 l -26.6563,-17.21875 z m 71.0313,9.875 0,8.21875 c -0.8244,-0.0897 -16.267,-1.8451 -26.75,-3.28125 l 26.75,-4.9375 z m 100.2187,0.59375 24.375,4.25 -27.0937,2.875 0,-6.78125 c 1.0765,-0.10742 1.6698,-0.23542 2.7187,-0.34375 z m 27.75,5.1875 0,17.125 0,0.0625 a 0.65194021,0.65194021 0 0 0 0,0.0625 l 0,6.875 c -0.9433,0.12781 -49.2089,6.65625 -83.0313,6.65625 -33.7792,0 -74.521,-5.99014 -75.4374,-6.125 l 0,-5.9375 a 0.65194021,0.65194021 0 0 0 0.125,-0.40625 l 0,-18.28125 c 10.1607,1.53942 30.5715,3.7585 30.7812,3.78125 9e-4,9e-5 0.1248,0.0312 0.125,0.0312 0,0 0.031,0 0.031,0 a 0.65194021,0.65194021 0 0 0 0.063,0 c 3e-4,5e-5 0.093,-1.1e-4 0.094,0 0.2073,0.0264 14.7664,1.875 43.125,1.875 25.6341,0 45.4902,-1.75527 49.8125,-2.15625 a 0.65194021,0.65194021 0 0 0 0.3125,0.0312 l 2,-0.21875 c 0.042,-0.004 0.9375,-0.0625 0.9375,-0.0625 a 0.65194021,0.65194021 0 0 0 0.062,-0.0312 l 0.062,0 a 0.65194021,0.65194021 0 0 0 0.062,-0.0312 l 30.875,-3.25 z"
         style="font-size:medium;font-style:normal;font-variant:normal;font-weight:normal;font-stretch:normal;text-indent:0;text-align:start;text-decoration:none;line-height:normal;letter-spacing:normal;word-spacing:normal;text-transform:none;direction:ltr;block-progression:tb;writing-mode:lr-tb;text-anchor:start;baseline-shift:baseline;color:#000000;fill:#ffffff;fill-opacity:1;fill-rule:nonzero;stroke:none;stroke-width:1.30375004;marker:none;visibility:visible;display:inline;overflow:visible;enable-background:accumulate;font-family:Sans;-inkscape-font-specification:Sans" />
      <g
         transform="matrix(1.25,0,0,-1.25,1071.4764,850.59424)"
         id="g3180">
        <g
           clip-path="url(#clipPath3184)"
           id="g3182">
          <path
             id="path3188"
             style="fill:#ffffff;fill-opacity:1;fill-rule:nonzero;stroke:none"
             d="m 49.295,12.757 c 0.308,-0.213 0.562,-0.523 0.738,-0.776 0.109,0.155 0.399,0.568 0.527,1.67 0.109,0.937 0.06,2.284 -0.919,2.399 -1.127,0.132 -1.382,-1.644 -1.438,-2.122 -0.224,-1.929 0.495,-2.349 0.925,-2.399 0.184,-0.022 0.261,0.006 0.322,0.018 -0.083,0.112 -0.299,0.342 -0.483,0.475 l 0.328,0.735 z m 1.539,-3.142 c -0.287,0.182 -0.429,0.367 -0.716,0.755 -0.048,0.061 -0.12,0.163 -0.142,0.184 -0.154,-0.076 -0.516,-0.219 -0.963,-0.166 -1.539,0.181 -1.906,1.862 -1.699,3.645 0.242,2.076 1.135,3.311 2.466,3.155 1.384,-0.163 1.897,-1.676 1.669,-3.642 -0.174,-1.497 -0.608,-2.107 -0.81,-2.391 0.083,-0.112 0.275,-0.386 0.621,-0.64 l -0.426,-0.9"
             inkscape:connector-curvature="0" />
          <path
             id="path3190"
             style="fill:#ffffff;fill-opacity:1;fill-rule:nonzero;stroke:none"
             d="m 53.283,16.672 -0.39,-3.555 c -0.086,-0.781 -0.121,-1.102 -0.048,-1.426 0.11,-0.486 0.432,-0.633 0.695,-0.662 0.823,-0.091 0.91,0.708 1.033,1.829 l 0.398,3.628 0.859,-0.094 -0.378,-3.454 C 55.323,11.762 55.221,11.113 54.958,10.64 54.544,9.895 53.915,9.834 53.438,9.887 c -1.748,0.192 -1.565,1.855 -1.399,3.371 l 0.384,3.509 0.86,-0.095"
             inkscape:connector-curvature="0" />
          <path
             id="path3192"
             style="fill:#ffffff;fill-opacity:1;fill-rule:nonzero;stroke:none"
             d="m 58.231,12.123 -0.34,2.503 -0.832,-2.384 1.172,-0.119 z M 58.61,9.457 58.392,10.983 56.681,11.158 56.175,9.706 55.254,9.8 57.6,16.206 58.515,16.113 59.555,9.361 58.61,9.457"
             inkscape:connector-curvature="0" />
          <path
             id="path3194"
             style="fill:#ffffff;fill-opacity:1;fill-rule:nonzero;stroke:none"
             d="M 60.639,15.905 61.5,15.824 60.974,10.349 63.127,10.146 63.02,9.033 60.005,9.317 60.639,15.905"
             inkscape:connector-curvature="0" />
          <path
             id="path3196"
             style="fill:#ffffff;fill-opacity:1;fill-rule:nonzero;stroke:none"
             d="m 64.199,15.565 0.861,-0.079 -0.6,-6.588 -0.862,0.079 0.601,6.588"
             inkscape:connector-curvature="0" />
          <path
             id="path3198"
             style="fill:#ffffff;fill-opacity:1;fill-rule:nonzero;stroke:none"
             d="m 66.727,14.214 -1.269,0.11 0.097,1.113 3.397,-0.294 -0.096,-1.114 -1.268,0.11 -0.472,-5.474 -0.862,0.074 0.473,5.475"
             inkscape:connector-curvature="0" />
          <path
             id="path3200"
             style="fill:#ffffff;fill-opacity:1;fill-rule:nonzero;stroke:none"
             d="m 71.111,16.776 0.915,-0.07 -0.906,-1.285 -0.521,0.04 0.512,1.315 z m -1.646,-1.664 3.176,-0.243 -0.087,-1.115 -2.314,0.177 -0.114,-1.465 2.153,-0.165 -0.087,-1.115 -2.153,0.165 -0.14,-1.788 2.393,-0.183 -0.086,-1.115 -3.254,0.249 0.513,6.598"
             inkscape:connector-curvature="0" />
          <path
             id="path3202"
             style="fill:#ffffff;fill-opacity:1;fill-rule:nonzero;stroke:none"
             d="m 74.541,11.133 1.613,-0.107 -0.086,-1.262 -1.612,0.107 0.085,1.262"
             inkscape:connector-curvature="0" />
          <path
             id="path3204-8"
             style="fill:#ffffff;fill-opacity:1;fill-rule:nonzero;stroke:none"
             d="m 78.614,14.466 3.184,-0.178 -0.063,-1.117 -2.32,0.13 -0.083,-1.468 2.159,-0.121 -0.063,-1.117 -2.159,0.121 -0.1,-1.791 2.398,-0.135 -0.063,-1.117 -3.262,0.183 0.372,6.61"
             inkscape:connector-curvature="0" />
          <path
             id="path3206"
             style="fill:#ffffff;fill-opacity:1;fill-rule:nonzero;stroke:none"
             d="m 83.397,11.043 -1.19,3.219 1.014,-0.047 0.769,-2.163 0.934,2.085 1.007,-0.046 -1.48,-3.151 1.317,-3.465 -1.043,0.048 -0.852,2.324 -1.055,-2.237 -1.044,0.048 1.623,3.385"
             inkscape:connector-curvature="0" />
          <path
             id="path3208"
             style="fill:#ffffff;fill-opacity:1;fill-rule:nonzero;stroke:none"
             d="m 87.265,12.928 -0.059,-1.883 0.48,-0.016 c 0.443,-0.014 1.049,-0.034 1.079,0.916 0.007,0.241 -0.033,0.491 -0.177,0.681 -0.184,0.265 -0.387,0.271 -0.903,0.289 l -0.42,0.013 z m -0.828,1.146 1.391,-0.046 c 0.756,-0.025 0.988,-0.07 1.211,-0.243 0.269,-0.213 0.655,-0.734 0.62,-1.851 -0.036,-1.163 -0.484,-1.647 -0.76,-1.832 C 88.586,9.891 88.124,9.896 87.741,9.909 l -0.57,0.019 -0.078,-2.492 -0.864,0.028 0.208,6.61"
             inkscape:connector-curvature="0" />
          <path
             id="path3210"
             style="fill:#ffffff;fill-opacity:1;fill-rule:nonzero;stroke:none"
             d="m 91.869,15.721 0.92,-0.016 -0.83,-1.336 -0.523,0.009 0.433,1.343 z m -1.547,-1.758 3.192,-0.056 -0.02,-1.119 -2.327,0.041 -0.027,-1.47 2.165,-0.039 -0.021,-1.118 -2.164,0.038 -0.033,-1.794 2.405,-0.043 -0.02,-1.118 -3.271,0.058 0.121,6.62"
             inkscape:connector-curvature="0" />
          <path
             id="path3212"
             style="fill:#ffffff;fill-opacity:1;fill-rule:nonzero;stroke:none"
             d="m 95.058,11.096 0.644,-10e-4 c 0.264,-0.001 0.63,-0.002 0.781,0.081 0.302,0.156 0.333,0.582 0.333,0.776 10e-4,0.268 -0.058,0.527 -0.22,0.675 -0.161,0.149 -0.27,0.149 -0.853,0.15 l -0.679,0.002 -0.006,-1.683 z m -0.856,2.804 1.827,-0.005 c 0.644,-10e-4 0.854,-0.103 0.986,-0.168 0.498,-0.288 0.7,-1.047 0.697,-1.694 -0.002,-0.722 -0.238,-1.359 -0.66,-1.626 -0.151,-0.101 -0.313,-0.175 -0.482,-0.202 l 0,-0.019 c 0.36,-0.315 0.528,-0.556 0.957,-1.62 l 0.518,-1.296 -1.04,0.002 -0.62,1.444 c -0.519,1.195 -0.573,1.324 -1.156,1.326 l -0.174,0 -0.01,-2.765 -0.865,0.003 0.022,6.62"
             inkscape:connector-curvature="0" />
          <path
             id="path3214"
             style="fill:#ffffff;fill-opacity:1;fill-rule:nonzero;stroke:none"
             d="M 98.4,13.909 99.266,13.92 99.354,7.299 98.488,7.288 98.4,13.909"
             inkscape:connector-curvature="0" />
          <path
             id="path3216"
             style="fill:#ffffff;fill-opacity:1;fill-rule:nonzero;stroke:none"
             d="m 100.005,13.92 3.193,0.081 0.027,-1.117 -2.326,-0.059 0.036,-1.468 2.165,0.055 0.027,-1.117 -2.164,-0.055 0.044,-1.791 2.405,0.061 0.027,-1.117 -3.27,-0.083 -0.164,6.61"
             inkscape:connector-curvature="0" />
          <path
             id="path3218"
             style="fill:#ffffff;fill-opacity:1;fill-rule:nonzero;stroke:none"
             d="m 103.918,14.022 0.84,0.032 1.913,-4.346 0.012,0 -0.168,4.413 0.804,0.031 0.251,-6.61 -0.869,-0.033 -1.879,4.246 -0.012,-0.001 0.164,-4.311 -0.804,-0.03 -0.252,6.609"
             inkscape:connector-curvature="0" />
          <path
             id="path3220"
             style="fill:#ffffff;fill-opacity:1;fill-rule:nonzero;stroke:none"
             d="m 111.972,9.787 c -0.065,-0.522 -0.272,-2.152 -1.676,-2.224 -1.163,-0.059 -2.019,1.203 -2.121,3.262 -0.092,1.837 0.433,3.501 1.83,3.572 0.24,0.013 0.842,0.006 1.351,-0.69 0.233,-0.321 0.36,-0.703 0.467,-1.161 l -0.843,-0.357 c -0.143,0.714 -0.516,1.084 -0.96,1.061 -1.067,-0.054 -0.978,-1.863 -0.957,-2.288 0.031,-0.618 0.11,-1.235 0.311,-1.65 0.174,-0.361 0.476,-0.624 0.859,-0.604 0.576,0.029 0.807,0.717 0.879,1.442 l 0.86,-0.363"
             inkscape:connector-curvature="0" />
          <path
             id="path3222"
             style="fill:#ffffff;fill-opacity:1;fill-rule:nonzero;stroke:none"
             d="m 112.412,14.415 3.184,0.194 0.067,-1.117 -2.321,-0.142 0.087,-1.468 2.159,0.132 0.066,-1.117 -2.158,-0.131 0.106,-1.791 2.399,0.146 0.066,-1.117 -3.262,-0.199 -0.393,6.61"
             inkscape:connector-curvature="0" />
          <path
             id="path3224"
             style="fill:#ffffff;fill-opacity:1;fill-rule:nonzero;stroke:none"
             d="m 117.987,11.166 1.613,0.111 0.088,-1.263 -1.613,-0.111 -0.088,1.263"
             inkscape:connector-curvature="0" />
          <path
             id="path3226"
             style="fill:#ffffff;fill-opacity:1;fill-rule:nonzero;stroke:none"
             d="m 122.569,10.741 c 0.069,-0.338 0.254,-1.25 1.032,-1.189 0.604,0.048 0.805,0.555 0.772,0.979 -0.043,0.553 -0.352,0.649 -1.164,0.882 -0.438,0.132 -1.411,0.417 -1.524,1.873 -0.056,0.719 0.162,1.867 1.418,1.967 0.837,0.066 1.642,-0.38 1.794,-1.871 l -0.863,-0.123 c -0.062,0.338 -0.176,0.95 -0.858,0.896 -0.257,-0.02 -0.715,-0.177 -0.673,-0.712 0.033,-0.424 0.317,-0.587 1.024,-0.781 0.671,-0.188 1.581,-0.44 1.707,-2.062 0.062,-0.803 -0.214,-1.501 -0.565,-1.789 -0.361,-0.307 -0.791,-0.359 -0.988,-0.375 -0.46,-0.036 -1.602,-0.062 -1.94,2.119 l 0.828,0.186"
             inkscape:connector-curvature="0" />
          <path
             id="path3228"
             style="fill:#ffffff;fill-opacity:1;fill-rule:nonzero;stroke:none"
             d="m 126.578,14.292 -1.268,-0.106 -0.095,1.113 3.398,0.286 0.094,-1.114 -1.268,-0.106 0.463,-5.475 -0.861,-0.073 -0.463,5.475"
             inkscape:connector-curvature="0" />
          <path
             id="path3230"
             style="fill:#ffffff;fill-opacity:1;fill-rule:nonzero;stroke:none"
             d="m 131.227,11.806 -0.812,2.395 -0.361,-2.499 1.173,0.104 z m 0.879,-2.546 -0.504,1.458 -1.711,-0.153 -0.22,-1.522 -0.921,-0.083 1.079,6.737 0.915,0.082 2.307,-6.434 -0.945,-0.085"
             inkscape:connector-curvature="0" />
          <path
             id="path3232"
             style="fill:#ffffff;fill-opacity:1;fill-rule:nonzero;stroke:none"
             d="m 134.092,12.326 0.167,-1.739 0.802,0.078 c 0.186,0.018 0.55,0.053 0.675,0.139 0.3,0.206 0.299,0.596 0.279,0.798 -0.086,0.902 -0.619,0.85 -1.223,0.792 l -0.7,-0.068 z m -0.252,2.622 0.145,-1.509 0.939,0.091 c 0.293,0.029 0.731,0.127 0.663,0.826 -0.028,0.294 -0.16,0.598 -0.39,0.668 -0.131,0.043 -0.233,0.033 -0.855,-0.027 l -0.502,-0.049 z m 0.743,1.196 c 0.591,0.057 0.936,0.054 1.24,-0.224 0.278,-0.251 0.531,-0.682 0.588,-1.271 0.055,-0.579 -0.098,-1.179 -0.468,-1.484 0.768,-0.26 0.932,-1.145 0.967,-1.513 0.063,-0.654 -0.098,-1.43 -0.528,-1.788 -0.236,-0.19 -0.508,-0.244 -1.417,-0.332 l -1.46,-0.142 -0.633,6.588 1.711,0.166"
             inkscape:connector-curvature="0" />
          <path
             id="path3234"
             style="fill:#ffffff;fill-opacity:1;fill-rule:nonzero;stroke:none"
             d="m 137.119,16.391 0.861,0.086 0.656,-6.588 -0.862,-0.086 -0.655,6.588"
             inkscape:connector-curvature="0" />
          <path
             id="path3236"
             style="fill:#ffffff;fill-opacity:1;fill-rule:nonzero;stroke:none"
             d="m 138.806,16.55 0.861,0.088 0.563,-5.466 2.153,0.22 0.115,-1.111 -3.015,-0.308 -0.677,6.577"
             inkscape:connector-curvature="0" />
          <path
             id="path3238"
             style="fill:#ffffff;fill-opacity:1;fill-rule:nonzero;stroke:none"
             d="m 142.396,16.927 0.859,0.092 0.699,-6.577 -0.859,-0.092 -0.699,6.577"
             inkscape:connector-curvature="0" />
          <path
             id="path3240"
             style="fill:#ffffff;fill-opacity:1;fill-rule:nonzero;stroke:none"
             d="m 145.146,16.101 -1.264,-0.139 -0.122,1.111 3.388,0.373 0.123,-1.112 -1.266,-0.139 0.6,-5.465 -0.859,-0.095 -0.6,5.466"
             inkscape:connector-curvature="0" />
          <path
             id="path3242"
             style="fill:#ffffff;fill-opacity:1;fill-rule:nonzero;stroke:none"
             d="m 148.995,19.457 0.913,0.105 -0.646,-1.433 -0.519,-0.06 0.252,1.388 z m -1.3,-1.946 3.168,0.365 0.127,-1.111 -2.309,-0.267 0.168,-1.46 2.148,0.247 0.127,-1.111 -2.148,-0.247 0.204,-1.783 2.387,0.275 0.127,-1.111 -3.246,-0.374 -0.753,6.577"
             inkscape:connector-curvature="0" />
        </g>
      </g>
    </g>
    <g
       id="g3064"
       transform="matrix(1.25,0,0,-1.25,1075.4764,850.59424)" />
  </g>
</svg>
